<?xml version="1.0" standalone="no"?>
<!DOCTYPE svg PUBLIC "-//W3C//DTD SVG 20010904//EN"
 "http://www.w3.org/TR/2001/REC-SVG-20010904/DTD/svg10.dtd">
<svg version="1.0" xmlns="http://www.w3.org/2000/svg"
 width="1173.000000pt" height="830.000000pt" viewBox="0 0 1173.000000 830.000000"
 preserveAspectRatio="xMidYMid meet">

<g transform="translate(0.000000,830.000000) scale(0.100000,-0.100000)"
fill="#000000" stroke="none">
<path d="M0 4150 l0 -4150 5865 0 5865 0 0 4150 0 4150 -5865 0 -5865 0 0
-4150z m4333 2783 c-7 -2 -19 -2 -25 0 -7 3 -2 5 12 5 14 0 19 -2 13 -5z m166
-2 c10 -6 5 -11 -18 -16 -18 -4 -35 -4 -38 -1 -4 3 5 7 18 7 18 1 15 3 -11 9
l-35 7 35 2 c19 0 41 -3 49 -8z m148 3 c-3 -3 -12 -4 -19 -1 -8 3 -5 6 6 6 11
1 17 -2 13 -5z m66 -1 c-7 -2 -19 -2 -25 0 -7 3 -2 5 12 5 14 0 19 -2 13 -5z
m625 -2 c15 -1 16 -31 1 -31 -5 0 -7 5 -4 10 4 6 -9 10 -32 11 -21 0 -47 4
-58 9 -13 5 -3 7 30 5 28 -2 56 -4 63 -4z m148 -9 c-21 -2 -42 0 -47 5 -4 4
13 6 39 3 l47 -5 -39 -3z m1284 -2 c0 -13 -6 -20 -17 -19 -11 0 -13 3 -5 6 6
2 12 11 12 19 0 8 2 14 5 14 3 0 5 -9 5 -20z m829 16 c-15 -13 -49 -25 -49
-17 0 5 8 12 18 14 24 6 36 8 31 3z m-2189 -16 c0 -5 -7 -7 -15 -4 -8 4 -15 8
-15 10 0 2 7 4 15 4 8 0 15 -4 15 -10z m315 0 c4 -6 -5 -10 -19 -10 -14 0 -26
5 -26 10 0 6 9 10 19 10 11 0 23 -4 26 -10z m98 3 c-13 -2 -35 -2 -50 0 -16 2
-5 4 22 4 28 0 40 -2 28 -4z m330 0 c-7 -2 -19 -2 -25 0 -7 3 -2 5 12 5 14 0
19 -2 13 -5z m454 1 c-3 -3 -12 -4 -19 -1 -8 3 -5 6 6 6 11 1 17 -2 13 -5z
m441 -1 c-10 -2 -26 -2 -35 0 -10 3 -2 5 17 5 19 0 27 -2 18 -5z m195 0 c-7
-2 -21 -2 -30 0 -10 3 -4 5 12 5 17 0 24 -2 18 -5z m584 1 c-3 -3 -12 -4 -19
-1 -8 3 -5 6 6 6 11 1 17 -2 13 -5z m166 -1 c-7 -2 -19 -2 -25 0 -7 3 -2 5 12
5 14 0 19 -2 13 -5z m-3625 -10 c-21 -2 -38 -8 -38 -13 0 -5 -8 -6 -17 -3 -15
6 -15 7 3 14 10 4 35 7 54 7 l35 -1 -37 -4z m245 0 c-7 -2 -21 -2 -30 0 -10 3
-4 5 12 5 17 0 24 -2 18 -5z m67 3 c0 -2 -11 -6 -25 -8 -13 -3 -22 -1 -19 3 5
9 44 13 44 5z m208 -3 c-32 -2 -86 -2 -120 0 -35 2 -9 3 57 3 66 0 94 -1 63
-3z m305 0 c-7 -2 -19 -2 -25 0 -7 3 -2 5 12 5 14 0 19 -2 13 -5z m1126 -9 c2
-2 -10 -4 -27 -4 -18 0 -32 5 -32 10 0 9 47 4 59 -6z m1451 6 c10 -6 2 -7 -25
-3 -49 7 -58 13 -19 13 16 0 36 -5 44 -10z m-3480 -16 c0 -2 -12 -4 -27 -4
-21 0 -24 3 -14 9 13 8 41 5 41 -5z m1025 6 c3 -6 -1 -7 -9 -4 -18 7 -21 14
-7 14 6 0 13 -4 16 -10z m540 0 l30 -8 -30 0 c-16 0 -41 4 -55 8 l-25 8 25 0
c14 0 39 -4 55 -8z m1245 0 c0 -13 -11 -13 -30 0 -12 8 -11 10 8 10 12 0 22
-4 22 -10z m168 3 c-10 -2 -26 -2 -35 0 -10 3 -2 5 17 5 19 0 27 -2 18 -5z
m567 -3 c-4 -6 13 -11 42 -11 l48 -2 -55 -7 c-30 -3 -77 -4 -105 0 l-50 7 47
2 c26 0 50 6 53 11 3 6 11 10 16 10 6 0 7 -4 4 -10z m-3445 -10 c0 -5 -4 -10
-10 -10 -5 0 -10 5 -10 10 0 6 5 10 10 10 6 0 10 -4 10 -10z m90 0 c0 -5 -2
-10 -4 -10 -3 0 -8 5 -11 10 -3 6 -1 10 4 10 6 0 11 -4 11 -10z m90 0 c0 -5
-5 -10 -11 -10 -5 0 -7 5 -4 10 3 6 8 10 11 10 2 0 4 -4 4 -10z m45 0 c3 -5
-1 -10 -10 -10 -9 0 -13 5 -10 10 3 6 8 10 10 10 2 0 7 -4 10 -10z m529 -10
c-10 -4 -21 -6 -24 -3 -8 7 24 22 34 16 5 -4 1 -10 -10 -13z m146 10 c8 -5 11
-10 5 -10 -5 0 -17 5 -25 10 -8 5 -10 10 -5 10 6 0 17 -5 25 -10z m707 4 c-3
-3 -12 -4 -19 -1 -8 3 -5 6 6 6 11 1 17 -2 13 -5z m259 -6 c44 3 64 1 64 -7 0
-10 -15 -12 -80 -15 -35 -1 -130 16 -130 23 0 5 18 5 41 1 22 -4 69 -5 105 -2z
m119 2 c3 -5 2 -10 -4 -10 -5 0 -13 5 -16 10 -3 6 -2 10 4 10 5 0 13 -4 16
-10z m1608 3 c-7 -2 -19 -2 -25 0 -7 3 -2 5 12 5 14 0 19 -2 13 -5z m-2910
-10 c-7 -2 -19 -2 -25 0 -7 3 -2 5 12 5 14 0 19 -2 13 -5z m315 -10 c-6 -7
-29 -12 -52 -11 -39 1 -40 1 -7 5 22 3 30 7 22 12 -8 5 -1 8 17 7 23 -1 28 -4
20 -13z m190 10 c-16 -2 -40 -2 -55 0 -16 2 -3 4 27 4 30 0 43 -2 28 -4z m135
0 c-7 -2 -19 -2 -25 0 -7 3 -2 5 12 5 14 0 19 -2 13 -5z m827 -9 c0 -15 -50
-24 -94 -17 -33 5 -43 13 -31 24 10 10 125 4 125 -7z m257 10 c-3 -3 -12 -4
-19 -1 -8 3 -5 6 6 6 11 1 17 -2 13 -5z m483 -4 c0 -5 -4 -10 -10 -10 -5 0
-10 5 -10 10 0 6 5 10 10 10 6 0 10 -4 10 -10z m300 -11 c0 -5 -4 -9 -9 -9 -5
0 -16 -3 -24 -6 -9 -3 -16 2 -19 13 -4 16 0 18 23 15 16 -2 29 -8 29 -13z m60
11 c0 -5 -2 -10 -4 -10 -3 0 -8 5 -11 10 -3 6 -1 10 4 10 6 0 11 -4 11 -10z
m-3138 -19 c32 -4 63 -4 70 1 7 4 114 8 238 8 l225 0 17 -30 c22 -38 74 -70
118 -71 l35 -1 -30 -13 c-38 -18 -98 -10 -185 22 -36 14 -105 29 -153 34 -49
5 -97 14 -108 20 -11 5 -25 8 -32 6 -25 -9 52 -30 138 -37 67 -5 110 -16 168
-40 43 -18 93 -34 110 -35 43 -4 44 -4 27 -14 -29 -19 -108 -21 -210 -6 -58 9
-136 20 -175 25 -38 6 -83 13 -100 16 -31 6 -98 42 -103 56 -2 4 -12 8 -23 8
-10 0 -19 5 -19 11 0 8 -14 10 -42 5 -38 -5 -41 -4 -25 8 15 12 11 14 -33 19
-52 6 -100 -5 -100 -23 0 -5 -9 -10 -21 -10 -14 0 -19 5 -16 14 4 11 -3 13
-36 10 -35 -4 -38 -3 -19 6 31 13 170 29 202 23 14 -3 51 -8 82 -12z m693 9
c3 -5 25 -11 48 -12 l42 -1 -39 -4 c-47 -5 -89 4 -81 17 8 13 22 13 30 0z
m1428 3 c-13 -2 -33 -2 -45 0 -13 2 -3 4 22 4 25 0 35 -2 23 -4z m1457 -32 c0
-5 -7 -11 -15 -15 -15 -5 -20 5 -8 17 9 10 23 9 23 -2z m-233 -68 c-3 -10 -5
-2 -5 17 0 19 2 27 5 18 2 -10 2 -26 0 -35z m230 13 c-1 -20 -6 -32 -14 -29
-12 5 -11 16 2 46 11 25 14 21 12 -17z m-1837 0 c0 -2 -7 -6 -15 -10 -8 -3
-15 -1 -15 4 0 6 7 10 15 10 8 0 15 -2 15 -4z m-2223 -81 c1 -24 -2 -47 -7
-50 -6 -4 -7 70 -1 93 4 11 7 -5 8 -43z m3992 36 c19 -12 22 -28 28 -128 3
-57 2 -83 -6 -83 -7 0 -11 27 -11 75 0 71 -14 125 -32 125 -4 0 -8 5 -8 10 0
12 10 13 29 1z m62 -24 c-10 -9 -11 -8 -5 6 3 10 9 15 12 12 3 -3 0 -11 -7
-18z m-3997 -2 c-4 -8 -11 -15 -16 -15 -6 0 -5 6 2 15 7 8 14 15 16 15 2 0 1
-7 -2 -15z m3983 -37 c-3 -8 -6 -5 -6 6 -1 11 2 17 5 13 3 -3 4 -12 1 -19z
m-3917 -2 c0 -2 -7 -9 -15 -16 -13 -11 -14 -10 -9 4 5 14 24 23 24 12z m1160
-3 c0 -9 -65 -53 -77 -53 -6 0 68 59 75 60 1 0 2 -3 2 -7z m-814 -81 c-15 -15
-16 -15 -16 0 0 9 -6 19 -12 22 -7 3 -4 4 7 3 14 -1 21 5 25 23 4 24 4 24 8
-4 2 -17 -3 -35 -12 -44z m-469 11 c-3 -10 -5 -4 -5 12 0 17 2 24 5 18 2 -7 2
-21 0 -30z m72 5 c-8 -14 -14 -18 -17 -10 -2 6 -8 10 -13 6 -5 -3 -9 0 -9 5 0
6 9 11 20 11 11 0 20 5 20 12 0 6 3 9 6 6 3 -4 0 -17 -7 -30z m331 18 c0 -3
-4 -8 -10 -11 -5 -3 -10 -1 -10 4 0 6 5 11 10 11 6 0 10 -2 10 -4z m870 -1 c0
-3 -18 -24 -40 -45 -43 -42 -98 -75 -108 -66 -3 3 0 6 6 6 13 0 42 28 42 42 0
5 -7 7 -16 4 -9 -3 -12 -2 -9 5 4 5 12 8 18 6 7 -2 18 3 26 10 11 11 16 12 21
2 6 -8 13 -3 25 15 15 23 35 35 35 21z m-925 -14 c3 -5 0 -13 -6 -17 -7 -4 -9
-3 -5 4 3 5 0 13 -6 15 -9 4 -10 6 -1 6 6 1 14 -3 18 -8z m3702 -13 c-3 -8 -6
-5 -6 6 -1 11 2 17 5 13 3 -3 4 -12 1 -19z m-3203 -2 c8 3 17 0 22 -7 4 -8 3
-10 -4 -5 -7 4 -12 2 -12 -4 0 -7 10 -9 28 -6 15 3 41 2 57 -3 29 -9 29 -9 5
-11 l-25 -2 25 -8 c37 -12 8 -11 -50 1 -27 6 -50 14 -50 19 0 5 -13 11 -30 15
-16 4 -30 11 -30 16 0 5 11 4 25 -1 14 -5 31 -7 39 -4z m306 -6 c-8 -5 -19
-10 -25 -10 -5 0 -3 5 5 10 8 5 20 10 25 10 6 0 3 -5 -5 -10z m-45 -19 c-6 -5
-30 -11 -55 -14 l-45 -6 50 14 c28 7 52 14 55 14 2 1 0 -3 -5 -8z m2961 -28
c2 -21 1 -24 -6 -13 -11 17 -14 57 -3 47 3 -4 8 -19 9 -34z m-3236 -5 c0 -6
-6 -5 -15 2 -8 7 -15 14 -15 16 0 2 7 1 15 -2 8 -4 15 -11 15 -16z m310 9 c0
-1 -9 -10 -19 -19 -17 -14 -20 -14 -25 -2 -3 9 -1 12 4 9 6 -3 10 -1 10 4 0 6
7 11 15 11 8 0 15 -1 15 -3z m2920 -51 c0 -5 -7 -1 -15 10 -8 10 -14 24 -14
29 0 6 6 1 14 -9 8 -11 15 -24 15 -30z m-4050 24 c0 -5 -7 -10 -15 -10 -8 0
-15 5 -15 10 0 6 7 10 15 10 8 0 15 -4 15 -10z m1057 -6 c-3 -3 -12 -4 -19 -1
-8 3 -5 6 6 6 11 1 17 -2 13 -5z m2959 -26 c-3 -13 -6 -34 -7 -48 l-1 -25 -8
27 c-9 31 -3 68 12 68 6 0 8 -10 4 -22z m-4039 -25 c-3 -10 -5 -4 -5 12 0 17
2 24 5 18 2 -7 2 -21 0 -30z m1058 27 c-11 -5 -31 -8 -45 -8 -23 0 -22 1 5 8
42 11 65 11 40 0z m-985 -60 c0 -5 -7 -10 -16 -10 -8 0 -12 5 -9 10 3 6 10 10
16 10 5 0 9 -4 9 -10z m554 -25 c-4 -8 -11 -15 -16 -15 -6 0 -5 6 2 15 7 8 14
15 16 15 2 0 1 -7 -2 -15z m3376 -15 c0 -5 -7 -7 -15 -4 -8 4 -15 8 -15 10 0
2 7 4 15 4 8 0 15 -4 15 -10z m21 -13 c-10 -9 -11 -8 -5 6 3 10 9 15 12 12 3
-3 0 -11 -7 -18z m-4013 -8 c-10 -7 -11 -9 0 -9 7 0 10 -5 7 -11 -9 -13 -15
-7 -20 19 -3 15 0 19 12 15 12 -5 12 -7 1 -14z m163 -32 c10 -3 19 -12 19 -21
0 -24 -12 -20 -41 13 -19 22 -23 33 -15 41 8 8 12 6 14 -8 2 -11 12 -22 23
-25z m3866 -9 c-3 -7 -5 -2 -5 12 0 14 2 19 5 13 2 -7 2 -19 0 -25z m9 -34
c-9 -8 -16 -11 -16 -5 0 5 5 13 10 16 6 3 11 16 11 28 2 22 2 22 6 -1 2 -12
-3 -29 -11 -38z m-4034 18 c-7 -2 -12 -13 -12 -24 0 -12 -3 -19 -6 -15 -11 11
6 58 18 51 9 -6 9 -9 0 -12z m509 -6 c-9 -11 -6 -15 19 -18 25 -4 28 -2 17 11
-9 12 -9 13 1 7 6 -4 12 -2 12 3 0 6 4 11 10 11 5 0 6 -8 3 -17 -5 -13 -2 -15
12 -10 16 7 16 6 3 -15 -15 -23 -88 -54 -88 -37 0 5 -7 9 -15 9 -24 0 -18 45
8 58 30 14 31 14 18 -2z m-111 -26 c-18 -12 -30 -13 -30 -2 0 4 10 9 22 9 18
2 20 0 8 -7z m3520 -41 c24 -14 37 -26 31 -32 -15 -15 -86 37 -88 64 -2 20 0
21 8 7 5 -9 27 -27 49 -39z m-3460 26 c0 -8 -2 -15 -4 -15 -2 0 -6 7 -10 15
-3 8 -1 15 4 15 6 0 10 -7 10 -15z m3390 -4 c0 -3 -4 -12 -9 -20 -8 -12 -12
-13 -25 -2 -12 10 -13 17 -5 27 10 12 39 9 39 -5z m-380 -7 c0 -2 -13 -4 -30
-4 -16 0 -30 4 -30 8 0 5 14 7 30 4 17 -2 30 -6 30 -8z m557 -26 c-3 -7 -5 -2
-5 12 0 14 2 19 5 13 2 -7 2 -19 0 -25z m-423 -1 c41 -11 46 -15 33 -25 -10
-9 -17 -10 -22 -2 -3 5 -19 10 -35 10 -34 0 -60 9 -60 21 0 12 26 11 84 -4z
m162 -43 c10 -52 54 -73 54 -26 0 12 3 13 8 5 4 -7 6 -63 4 -125 -1 -62 -3
-125 -3 -140 0 -16 -5 -28 -12 -28 -7 0 -5 -6 5 -16 15 -15 14 -18 -3 -35 -25
-25 -24 -38 4 -48 21 -8 21 -9 3 -17 -13 -5 -23 -2 -31 9 -7 10 -17 17 -24 17
-6 0 -11 7 -11 15 0 8 -5 15 -12 15 -6 0 -4 8 6 19 14 15 14 20 4 25 -7 3 -3
4 9 2 19 -3 20 -1 10 15 -7 11 -14 14 -18 8 -4 -7 -9 -8 -13 -1 -5 8 22 53 44
72 9 8 4 51 -12 101 -9 28 -12 52 -7 62 7 11 1 18 -21 27 -26 11 -30 18 -30
50 0 20 3 40 7 43 11 12 32 -14 39 -49z m-3736 14 c0 -16 -3 -19 -11 -11 -6 6
-8 16 -5 22 11 17 16 13 16 -11z m700 14 c0 -5 -9 -17 -20 -27 -11 -10 -20
-13 -20 -7 0 19 4 27 13 25 4 -2 7 2 7 7 0 6 5 10 10 10 6 0 10 -4 10 -8z
m3282 -67 c0 -37 -3 -69 -6 -72 -3 -4 -6 29 -6 72 0 43 3 76 6 72 4 -3 6 -36
6 -72z m-3717 38 c-9 -8 -18 -13 -21 -10 -8 8 19 36 29 30 4 -2 0 -11 -8 -20z
m3395 6 c0 -24 -23 -21 -28 4 -2 10 3 17 12 17 10 0 16 -9 16 -21z m-3333 -50
c-6 -10 -17 -19 -24 -19 -17 0 -17 -37 0 -44 8 -3 6 -9 -7 -20 -24 -19 -37
-20 -59 -3 -16 11 -16 16 8 65 14 28 32 52 40 52 8 0 15 5 15 12 0 6 8 4 19
-6 16 -15 18 -21 8 -37z m-319 19 c-3 -7 -11 -13 -19 -13 -9 0 -14 -11 -13
-30 0 -17 -1 -22 -3 -12 -3 9 -9 15 -14 12 -17 -11 -9 11 11 33 23 24 44 29
38 10z m117 2 c-3 -5 -12 -10 -18 -10 -7 0 -6 4 3 10 19 12 23 12 15 0z m225
-35 c-7 -9 -15 -13 -17 -11 -6 6 20 36 26 30 2 -2 -2 -10 -9 -19z m-212 -32
c-3 -44 -6 -49 -38 -65 -44 -21 -60 -23 -34 -3 17 14 17 15 1 9 -17 -6 -18 -5
-6 14 7 11 19 18 27 15 12 -5 12 -3 1 15 -11 18 -10 24 5 41 33 36 47 27 44
-26z m3732 1 c0 -13 -4 -24 -10 -24 -5 0 -10 14 -10 31 0 17 4 28 10 24 6 -3
10 -17 10 -31z m-3336 9 c8 3 18 2 22 -4 3 -6 12 -8 20 -5 9 3 11 0 7 -11 -5
-13 -3 -15 13 -8 10 4 36 11 57 15 31 6 37 5 37 -10 0 -15 -29 -48 -57 -64 -9
-5 -11 -2 -7 8 5 12 -1 16 -25 16 -21 0 -31 5 -31 16 0 17 -22 13 -74 -13 -15
-8 -25 -10 -22 -4 4 6 5 11 2 11 -2 0 -13 3 -23 6 -15 5 -16 4 -3 -5 11 -8 7
-9 -20 -5 -19 4 -39 10 -44 15 -11 10 56 41 91 43 13 0 23 6 23 11 0 6 4 4 9
-4 5 -8 16 -11 25 -8z m2001 -13 c231 -4 298 -8 210 -11 -71 -2 -152 -4 -180
-5 -27 -1 -88 -3 -135 -4 l-85 -2 80 -27 c290 -99 444 -209 522 -373 15 -31
34 -59 43 -61 20 -5 70 -105 63 -124 -7 -19 -40 -16 -52 4 -8 15 -10 13 -16
-12 -23 -112 -58 -184 -129 -263 -20 -21 -33 -42 -31 -46 3 -3 2 -4 -1 -1 -10
6 -75 -46 -69 -55 3 -5 0 -12 -6 -16 -8 -4 -9 -3 -5 4 11 18 1 14 -46 -17 -52
-34 -189 -96 -259 -117 -326 -97 -759 -78 -1048 47 -42 18 -54 20 -64 9 -9
-10 -9 -11 1 -6 9 6 12 -13 12 -79 0 -55 -4 -84 -10 -80 -5 3 -10 16 -10 28
-1 20 -2 20 -11 4 -8 -13 -6 -21 5 -33 9 -8 16 -25 16 -36 0 -12 -3 -18 -7
-14 -5 4 -8 13 -8 18 0 6 -7 13 -15 15 -13 4 -13 3 0 -6 8 -6 11 -11 6 -11 -5
0 -3 -8 5 -17 18 -22 24 -69 10 -78 -6 -3 -11 -1 -11 4 0 16 -19 13 -36 -4 -9
-8 -21 -15 -27 -15 -8 0 -8 3 -2 8 6 4 11 17 12 30 3 20 1 21 -17 10 -11 -7
-20 -16 -20 -20 0 -5 -4 -8 -8 -8 -5 0 -9 18 -10 40 -2 37 0 40 23 40 14 0 28
-7 31 -15 4 -8 10 -15 14 -15 12 0 19 36 9 51 -4 7 -4 16 0 19 5 3 11 16 15
30 5 17 4 20 -2 12 -7 -11 -10 -11 -15 2 -4 9 -12 13 -20 10 -15 -5 -43 66
-38 99 1 9 -3 17 -9 17 -7 0 -10 17 -9 47 2 30 -1 48 -9 51 -18 6 -16 -105 3
-158 17 -47 18 -57 8 -46 -4 3 -13 -6 -20 -21 l-13 -28 5 28 c3 15 1 27 -5 27
-5 0 -10 -5 -10 -11 0 -5 -5 -7 -10 -4 -6 4 -4 12 5 21 8 9 15 20 15 25 0 6
-7 3 -16 -5 -8 -9 -21 -13 -27 -9 -6 4 -2 9 11 14 12 5 22 15 22 23 0 8 3 23
6 33 3 10 -3 6 -12 -9 -10 -16 -26 -28 -34 -28 -22 0 -84 121 -67 132 9 6 8 8
-4 8 -26 0 -54 85 -55 170 -1 41 -10 102 -19 134 -11 38 -16 81 -13 122 2 35
1 64 -2 64 -3 -1 -15 -22 -28 -48 -23 -46 -72 -95 -72 -71 0 6 -7 8 -16 5 -15
-6 -15 -4 -3 11 13 15 12 16 -9 11 l-22 -6 22 39 c12 22 30 48 40 59 10 10 18
24 18 30 0 6 5 8 10 5 6 -4 8 -16 5 -28 -5 -19 -5 -20 5 -5 8 13 8 23 0 38 -7
13 -7 20 0 20 5 0 10 -5 10 -11 0 -8 4 -8 14 0 11 10 16 7 23 -15 9 -27 10
-25 46 45 21 41 63 100 95 133 31 33 56 64 55 69 -2 4 3 6 11 3 7 -3 18 2 25
10 10 12 9 14 -6 10 -20 -6 -67 32 -58 47 9 13 99 11 112 -2 9 -9 34 -2 97 25
71 31 227 82 301 99 11 3 -42 5 -117 6 -75 0 -139 -3 -142 -7 -3 -5 -61 -6
-130 -4 -69 2 -126 1 -126 -3 0 -3 5 -16 12 -28 10 -20 10 -21 -6 -7 -10 7
-34 15 -54 16 -21 0 -54 4 -74 9 -26 5 -38 4 -38 -4 0 -6 9 -11 19 -11 11 0
22 -3 24 -7 3 -5 -6 -8 -19 -8 -13 0 -24 3 -24 7 0 4 -6 5 -13 2 -8 -3 -20 2
-27 11 -7 8 -20 15 -28 15 -12 0 -9 5 8 18 23 16 58 17 430 15 223 -1 452 2
510 7 58 4 161 6 230 3 69 -3 278 -9 465 -13z m594 -5 c20 -21 -114 -24 -159
-4 -3 1 13 5 35 9 40 7 115 4 124 -5z m224 4 c59 -1 107 -5 107 -10 0 -11
-238 -16 -272 -6 -43 13 -33 27 15 22 23 -2 90 -5 150 -6z m297 -8 c3 -1 -6
-6 -18 -12 -24 -9 -42 -5 -42 10 0 6 45 7 60 2z m-2780 -22 c0 -6 -4 -7 -10
-4 -5 3 -10 11 -10 16 0 6 5 7 10 4 6 -3 10 -11 10 -16z m3127 -36 c-3 -10 -5
-2 -5 17 0 19 2 27 5 18 2 -10 2 -26 0 -35z m-4030 5 c-3 -7 -5 -2 -5 12 0 14
2 19 5 13 2 -7 2 -19 0 -25z m4010 -25 c-3 -10 -5 -4 -5 12 0 17 2 24 5 18 2
-7 2 -21 0 -30z m-123 11 c10 -4 16 -18 16 -37 0 -42 -15 -23 -19 26 -1 5 -5
5 -11 2 -5 -3 -10 -1 -10 4 0 13 3 13 24 5z m-3737 -19 c0 -8 -6 -15 -13 -15
-18 0 -27 17 -12 23 21 9 25 8 25 -8z m-8 -31 c14 -12 -19 -1 -35 12 -18 14
-18 14 6 3 14 -6 27 -13 29 -15z m3921 12 c0 -3 -4 -8 -10 -11 -5 -3 -10 -1
-10 4 0 6 5 11 10 11 6 0 10 -2 10 -4z m-4054 -32 c-9 -9 -20 -14 -23 -10 -4
3 2 13 13 20 25 18 31 12 10 -10z m55 -1 c-12 -20 -14 -14 -5 12 4 9 9 14 11
11 3 -2 0 -13 -6 -23z m359 16 c0 -4 -7 -12 -15 -19 -10 -9 -15 -9 -15 -1 0
15 -37 14 -43 -1 -4 -8 -6 -7 -6 4 -1 9 4 18 10 20 18 6 69 4 69 -3z m200 1
c0 -5 -12 -21 -27 -35 -25 -23 -35 -25 -100 -24 -40 1 -73 5 -73 8 0 4 7 17
16 29 14 20 21 22 95 18 46 -3 79 -1 79 5 0 5 2 9 5 9 3 0 5 -4 5 -10z m-520
-15 c-7 -9 -15 -13 -19 -10 -3 3 1 10 9 15 21 14 24 12 10 -5z m657 2 c-59
-40 -147 -63 -147 -38 0 25 50 48 103 47 30 -1 50 -5 44 -9z m393 -19 c11 -18
16 -34 10 -36 -15 -6 -74 27 -88 48 -11 19 -10 20 23 20 29 0 39 -6 55 -32z
m2894 -5 c9 -18 14 -33 12 -33 -6 0 -36 55 -36 66 0 11 5 3 24 -33z m-3180 19
c9 -15 -24 -51 -47 -50 -42 0 -97 10 -97 17 0 10 80 38 112 40 15 0 29 -3 32
-7z m2356 -6 c-12 -12 -250 -24 -257 -13 -12 19 16 24 136 23 83 -1 127 -4
121 -10z m385 6 c16 -11 55 -69 55 -81 0 -18 -13 -12 -50 23 -20 18 -46 37
-58 40 -12 4 -20 12 -17 17 7 11 56 12 70 1z m335 -24 c0 -5 -7 -3 -15 6 -8 8
-15 18 -15 22 0 3 7 1 15 -6 8 -7 15 -17 15 -22z m74 -3 c5 -22 4 -26 -4 -15
-5 8 -10 24 -10 34 0 26 6 18 14 -19z m-674 15 c0 -5 -4 -10 -10 -10 -5 0 -10
5 -10 10 0 6 5 10 10 10 6 0 10 -4 10 -10z m70 0 c0 -5 -2 -10 -4 -10 -3 0 -8
5 -11 10 -3 6 -1 10 4 10 6 0 11 -4 11 -10z m490 -34 c-5 -15 -5 -27 3 -35 20
-20 0 -22 -24 -3 -22 18 -22 20 -6 36 9 10 17 22 17 27 0 6 4 8 10 4 6 -3 6
-15 0 -29z m-3560 -16 c0 -13 -35 -6 -47 10 -8 11 -8 17 0 22 11 7 47 -18 47
-32z m2950 36 c0 -2 -9 -6 -20 -9 -11 -3 -18 -1 -14 4 5 9 34 13 34 5z m-3273
-83 c-2 -16 -4 -5 -4 22 0 28 2 40 4 28 2 -13 2 -35 0 -50z m-30 0 c-3 -10 -5
-2 -5 17 0 19 2 27 5 18 2 -10 2 -26 0 -35z m3983 37 c0 -5 -4 -10 -10 -10 -5
0 -10 5 -10 10 0 6 5 10 10 10 6 0 10 -4 10 -10z m-3555 -50 c-3 -4 18 -10 46
-12 38 -2 54 1 66 15 17 18 78 24 88 7 3 -5 -5 -21 -18 -34 -22 -22 -27 -23
-43 -11 -25 19 -40 19 -24 0 9 -10 9 -15 1 -15 -6 0 -11 5 -11 10 0 17 -24 11
-64 -16 -28 -20 -35 -28 -25 -35 7 -4 10 -11 6 -15 -3 -4 -13 -1 -22 6 -8 7
-15 8 -15 2 0 -14 22 -21 52 -15 36 7 44 -13 14 -32 -24 -16 -26 -16 -53 9
-23 21 -29 23 -36 11 -10 -18 -38 -19 -56 -2 -12 10 -13 9 -7 -7 6 -17 2 -18
-28 -13 -20 3 -41 0 -51 -7 -18 -13 -17 -8 -27 -298 -3 -75 -6 -90 -26 -108
-12 -12 -26 -19 -31 -16 -5 3 -12 -1 -15 -9 -4 -12 0 -14 22 -9 15 4 29 11 30
16 6 15 20 8 25 -12 3 -11 0 -20 -6 -20 -9 0 -9 -2 -1 -8 6 -4 11 -26 11 -49
0 -24 6 -49 12 -57 10 -12 9 -14 -6 -11 -10 1 -17 8 -16 13 2 6 -4 9 -11 6
-23 -9 -74 36 -100 88 -23 47 -25 82 -3 95 6 4 8 -2 5 -14 -4 -16 -1 -19 19
-17 32 3 43 14 15 14 -25 0 -26 3 -11 32 10 18 8 19 -12 13 -17 -6 -21 -4 -16
8 3 8 0 20 -6 26 -15 15 -6 21 50 31 46 7 29 16 -25 11 -12 -1 -21 2 -21 6 1
4 -1 15 -4 23 -12 28 -29 105 -34 151 -4 39 -1 50 22 77 26 32 58 41 70 22 7
-11 27 -9 68 8 16 7 37 12 47 12 22 0 39 22 22 28 -7 2 -12 8 -12 14 0 6 7 7
16 4 16 -6 84 36 84 52 0 4 -9 13 -20 19 -15 10 -22 10 -34 -2 -12 -13 -15
-13 -20 1 -4 10 -13 14 -22 10 -8 -3 -12 -2 -9 4 3 5 31 9 61 9 30 -1 57 1 60
4 9 8 35 -4 29 -13z m3256 -1 c1 -5 3 -13 4 -19 1 -5 3 -17 4 -25 0 -8 8 -15
16 -15 9 0 20 -10 25 -22 5 -13 9 -17 9 -10 1 6 8 12 17 12 11 0 14 -5 10 -16
-5 -14 -4 -15 9 -4 21 17 19 5 -6 -40 -25 -44 -89 -88 -89 -60 0 6 7 10 15 10
8 0 15 6 15 14 0 8 9 17 19 21 23 7 36 35 17 35 -8 0 -16 -7 -20 -15 -8 -22
-26 -18 -26 5 0 11 5 20 10 20 6 0 10 8 10 18 0 14 -2 14 -9 3 -8 -13 -15 -12
-48 4 -21 11 -45 25 -53 30 -17 12 -70 30 -117 40 -60 12 -34 24 60 27 100 3
126 0 128 -13z m-2941 6 c0 -3 -15 -12 -32 -20 -83 -39 -82 -35 -22 -93 49
-48 53 -55 42 -73 -35 -56 -59 -97 -78 -132 -19 -35 -20 -38 -3 -43 64 -21 73
-27 62 -40 -13 -16 -9 -17 24 -5 18 7 30 6 44 -4 11 -8 23 -11 27 -8 11 12 6
-52 -9 -101 -25 -84 -83 -167 -136 -196 -13 -8 -15 -5 -11 15 2 14 1 54 -3 91
l-7 65 -21 -25 c-21 -24 -23 -24 -43 -7 -12 9 -24 26 -28 37 -3 11 -22 27 -41
34 -19 8 -35 18 -35 24 0 6 -16 27 -37 48 -31 32 -36 44 -36 84 0 35 -3 43
-11 33 -12 -16 -41 -25 -32 -10 3 5 2 20 -3 33 l-10 23 -1 -25 -1 -25 -19 24
c-11 13 -20 29 -20 37 0 8 -4 14 -9 14 -8 0 -34 60 -28 66 1 1 19 -3 39 -9 25
-8 39 -19 43 -34 3 -13 12 -23 19 -23 8 0 22 -7 30 -16 9 -8 20 -13 25 -10 5
4 11 0 14 -6 5 -16 89 61 84 77 -2 5 -14 15 -27 22 l-23 11 34 21 c19 12 40
19 47 16 7 -3 10 0 7 5 -3 6 -2 10 4 10 5 0 15 -8 20 -17 10 -17 12 -16 31 7
11 14 20 34 19 45 -2 37 1 46 13 39 8 -5 9 -2 4 11 -4 11 -2 22 6 27 14 8 88
11 88 3z m2688 -14 c4 -11 -21 -13 -140 -9 -82 3 -152 10 -163 16 -16 9 15 11
139 9 124 -1 160 -5 164 -16z m592 -17 c0 -8 -4 -14 -10 -14 -5 0 -10 9 -10
21 0 11 5 17 10 14 6 -3 10 -13 10 -21z m-170 -4 c0 -5 -2 -10 -4 -10 -3 0 -8
5 -11 10 -3 6 -1 10 4 10 6 0 11 -4 11 -10z m-3823 -47 c-3 -10 -5 -2 -5 17 0
19 2 27 5 18 2 -10 2 -26 0 -35z m4033 36 c0 -5 -4 -7 -10 -4 -6 3 -10 -4 -11
-17 0 -13 -3 -17 -6 -10 -3 7 -2 19 1 27 6 17 26 20 26 4z m-4063 -31 c-3 -7
-5 -2 -5 12 0 14 2 19 5 13 2 -7 2 -19 0 -25z m963 -7 c0 -6 -4 -12 -8 -15 -5
-3 -9 1 -9 9 0 8 4 15 9 15 4 0 8 -4 8 -9z m-456 -12 c-4 -8 1 -9 17 -4 23 7
23 7 4 -8 -15 -11 -23 -12 -33 -5 -11 9 -11 13 0 19 18 12 20 11 12 -2z m3317
-37 c-6 -11 -7 -22 -3 -26 3 -4 -1 -4 -11 0 -22 8 -22 41 1 46 23 6 25 3 13
-20z m-3794 -14 c-3 -7 -5 -2 -5 12 0 14 2 19 5 13 2 -7 2 -19 0 -25z m3405
21 c-13 -5 -28 -7 -33 -3 -5 3 -9 0 -9 -6 0 -7 -8 -9 -22 -5 -49 15 -40 25 23
24 50 0 59 -2 41 -10z m-3427 -90 c-2 -24 0 -48 4 -54 4 -5 4 -30 0 -55 l-6
-45 -3 50 c-6 132 -7 198 0 174 4 -14 6 -45 5 -70z m4009 47 c-3 -14 -11 -26
-16 -26 -5 0 -7 6 -4 13 3 6 9 20 12 30 10 27 16 13 8 -17z m43 -28 c-3 -7 -5
-2 -5 12 0 14 2 19 5 13 2 -7 2 -19 0 -25z m-3167 -20 c-7 -12 -24 -35 -37
-50 -22 -23 -31 -26 -77 -21 -69 6 -76 9 -76 33 0 12 5 18 10 15 6 -3 17 1 26
9 11 11 35 16 80 16 49 0 66 4 71 15 3 9 8 14 10 11 3 -2 -1 -15 -7 -28z
m2920 25 c-1 -21 -13 -53 -21 -53 -16 0 -22 30 -9 45 13 16 30 20 30 8z m197
-35 c-3 -8 -6 -5 -6 6 -1 11 2 17 5 13 3 -3 4 -12 1 -19z m63 2 c0 -5 -4 -10
-10 -10 -5 0 -10 5 -10 10 0 6 5 10 10 10 6 0 10 -4 10 -10z m-4043 -22 c-3
-8 -6 -5 -6 6 -1 11 2 17 5 13 3 -3 4 -12 1 -19z m4012 -15 l-1 -28 -8 25 c-6
19 -8 21 -9 6 -1 -11 -4 -17 -7 -13 -9 9 3 37 16 37 5 0 10 -12 9 -27z m-399
-1 c0 -13 -100 -84 -112 -80 -7 3 13 23 43 46 54 42 69 49 69 34z m143 -12 c3
-11 1 -18 -4 -14 -5 3 -9 12 -9 20 0 20 7 17 13 -6z m-539 -50 c1 -48 -8 -51
-29 -10 -12 23 -13 35 -4 51 16 30 32 10 33 -41z m575 2 c0 -9 3 -71 5 -137 5
-103 4 -117 -8 -102 -13 16 -14 16 -21 -5 -4 -13 -8 -26 -9 -30 0 -3 -4 -10
-8 -14 -13 -12 -9 -24 7 -24 9 0 12 -6 9 -15 -4 -8 -2 -15 4 -15 13 0 22 -81
10 -96 -4 -6 -11 -38 -14 -70 -2 -33 -8 -70 -11 -84 -12 -48 -12 -54 2 -88 9
-21 12 -40 6 -50 -9 -17 -7 -86 5 -177 11 -88 4 -121 -22 -111 -20 8 -53 -14
-47 -31 3 -7 1 -13 -5 -13 -5 0 -13 8 -16 17 -6 13 -12 8 -29 -26 -12 -24 -42
-67 -67 -95 -25 -28 -37 -45 -27 -37 15 12 17 12 12 -1 -3 -8 -20 -15 -38 -15
-18 -1 -58 -10 -90 -21 -31 -11 -60 -16 -62 -11 -3 4 -24 6 -47 5 -23 -2 -56
0 -72 5 -27 7 -29 7 -14 -5 10 -7 15 -16 11 -19 -3 -4 -2 -7 4 -7 6 0 9 -9 6
-20 -3 -12 0 -20 7 -20 9 0 9 -4 2 -12 -10 -13 -7 -122 4 -140 4 -6 0 -14 -7
-19 -10 -6 -11 -9 -1 -9 6 0 12 -6 12 -14 0 -8 -6 -17 -12 -19 -7 -3 -4 -6 7
-7 19 -1 18 -2 -2 -10 -13 -5 -23 -17 -22 -27 0 -11 3 -13 6 -5 2 6 11 12 19
12 7 0 17 12 20 28 4 15 15 53 25 84 11 32 19 66 19 77 0 11 5 23 10 26 10 6
12 0 14 -44 1 -30 19 -37 39 -16 9 8 18 11 22 6 3 -5 1 -12 -5 -16 -5 -3 -10
-30 -10 -59 0 -28 -5 -57 -12 -64 -9 -9 -8 -16 5 -29 9 -10 17 -12 17 -6 0 20
50 -11 51 -32 1 -11 3 -25 3 -31 1 -6 9 -19 19 -29 16 -15 22 -16 43 -5 21 12
24 21 24 64 0 28 4 46 8 39 11 -17 35 70 30 106 -3 19 0 27 7 25 14 -6 8 -223
-6 -238 -5 -6 -9 -33 -9 -60 0 -38 3 -47 10 -36 8 11 10 0 8 -37 -1 -30 -6
-53 -12 -53 -6 -1 0 -11 14 -23 14 -12 32 -31 40 -42 14 -19 14 -19 -5 -4 -11
9 -29 19 -39 23 -16 5 -17 4 -6 -9 8 -9 10 -27 6 -47 -17 -81 -18 -98 -7 -98
7 0 9 -10 7 -25 -4 -22 -2 -25 15 -20 27 9 24 -7 -6 -33 -21 -19 -25 -30 -25
-81 0 -33 -4 -71 -10 -85 -6 -18 -6 -26 1 -26 6 0 7 -5 3 -12 -5 -7 -3 -8 6
-3 10 6 12 3 7 -14 -4 -18 -3 -20 9 -10 9 7 14 8 14 1 0 -6 24 -10 58 -10 79
0 84 -1 77 -12 -3 -5 -7 -24 -9 -42 -2 -18 -9 -66 -15 -107 -11 -75 -21 -103
-21 -63 0 11 -8 26 -17 31 -16 9 -16 12 -3 21 13 8 13 10 -1 10 -9 0 -20 -8
-23 -17 -6 -14 -8 -14 -22 5 -8 12 -12 28 -8 35 5 9 4 9 -6 0 -12 -11 -11 -19
4 -49 9 -20 23 -65 30 -100 l13 -64 -31 -23 c-37 -29 -82 -72 -116 -112 -26
-31 -5 -19 34 19 16 16 21 17 24 6 3 -8 0 -16 -6 -18 -7 -2 -12 -23 -12 -48 0
-36 5 -49 29 -70 16 -14 31 -39 35 -55 4 -21 11 -29 27 -29 20 0 21 -4 15 -52
-14 -119 -27 -320 -22 -325 3 -4 1 -13 -6 -20 -7 -9 -11 -46 -9 -100 1 -57 -1
-83 -8 -78 -6 3 -11 13 -11 21 0 8 -5 14 -11 14 -5 0 -8 4 -4 9 3 5 1 12 -5
16 -5 3 -10 -2 -10 -12 0 -10 -9 -36 -20 -58 l-20 -39 47 -48 c26 -26 43 -51
39 -55 -5 -5 -11 -2 -13 5 -6 15 -63 46 -71 38 -3 -3 -1 -6 4 -6 6 0 9 -27 7
-60 -2 -52 0 -62 23 -85 14 -14 33 -25 43 -25 16 0 19 -13 24 -116 4 -64 4
-121 0 -127 -3 -6 -49 -8 -118 -5 -62 3 -132 2 -156 -3 -24 -4 -67 -12 -95
-18 -70 -13 -420 -33 -444 -26 -13 4 -20 15 -20 31 0 14 -4 23 -8 20 -18 -11
5 92 27 123 24 33 74 61 109 61 13 0 29 22 55 78 35 75 36 77 15 82 -20 5 -20
6 -3 23 22 23 16 28 -37 34 -36 4 -44 9 -45 27 -2 19 -1 20 11 3 7 -9 19 -17
26 -17 7 0 1 11 -13 24 -14 13 -27 34 -30 47 -4 21 -4 20 -6 -5 -1 -28 -1 -29
-21 -11 -11 10 -20 24 -20 31 0 7 -28 26 -62 43 -63 32 -151 43 -209 27 -23
-7 -23 -6 -5 8 46 37 146 33 231 -9 31 -15 59 -24 62 -21 4 3 -1 6 -10 6 -10
0 -17 6 -17 14 0 7 -3 28 -6 45 -5 26 -3 31 12 32 17 1 17 2 2 6 -10 2 -18 9
-18 14 0 5 8 10 18 10 9 1 -4 6 -30 13 -51 12 -66 28 -33 35 26 4 37 22 24 38
-7 8 -7 18 1 32 12 23 3 48 -24 71 -9 7 -16 20 -16 29 0 14 2 14 10 1 5 -8 10
-12 10 -8 0 3 3 13 6 22 4 12 0 16 -15 16 -19 0 -21 5 -20 68 1 100 13 229 22
238 5 5 12 2 17 -6 6 -8 10 -10 10 -5 0 6 5 3 10 -5 8 -13 10 -12 10 3 0 9 3
16 8 16 22 -4 24 3 3 18 -23 16 -23 17 -5 31 13 10 15 16 7 19 -7 3 -13 13
-13 23 0 10 6 20 13 23 9 3 9 7 -2 20 -16 21 -8 47 16 47 16 0 16 1 0 13 -26
19 -6 44 25 30 13 -7 17 -12 10 -12 -7 -1 -11 -5 -8 -9 3 -4 1 -25 -4 -46 -4
-20 -5 -50 0 -66 6 -20 4 -32 -8 -44 -9 -9 -12 -16 -7 -16 6 0 11 -13 12 -28
1 -21 -5 -32 -25 -45 -20 -12 -23 -17 -9 -17 9 0 17 -5 17 -11 0 -5 -4 -8 -9
-5 -13 8 -7 -65 7 -91 7 -12 11 -28 10 -35 -2 -7 2 -12 9 -11 7 2 10 -3 7 -11
-3 -8 4 -24 16 -36 19 -19 29 -21 72 -16 28 4 73 16 100 26 29 11 62 17 78 13
25 -5 27 -3 23 21 -5 22 -2 26 18 27 13 0 -11 12 -54 26 -68 21 -80 29 -89 54
-5 16 -14 26 -19 23 -5 -3 -6 1 -3 9 3 8 1 18 -5 22 -6 3 -11 23 -11 43 0 20
-7 59 -15 86 -8 26 -12 52 -9 57 3 5 2 14 -2 21 -5 8 -10 6 -15 -8 -6 -16 -8
-16 -8 -2 -1 9 6 21 15 26 11 6 15 17 11 31 -3 13 -1 19 5 14 8 -4 9 4 5 24
-6 32 22 89 38 76 5 -5 4 -1 -3 8 -6 9 -11 18 -9 20 1 2 -6 -5 -15 -16 -22
-25 -22 -18 -2 30 18 44 15 64 -8 41 -9 -9 -22 -16 -28 -16 -6 0 -9 -4 -6 -9
3 -4 0 -16 -7 -25 -12 -16 -14 -16 -32 4 -20 22 -20 22 4 41 13 10 21 19 18
19 -2 0 5 33 18 73 21 67 24 72 49 69 15 -2 26 2 26 10 0 9 3 9 12 0 18 -18
24 -15 26 18 2 22 -9 47 -40 90 -23 33 -49 62 -58 65 -9 3 -23 17 -30 30 -7
14 -17 25 -22 25 -5 0 -7 4 -4 9 3 5 -16 8 -42 8 -87 -1 -140 23 -177 79 -14
21 -19 24 -27 13 -7 -10 -8 -7 -4 11 l5 25 -19 -22 c-10 -13 -23 -23 -28 -23
-6 0 -12 -12 -14 -27 -2 -14 -9 -28 -16 -31 -11 -3 -13 8 -10 52 l4 56 -36 10
c-20 5 -69 7 -109 4 -72 -6 -73 -6 -62 15 8 14 21 21 40 21 35 0 41 13 41 96
0 36 5 85 11 110 10 38 15 44 37 44 14 0 34 -8 45 -17 14 -12 19 -14 16 -4 -3
7 -23 23 -44 35 -22 11 -42 22 -45 24 -2 2 2 7 10 12 8 6 10 10 4 10 -7 0 -14
8 -17 18 -2 9 -8 26 -12 37 -6 17 -5 17 5 5 9 -12 10 -7 6 25 -4 28 -3 34 4
20 5 -11 9 -14 9 -7 1 6 8 12 16 12 10 0 15 10 15 30 0 17 5 30 10 30 6 0 10
9 10 20 0 11 5 20 10 20 6 0 10 7 10 16 0 12 7 15 27 11 27 -5 73 10 73 24 0
5 19 14 42 21 32 9 42 10 46 0 4 -14 22 -17 22 -4 0 5 -11 15 -25 22 -20 10
-32 11 -70 0 -25 -7 -45 -17 -45 -21 0 -15 -22 -10 -36 9 -18 23 -17 70 1 89
12 12 14 26 9 60 -4 25 -3 48 2 52 19 14 37 55 25 59 -6 2 -11 15 -11 29 0 19
4 24 16 19 8 -3 12 -2 9 4 -3 6 1 10 10 10 9 0 23 7 31 15 19 19 51 19 69 2
16 -16 37 -90 33 -114 -2 -9 2 -18 8 -20 11 -4 11 24 -2 125 -5 37 -10 45 -35
54 -19 7 -28 15 -25 24 3 8 0 14 -7 14 -7 0 -4 5 6 11 10 6 17 22 17 39 0 29
-13 40 -24 21 -4 -5 -317 -7 -747 -3 -633 4 -741 3 -734 -9 7 -11 6 -12 -6 -2
-8 6 -27 13 -44 16 -16 2 266 5 628 7 361 1 662 4 667 5 6 1 60 3 122 4 l111
1 -24 22 c-17 14 -19 19 -6 15 11 -4 17 -1 17 7 0 9 -11 13 -29 12 -34 -1 -54
-16 -25 -17 11 0 13 -3 6 -6 -6 -2 -10 -9 -6 -14 3 -5 -5 -9 -17 -9 -19 0 -20
2 -8 17 12 15 12 16 -3 10 -10 -3 -18 -3 -18 2 0 5 9 11 20 14 14 3 18 10 14
21 -6 15 -7 15 -19 0 -7 -10 -29 -19 -49 -20 -20 -2 -42 -6 -48 -10 -6 -4 -8
-3 -5 3 10 16 -19 23 -50 13 -51 -17 -68 -8 -71 39 -2 32 0 42 10 39 8 -3 12
-16 10 -31 -2 -15 1 -27 6 -27 6 0 17 -3 26 -6 11 -4 17 4 24 28 12 47 36 47
55 1 l16 -38 0 33 c1 32 7 42 44 71 21 17 22 8 1 -13 -14 -15 -14 -16 0 -16 9
0 16 4 16 9 0 10 59 35 74 32 5 -1 12 2 15 8 4 5 20 11 36 13 26 3 31 -1 43
-36 7 -22 15 -66 19 -99 4 -35 11 -61 20 -64 7 -3 13 -17 13 -32 1 -18 8 -6
24 39 13 36 27 73 31 83 4 9 3 17 -1 17 -20 -1 -33 -17 -40 -55 -8 -38 -8 -36
-21 48 -7 48 -18 97 -23 108 -20 36 -54 41 -115 17 -42 -16 -59 -18 -67 -10
-9 9 -5 12 17 13 30 0 30 0 6 10 -14 5 -30 8 -37 5 -16 -6 -64 31 -64 50 0 8
-5 14 -12 14 -6 0 -9 2 -6 5 10 10 39 -8 34 -21 -8 -21 12 -27 30 -10 8 9 25
16 37 17 12 0 16 3 10 6 -7 2 -13 12 -13 22 0 9 6 23 13 30 10 11 8 11 -10 2
-27 -14 -44 -14 -20 0 30 17 89 19 105 3 13 -13 11 -14 -14 -9 -16 3 -23 2
-16 -1 6 -3 12 -14 12 -25 0 -14 7 -19 29 -19 23 0 31 6 40 30 11 33 41 41 41
11 0 -24 29 -36 36 -16 7 17 34 21 34 5 0 -5 7 -10 15 -10 8 0 15 -4 15 -9 0
-5 7 -11 14 -14 10 -4 13 -1 9 9 -3 7 -9 14 -14 14 -5 0 -9 7 -9 15 0 9 -6 12
-15 9 -10 -4 -15 0 -15 14 0 43 19 29 64 -48 26 -44 51 -82 55 -84 4 -3 18 -2
30 1 17 4 19 8 10 14 -11 6 -9 14 9 38 12 17 23 38 25 48 7 40 28 64 49 57 18
-5 20 -3 15 16 -6 23 22 60 46 60 8 0 8 3 -2 9 -16 11 -7 42 11 39 7 -2 20 12
29 30 11 22 19 29 23 20 3 -7 5 -4 2 8 -3 19 1 21 40 17 25 -2 44 1 44 7 0 5
-8 10 -17 10 -9 0 -13 3 -10 7 10 10 59 11 84 2 25 -9 78 12 65 26 -4 5 -2 5
4 2 7 -4 22 2 35 12 13 10 39 26 57 35 18 9 58 41 90 71 102 96 120 106 121
67z m198 -39 c-3 -10 -5 -4 -5 12 0 17 2 24 5 18 2 -7 2 -21 0 -30z m-3975
-60 c-3 -16 -7 -22 -10 -15 -4 13 4 42 11 42 2 0 2 -12 -1 -27z m-35 -130 c-2
-16 -4 -3 -4 27 0 30 2 43 4 28 2 -16 2 -40 0 -55z m43 27 c0 -5 -4 -10 -10
-10 -5 0 -10 5 -10 10 0 6 5 10 10 10 6 0 10 -4 10 -10z m3940 6 c0 -3 -4 -8
-10 -11 -5 -3 -10 -1 -10 4 0 6 5 11 10 11 6 0 10 -2 10 -4z m-3470 -171 c22
-14 40 -23 40 -20 0 3 11 -2 25 -11 15 -10 25 -12 25 -5 0 6 -4 11 -9 11 -5 0
-7 9 -4 21 5 19 7 18 20 -11 7 -18 12 -34 11 -35 -15 -12 -71 -35 -101 -40
-32 -6 -42 -4 -58 14 -39 42 -44 101 -8 101 11 0 37 -11 59 -25z m2324 -13 c3
-5 -1 -9 -9 -9 -8 0 -15 4 -15 9 0 4 4 8 9 8 6 0 12 -4 15 -8z m1143 -64 c-2
-13 -4 -3 -4 22 0 25 2 35 4 23 2 -13 2 -33 0 -45z m-3910 -25 c-3 -10 -5 -4
-5 12 0 17 2 24 5 18 2 -7 2 -21 0 -30z m3904 -13 c6 0 7 -5 3 -11 -9 -15 -24
9 -22 36 1 17 1 17 5 -2 2 -13 9 -23 14 -23z m6 -46 c-3 -3 -12 -4 -19 -1 -8
3 -5 6 6 6 11 1 17 -2 13 -5z m-30 -86 c-2 -13 -4 -3 -4 22 0 25 2 35 4 23 2
-13 2 -33 0 -45z m33 52 c0 -5 -2 -10 -4 -10 -3 0 -8 5 -11 10 -3 6 -1 10 4
10 6 0 11 -4 11 -10z m-1383 -6 c-3 -3 -12 -4 -19 -1 -8 3 -5 6 6 6 11 1 17
-2 13 -5z m-2510 -92 c0 -58 -7 -46 -12 19 -2 32 -1 48 4 39 5 -8 9 -34 8 -58z
m1167 18 c-5 -5 -10 3 -11 18 -1 22 0 24 9 8 6 -10 6 -22 2 -26z m2723 8 c-3
-7 -5 -2 -5 12 0 14 2 19 5 13 2 -7 2 -19 0 -25z m-2667 1 c0 -5 -4 -9 -10 -9
-5 0 -10 7 -10 16 0 8 5 12 10 9 6 -3 10 -10 10 -16z m1338 -14 c4 -5 -1 -5
-11 -2 -11 4 -16 3 -12 -3 14 -22 -8 -31 -27 -11 -10 12 -23 19 -29 16 -5 -4
-9 0 -9 8 0 11 9 13 40 7 23 -4 44 -11 48 -15z m-1378 -15 c0 -5 -5 -10 -11
-10 -5 0 -7 5 -4 10 3 6 8 10 11 10 2 0 4 -4 4 -10z m-30 -10 c0 -5 -2 -10 -4
-10 -3 0 -8 5 -11 10 -3 6 -1 10 4 10 6 0 11 -4 11 -10z m1335 0 c3 -6 -1 -7
-9 -4 -18 7 -21 14 -7 14 6 0 13 -4 16 -10z m-1151 -60 c3 0 6 7 6 15 0 8 5
15 10 15 6 0 10 -16 10 -35 0 -41 -5 -43 -37 -13 l-23 21 0 -22 c0 -12 -4 -20
-9 -17 -7 4 -8 55 -2 76 1 3 10 -5 20 -17 11 -13 22 -23 25 -23z m132 26 c31
-32 12 -66 -37 -66 -16 0 -19 7 -19 40 0 34 3 40 21 40 11 0 27 -6 35 -14z
m79 4 c3 -5 -2 -10 -12 -10 -16 -1 -16 -2 2 -12 19 -12 19 -12 -5 -19 l-25 -6
25 -11 c25 -11 25 -11 -7 -11 -29 -1 -32 1 -31 32 0 17 3 35 5 40 6 10 41 9
48 -3z m78 2 c17 9 19 8 12 -8 -4 -11 -10 -29 -12 -41 -7 -31 -15 -28 -34 12
-16 35 -14 54 4 36 7 -7 17 -6 30 1z m60 -59 c12 -11 27 10 27 38 0 16 5 29
10 29 6 0 10 -16 10 -35 0 -29 -4 -36 -27 -41 -28 -7 -53 14 -53 46 0 31 15
31 21 0 4 -17 9 -33 12 -37z m122 57 c3 -5 -3 -10 -14 -10 -11 0 -23 -5 -26
-10 -9 -15 14 -40 31 -33 8 3 14 0 14 -6 0 -15 -43 -14 -58 1 -16 16 -15 33 4
52 18 18 40 21 49 6z m80 -20 c22 -42 19 -47 -24 -47 -25 0 -38 4 -35 11 26
77 35 82 59 36z m125 14 c0 -9 -6 -14 -13 -11 -19 7 -41 -8 -33 -22 4 -6 18
-11 31 -11 16 0 25 7 29 25 13 52 90 39 84 -14 -2 -20 -9 -27 -31 -29 -16 -2
-34 1 -41 7 -9 7 -16 7 -23 0 -6 -6 -23 -9 -39 -7 -52 6 -41 78 12 78 15 0 24
-6 24 -16z m147 -6 l23 -21 0 21 c0 12 5 22 10 22 6 0 10 -18 10 -40 0 -29 -4
-40 -15 -40 -9 0 -18 7 -21 15 -4 8 -11 15 -16 15 -6 0 -8 -7 -4 -15 3 -9 0
-15 -9 -15 -11 0 -15 11 -15 40 0 46 5 48 37 18z m130 5 c3 -7 -3 -9 -16 -6
-21 5 -41 -21 -26 -35 4 -4 10 -1 12 6 7 19 33 14 33 -7 0 -26 -36 -33 -62
-11 -20 16 -21 21 -10 44 9 21 18 27 39 24 14 -2 28 -8 30 -15z m73 7 c0 -5
-8 -11 -17 -11 -17 -1 -17 -2 0 -6 24 -6 22 -23 -4 -23 -11 0 -18 -4 -14 -10
3 -5 12 -7 20 -3 8 3 15 0 15 -6 0 -6 -13 -11 -29 -11 -27 0 -29 3 -29 40 -1
38 1 40 29 40 16 0 29 -4 29 -10z m-2373 -52 c-3 -7 -5 -2 -5 12 0 14 2 19 5
13 2 -7 2 -19 0 -25z m3860 -20 c-3 -7 -5 -2 -5 12 0 14 2 19 5 13 2 -7 2 -19
0 -25z m-3846 -45 c-6 -21 -11 -53 -11 -71 0 -20 -4 -31 -10 -27 -5 3 -10 27
-10 53 0 31 3 42 9 33 6 -9 11 0 16 30 5 24 10 39 12 32 2 -6 0 -29 -6 -50z
m3876 -105 c-2 -24 -4 -5 -4 42 0 47 2 66 4 43 2 -24 2 -62 0 -85z m-3860 -15
c-2 -16 -4 -3 -4 27 0 30 2 43 4 28 2 -16 2 -40 0 -55z m3830 55 c-3 -8 -6 -5
-6 6 -1 11 2 17 5 13 3 -3 4 -12 1 -19z m-1150 6 c-3 -3 -12 -4 -19 -1 -8 3
-5 6 6 6 11 1 17 -2 13 -5z m-725 -54 l4 -35 13 33 c7 17 16 32 20 32 4 0 14
-16 23 -35 15 -35 12 -45 -9 -24 -7 7 -14 6 -24 -4 -17 -16 -47 -8 -69 18 -14
17 -15 16 -21 -11 -6 -25 -7 -24 -8 14 -1 40 14 57 25 28 11 -29 31 -25 29 5
-2 41 13 22 17 -21z m253 -1 c-11 -35 13 -28 31 9 l17 37 18 -40 18 -40 0 32
c1 45 21 53 21 9 0 -25 4 -36 15 -36 8 0 15 -5 15 -10 0 -6 -16 -10 -35 -8
-19 1 -35 6 -35 10 0 4 -9 8 -20 8 -11 0 -20 -4 -20 -9 0 -14 -30 -7 -41 10
-6 10 -9 10 -9 2 0 -7 -4 -13 -10 -13 -15 0 -12 68 3 73 19 7 38 -14 32 -34z
m-657 24 c-23 -6 -22 -9 1 -32 19 -19 20 -19 30 10 12 36 17 36 36 -1 18 -35
19 -44 3 -33 -18 11 -38 13 -38 3 0 -12 -44 -20 -54 -10 -7 7 -3 10 10 10 18
1 18 1 2 14 -26 19 -23 46 5 45 16 -1 18 -2 5 -6z m137 -32 c0 -28 -4 -35 -22
-36 -20 -1 -23 3 -23 37 0 35 2 39 23 36 18 -2 22 -9 22 -37z m82 28 c8 -8 13
-8 17 0 4 6 16 11 26 11 14 0 19 -7 19 -22 -1 -13 2 -32 5 -43 8 -20 8 -20 -9
0 -13 16 -17 17 -24 6 -6 -9 -11 -10 -15 -2 -5 8 -12 7 -22 -4 -32 -31 -71 -5
-60 40 7 27 42 35 63 14z m333 -19 c0 -20 5 -30 15 -30 15 0 19 10 16 43 -1 9
3 17 8 17 21 0 12 -59 -10 -70 -26 -14 -49 3 -49 36 0 35 -18 29 -29 -8 l-9
-33 -1 32 c-1 17 -7 34 -13 36 -7 3 6 6 30 6 40 1 42 0 42 -29z m-1401 -15
c105 -54 141 -213 74 -322 -35 -56 -86 -85 -162 -91 -51 -4 -55 -3 -42 12 11
14 11 16 -2 16 -9 0 -19 4 -22 10 -3 5 0 7 7 5 8 -3 22 1 33 9 18 13 18 14
-10 10 -25 -4 -27 -3 -10 5 11 5 16 10 12 10 -5 1 -5 6 -1 12 5 8 9 8 14 -1 4
-7 11 15 15 51 5 44 4 64 -4 67 -6 2 -11 16 -12 30 0 15 -3 21 -6 15 -8 -21
-29 -15 -41 11 -6 13 -20 27 -31 31 -12 3 -21 11 -21 16 0 5 -8 9 -17 10 -11
0 -13 3 -5 6 6 2 12 9 12 14 0 6 -5 7 -10 4 -14 -8 -42 14 -34 27 8 12 76 55
100 61 32 9 132 -2 163 -18z m1945 10 c-4 -8 -8 -15 -10 -15 -2 0 -4 7 -4 15
0 8 4 15 10 15 5 0 7 -7 4 -15z m-64 -50 c0 -12 -29 -3 -34 10 -4 13 -2 14 14
5 11 -6 20 -13 20 -15z m47 19 c-3 -3 -12 -4 -19 -1 -8 3 -5 6 6 6 11 1 17 -2
13 -5z m-2622 -74 c-9 -41 -17 -33 -9 9 4 17 9 30 11 27 3 -2 2 -19 -2 -36z
m431 18 c4 -6 3 -8 -4 -4 -5 3 -13 0 -15 -6 -3 -8 -6 -6 -6 5 -1 19 14 23 25
5z m3351 -20 c-3 -8 -6 -5 -6 6 -1 11 2 17 5 13 3 -3 4 -12 1 -19z m-113 -13
c-4 -8 -16 -15 -28 -15 -20 0 -20 1 4 14 14 8 26 14 27 15 1 1 0 -6 -3 -14z
m-3686 -95 c0 -22 -1 -22 -8 5 -7 27 -8 27 -9 6 0 -13 -4 -22 -7 -19 -3 3 -2
23 2 44 7 36 8 37 15 14 4 -14 7 -36 7 -50z m2016 -8 c91 -35 157 -116 196
-241 22 -68 23 -79 12 -145 -24 -140 -112 -268 -218 -316 -36 -16 -75 -24
-147 -27 -109 -6 -155 5 -240 61 -53 34 -98 108 -112 181 -4 22 -11 43 -16 46
-6 3 -11 46 -12 95 -1 80 2 95 30 154 46 99 124 164 252 209 55 20 180 12 255
-17z m-1975 -91 c1 -57 -6 -30 -12 44 -4 54 -4 61 3 30 5 -22 9 -55 9 -74z
m3567 -33 c15 -29 20 -48 13 -42 -16 12 -25 11 -59 -4 -14 -6 -19 -11 -12 -11
7 -1 10 -6 7 -12 -4 -5 -1 -24 5 -40 l13 -30 19 21 c28 30 32 24 10 -12 -15
-26 -17 -40 -10 -67 8 -29 12 -32 36 -28 23 4 24 3 10 -7 -12 -9 -15 -20 -11
-37 10 -42 4 -31 -88 140 -16 29 -29 62 -29 73 0 10 -5 28 -10 39 -11 19 3 29
14 10 8 -12 63 -19 78 -10 9 6 8 12 -5 27 -16 17 -23 42 -12 42 2 0 17 -24 31
-52z m181 -105 c-3 -10 -5 -2 -5 17 0 19 2 27 5 18 2 -10 2 -26 0 -35z m-427
23 c0 -3 -4 -8 -10 -11 -5 -3 -10 -1 -10 4 0 6 5 11 10 11 6 0 10 -2 10 -4z
m-3308 -78 c-7 -7 -12 -8 -12 -2 0 6 3 14 7 17 3 4 9 5 12 2 2 -3 -1 -11 -7
-17z m3726 -43 c-3 -3 -9 2 -12 12 -6 14 -5 15 5 6 7 -7 10 -15 7 -18z m22
-35 c0 -5 -5 -10 -11 -10 -5 0 -7 5 -4 10 3 6 8 10 11 10 2 0 4 -4 4 -10z
m-3738 -99 c-5 -3 -11 -13 -14 -21 -3 -8 -5 2 -5 22 1 23 4 33 9 25 5 -7 8 2
10 23 l1 35 4 -39 c3 -21 0 -42 -5 -45z m3729 62 c13 -16 12 -17 -3 -4 -17 13
-22 21 -14 21 2 0 10 -8 17 -17z m-28 -28 c-3 -9 -8 -14 -10 -11 -3 3 -2 9 2
15 9 16 15 13 8 -4z m-3 -65 c0 -5 -4 -10 -10 -10 -5 0 -10 5 -10 10 0 6 5 10
10 10 6 0 10 -4 10 -10z m-3693 -32 c-3 -8 -6 -5 -6 6 -1 11 2 17 5 13 3 -3 4
-12 1 -19z m20 -85 c-3 -10 -5 -2 -5 17 0 19 2 27 5 18 2 -10 2 -26 0 -35z
m-20 -15 c-3 -8 -6 -5 -6 6 -1 11 2 17 5 13 3 -3 4 -12 1 -19z m2329 -71 c-2
-23 -4 -45 -5 -50 -1 -4 -9 -2 -20 4 -11 8 -17 20 -14 33 4 17 3 18 -6 6 -6
-8 -11 -10 -11 -5 0 15 44 64 52 59 4 -3 6 -24 4 -47z m-1340 -12 c109 -36
209 -87 227 -116 7 -11 19 -19 27 -19 24 -1 170 -150 170 -174 0 -4 9 -27 20
-51 23 -50 40 -131 65 -310 28 -201 59 -335 100 -429 26 -60 12 -91 -63 -144
-20 -15 -39 -21 -52 -17 -13 4 -20 2 -21 -7 0 -7 -2 -21 -4 -31 -2 -9 3 -23
10 -30 7 -7 20 -28 30 -47 10 -19 36 -52 59 -75 l41 -40 6 45 c3 25 4 50 2 57
-7 17 15 53 32 53 20 0 19 16 -1 24 -13 5 -15 14 -9 44 4 20 7 45 6 55 0 11
29 -12 82 -66 99 -99 200 -170 347 -242 l110 -54 72 39 c79 42 195 66 186 39
-3 -9 -29 -17 -69 -22 -57 -7 -169 -48 -169 -61 0 -3 24 -18 53 -32 124 -63
270 -187 318 -273 12 -23 26 -41 31 -41 4 0 8 -13 8 -29 0 -17 5 -33 12 -37 8
-5 9 -2 5 9 -4 11 -1 17 7 17 29 0 46 -13 47 -34 0 -18 1 -19 7 -3 7 16 9 16
27 3 11 -9 28 -16 38 -16 20 0 21 -9 3 -32 -17 -24 -25 -23 -81 9 l-48 27 6
-25 c4 -13 7 -41 7 -62 0 -34 2 -38 20 -32 22 7 25 -2 10 -25 -9 -13 -11 -13
-20 0 -6 10 -8 -20 -6 -91 2 -59 0 -112 -4 -119 -6 -10 -31 -11 -101 -6 -80 6
-97 11 -111 29 l-18 22 0 -26 0 -26 -127 -6 c-71 -3 -281 -5 -468 -4 l-340 3
-3 24 c-2 14 -10 32 -17 40 -11 12 -11 25 2 75 8 33 18 62 22 65 8 7 50 90 46
90 -3 0 -37 -30 -77 -66 -40 -37 -87 -73 -105 -80 l-32 -14 54 -56 c60 -61 68
-84 31 -84 -21 0 -61 30 -40 30 29 1 -28 20 -58 20 -20 0 -39 6 -41 13 -4 8
-6 7 -6 -3 -1 -17 -71 -28 -71 -12 0 19 -44 29 -78 18 -29 -8 -36 -7 -43 7
-12 21 -29 22 -29 2 0 -19 -19 -19 -26 0 -3 8 -21 17 -40 21 -19 3 -34 9 -34
13 0 16 13 19 30 9 9 -6 25 -8 35 -4 14 5 15 9 5 21 -11 13 -8 15 15 15 23 0
26 2 15 15 -16 19 -39 19 -46 1 -3 -8 -12 -17 -20 -20 -18 -7 -57 11 -49 23 7
12 -21 22 -41 14 -12 -4 -13 -7 -3 -14 8 -4 10 -11 6 -16 -13 -12 -26 18 -18
41 6 14 19 22 40 24 20 2 31 9 31 18 0 14 2 13 16 0 16 -17 17 -17 82 -21 23
-2 40 0 37 5 -7 12 -45 19 -45 9 0 -5 -7 -9 -15 -9 -8 0 -15 7 -15 15 0 11 10
13 43 10 37 -4 39 -3 19 7 -15 7 -20 17 -17 29 3 9 0 21 -6 25 -9 5 -10 2 -6
-9 3 -9 2 -19 -3 -22 -6 -4 -10 5 -10 19 0 14 -4 28 -10 31 -5 3 -10 13 -10
21 0 8 5 12 10 9 6 -3 10 -1 10 5 0 7 -8 9 -19 5 -11 -3 -22 -1 -26 5 -3 5
-13 10 -22 10 -13 0 -13 -3 -3 -15 11 -13 10 -14 -4 -9 -9 3 -16 10 -16 14 0
12 26 30 33 23 4 -3 7 -2 7 4 0 14 -25 34 -33 26 -4 -3 -7 4 -7 16 0 12 -4 19
-10 16 -11 -7 -20 10 -24 48 -3 30 -28 57 -52 57 -16 0 -16 1 -1 18 14 16 15
23 4 45 -6 15 -18 27 -24 27 -7 0 -13 4 -13 9 0 5 -3 16 -6 24 -10 26 43 7 55
-20 15 -34 19 -27 13 25 -3 27 -9 42 -18 42 -16 0 -19 31 -4 46 8 8 7 19 0 39
-12 31 -4 48 10 25 8 -12 10 -11 11 5 1 16 2 16 6 3 2 -9 10 -19 18 -21 10 -4
13 3 10 29 -2 31 0 34 19 29 11 -2 15 -2 9 1 -7 3 -13 15 -13 26 0 17 3 18 15
8 12 -10 16 -9 21 4 9 23 27 20 21 -4 -3 -11 0 -20 6 -20 7 0 13 13 14 29 1
21 -4 31 -20 39 -18 9 -15 10 21 6 43 -4 51 2 30 25 -11 11 -10 12 2 7 8 -3
23 -9 33 -12 24 -9 23 -37 -2 -29 -22 7 -51 -18 -51 -45 0 -30 26 -30 43 0 12
19 28 30 54 35 49 9 56 14 43 30 -7 9 -22 12 -39 9 -20 -4 -30 -1 -34 10 -4 9
-12 16 -18 16 -19 0 -49 31 -49 52 0 19 15 24 25 8 9 -15 25 -12 25 5 0 10
-10 15 -27 15 -27 1 -27 1 11 24 31 20 35 25 20 29 -15 3 -12 7 16 20 19 9 31
17 25 17 -5 1 -1 5 10 9 19 8 18 9 -8 22 -21 9 -30 10 -39 1 -23 -23 -28 -12
-6 14 18 19 28 24 48 18 14 -4 36 -6 48 -5 16 0 26 -6 29 -18 3 -11 10 -18 16
-15 18 6 41 -48 25 -57 -23 -15 -3 -17 22 -4 14 8 19 14 11 15 -11 0 -11 3 -1
15 10 12 9 16 -4 21 -11 4 -14 13 -10 29 3 13 -2 37 -10 54 -11 21 -13 31 -5
31 7 0 9 10 6 26 -3 16 0 28 9 31 26 10 3 22 -31 16 -31 -5 -35 -3 -29 12 7
16 6 16 -14 -1 -12 -9 -18 -22 -15 -27 4 -6 -5 -7 -21 -3 -16 4 -33 3 -39 -3
-20 -16 -71 -16 -94 0 -16 11 -20 23 -18 49 2 19 4 41 4 48 1 7 6 10 11 7 6
-4 7 -23 4 -46 -6 -35 -4 -39 15 -39 11 0 21 -4 21 -10 0 -5 7 -10 15 -10 18
0 18 8 0 40 -18 32 -18 40 0 40 8 0 15 4 15 9 0 5 7 17 16 26 15 15 15 17 -4
22 -19 4 -21 11 -17 52 2 25 2 38 -1 29 -6 -21 -24 -24 -24 -4 0 7 -7 19 -16
27 -8 7 -13 21 -11 31 3 11 -3 27 -16 38 -13 13 -16 20 -8 20 10 0 12 10 8 35
-5 33 -4 35 19 29 18 -5 24 -2 24 11 0 9 -4 13 -10 10 -6 -3 -10 4 -10 18 0
19 5 24 23 22 12 -1 14 0 5 2 -10 2 -18 11 -18 19 0 19 -10 18 -26 -3 -19 -27
-29 -7 -10 21 9 14 16 34 16 45 0 17 5 20 30 15 17 -4 30 -3 30 2 0 5 3 20 7
33 4 17 3 22 -5 17 -7 -4 -12 -16 -12 -27 0 -28 -24 -23 -41 9 -8 15 -21 32
-29 39 -13 10 -13 12 0 17 8 3 28 5 44 3 17 -1 31 4 34 12 3 10 -4 12 -36 6
-55 -9 -61 9 -9 25 23 8 46 17 52 22 5 4 19 8 32 8 13 0 23 4 23 9 0 5 10 12
23 14 23 4 -41 12 -76 9 -12 -1 -16 2 -11 10 5 8 2 9 -12 3 -10 -4 -27 -7 -36
-7 -10 0 -18 -3 -18 -8 0 -6 -15 -16 -32 -24 -18 -7 -49 -29 -69 -48 -36 -33
-37 -33 -59 -16 -19 15 -20 19 -6 24 17 7 21 41 7 63 -7 11 -13 12 -23 3 -8
-6 -24 -9 -35 -6 -15 4 -23 1 -26 -13 -4 -15 -5 -14 -6 5 -1 20 11 27 40 24 3
-1 4 10 1 23 -4 22 -7 23 -26 13 -19 -10 -20 -10 -8 5 19 23 7 50 -30 66 -32
14 -32 14 -10 29 12 8 22 20 22 27 0 22 26 24 39 4 17 -29 34 -12 28 27 -6 35
1 42 20 23 8 -8 17 -5 32 10 l21 21 -35 0 c-32 0 -75 24 -75 43 0 16 137 -6
236 -38z m-948 6 c1 -16 -2 -32 -8 -36 -5 -3 -10 -16 -10 -27 0 -12 -3 -19 -6
-15 -8 8 6 107 15 107 4 0 8 -13 9 -29z m722 -41 c-24 -15 -31 -11 -18 10 9
13 16 16 23 9 7 -7 5 -13 -5 -19z m-773 -12 c-3 -7 -5 -2 -5 12 0 14 2 19 5
13 2 -7 2 -19 0 -25z m48 -68 c3 -6 -1 -7 -9 -4 -18 7 -21 14 -7 14 6 0 13 -4
16 -10z m-15 -30 c0 -11 -4 -20 -9 -20 -5 0 -7 9 -4 20 3 11 7 20 9 20 2 0 4
-9 4 -20z m3479 -23 c-16 -35 -5 -61 23 -54 20 6 20 5 4 -11 -16 -16 -18 -16
-30 0 -7 10 -16 15 -20 11 -4 -4 -4 1 -1 12 16 49 28 75 32 72 2 -3 -2 -16 -8
-30z m148 -19 c-3 -8 -6 -5 -6 6 -1 11 2 17 5 13 3 -3 4 -12 1 -19z m-3630
-20 c-3 -8 -6 -5 -6 6 -1 11 2 17 5 13 3 -3 4 -12 1 -19z m3620 -70 c-2 -13
-4 -5 -4 17 -1 22 1 32 4 23 2 -10 2 -28 0 -40z m-1267 2 c0 -5 -2 -10 -4 -10
-3 0 -8 5 -11 10 -3 6 -1 10 4 10 6 0 11 -4 11 -10z m147 -36 c-3 -3 -12 -4
-19 -1 -8 3 -5 6 6 6 11 1 17 -2 13 -5z m53 -60 c0 -7 -4 -15 -9 -19 -10 -6
-42 51 -33 59 8 8 42 -24 42 -40z m-1842 -16 c2 -12 12 -15 43 -11 37 5 53 -7
30 -22 -5 -3 -31 -33 -57 -68 -41 -55 -47 -55 -27 1 3 6 1 12 -5 12 -6 0 -13
-6 -15 -12 -3 -7 -6 3 -6 22 -1 25 2 31 9 20 8 -12 10 -12 15 2 7 17 -10 59
-23 57 -15 -3 -23 1 -18 9 9 15 51 6 54 -10z m1788 -27 c13 -11 29 -21 34 -21
6 0 10 -11 10 -24 0 -14 5 -28 11 -31 6 -4 9 -23 7 -43 -2 -27 2 -37 17 -44
18 -8 18 -8 -2 -4 -13 2 -23 0 -23 -5 0 -5 7 -9 16 -9 10 0 12 -4 7 -12 -4 -7
-6 -22 -5 -33 2 -16 1 -17 -7 -5 -8 12 -12 9 -20 -14 -6 -15 -18 -34 -26 -42
-8 -9 -15 -30 -15 -49 0 -28 -5 -35 -31 -44 -40 -14 -39 -14 -39 4 0 8 -9 15
-20 15 -18 0 -19 7 -18 88 0 48 -2 123 -5 167 -3 46 -1 83 5 86 5 3 10 15 11
26 1 16 7 19 35 18 18 -1 44 -12 58 -24z m-138 -65 c7 -33 -13 -37 -25 -5 -10
26 -10 30 5 27 9 -2 18 -12 20 -22z m-2358 -132 l-8 -49 1 62 c1 35 5 57 9 50
4 -7 3 -35 -2 -63z m57 54 c-3 -8 -6 -5 -6 6 -1 11 2 17 5 13 3 -3 4 -12 1
-19z m598 -18 c3 -6 -1 -7 -9 -4 -18 7 -21 14 -7 14 6 0 13 -4 16 -10z m-618
-112 c-3 -7 -5 -2 -5 12 0 14 2 19 5 13 2 -7 2 -19 0 -25z m45 3 c8 12 9 12 5
-1 -2 -8 -10 -14 -17 -12 -9 2 -11 -16 -6 -75 3 -47 2 -70 -3 -58 -8 19 -9 19
-14 -5 -6 -32 2 81 10 140 5 32 8 38 11 21 3 -19 6 -21 14 -10z m3495 -8 c-3
-10 -5 -4 -5 12 0 17 2 24 5 18 2 -7 2 -21 0 -30z m-3557 7 c0 -5 -7 -7 -15
-4 -8 4 -15 8 -15 10 0 2 7 4 15 4 8 0 15 -4 15 -10z m2326 -5 c9 -8 12 -20 8
-26 -5 -9 -11 -6 -21 6 -23 33 -14 47 13 20z m417 -15 c3 -11 1 -18 -4 -14
-20 12 -8 -14 13 -28 25 -16 16 -42 -11 -33 -12 3 -18 0 -18 -10 0 -8 6 -15
14 -15 7 0 13 -4 13 -9 0 -17 -17 -21 -34 -8 -15 11 -16 16 -3 47 11 24 12 38
4 51 -11 18 -2 53 12 45 5 -3 11 -15 14 -26z m-207 11 c-3 -4 1 -17 9 -27 20
-26 19 -56 -1 -52 -9 2 -21 10 -27 19 -12 18 -2 69 14 69 6 0 8 -4 5 -9z
m-2541 -11 c4 -6 11 -8 16 -5 5 4 9 1 9 -4 0 -6 -11 -11 -25 -11 -16 0 -25 6
-25 15 0 17 16 20 25 5z m84 -103 c0 -27 -2 -29 -9 -12 -12 28 -12 57 0 50 6
-3 10 -21 9 -38z m2523 17 c7 -6 -20 -64 -30 -64 -4 0 -13 4 -21 9 -11 7 -11
10 0 16 10 6 8 11 -7 17 -15 7 -14 8 8 5 15 -2 27 -1 26 2 -2 20 11 28 24 15z
m914 -70 c-4 -13 -11 -24 -17 -24 -6 0 -6 6 1 19 5 11 11 32 11 48 2 25 2 25
6 4 3 -12 2 -34 -1 -47z m-971 -14 c-3 -5 -13 -10 -21 -10 -8 0 -14 5 -14 10
0 6 9 10 21 10 11 0 17 -4 14 -10z m-183 -35 c6 -29 -7 -34 -15 -6 -4 17 0 31
9 31 1 0 4 -11 6 -25z m142 16 c3 -5 -1 -11 -9 -14 -9 -4 -12 -1 -8 9 6 16 10
17 17 5z m1016 -22 c0 -5 -4 -9 -10 -9 -5 0 -9 -18 -8 -40 1 -22 -2 -43 -5
-47 -4 -3 -7 21 -7 55 0 50 3 60 15 56 8 -4 15 -10 15 -15z m-729 -102 c0 -15
-5 -35 -10 -45 -8 -12 -10 6 -10 68 1 76 2 81 11 45 5 -22 9 -52 9 -68z
m-2694 41 c-3 -7 -5 -2 -5 12 0 14 2 19 5 13 2 -7 2 -19 0 -25z m837 -119 c17
-15 18 -18 4 -19 -9 0 -28 14 -42 31 -23 27 -28 41 -25 65 0 4 -5 10 -12 15
-10 6 -7 10 11 17 24 9 25 7 34 -41 5 -32 16 -57 30 -68z m136 16 c0 -7 -32
-1 -47 8 -8 5 -13 3 -13 -3 0 -6 -4 -8 -10 -5 -19 12 -11 33 10 28 12 -3 20 0
20 8 0 8 8 4 20 -9 11 -12 20 -24 20 -27z m1478 18 c-4 -34 -28 -43 -28 -10 0
25 7 37 22 37 5 0 8 -12 6 -27z m947 -3 c-3 -5 -12 -10 -20 -10 -8 0 -17 5
-20 10 -4 6 5 10 20 10 15 0 24 -4 20 -10z m-2351 -35 c-7 -16 -24 -21 -24 -6
0 8 7 13 27 20 1 1 0 -6 -3 -14z m1688 -17 c-8 -8 -9 -4 -5 13 4 13 8 18 11
10 2 -7 -1 -18 -6 -23z m-1827 12 c3 -5 -3 -10 -14 -10 -11 0 -23 5 -26 10 -3
6 3 10 14 10 11 0 23 -4 26 -10z m1765 -57 c0 -7 -9 -13 -20 -13 -19 0 -26 11
-15 22 10 10 35 4 35 -9z m750 -43 c0 -5 -5 -10 -11 -10 -5 0 -7 5 -4 10 3 6
8 10 11 10 2 0 4 -4 4 -10z m-1112 -33 c4 -34 -15 -35 -28 -1 -13 34 -13 36 8
32 10 -2 18 -14 20 -31z m-2096 -49 c5 -44 4 -47 -16 -44 -22 3 -23 8 -10 86
7 44 19 24 26 -42z m628 52 c0 -5 -7 -10 -16 -10 -8 0 -12 5 -9 10 3 6 10 10
16 10 5 0 9 -4 9 -10z m-20 -96 c0 -2 -7 -4 -15 -4 -8 0 -15 4 -15 10 0 5 7 7
15 4 8 -4 15 -8 15 -10z m2590 1 c0 -8 -4 -15 -10 -15 -5 0 -7 7 -4 15 4 8 8
15 10 15 2 0 4 -7 4 -15z m-1739 -12 c13 -16 12 -17 -3 -4 -10 7 -18 15 -18
17 0 8 8 3 21 -13z m-861 -33 c0 -11 -4 -20 -10 -20 -5 0 -7 6 -4 14 3 7 -2
16 -10 19 -9 4 -16 11 -16 17 0 8 6 8 20 0 11 -6 20 -20 20 -30z m2587 -16
c-6 -20 -13 -32 -14 -27 -4 11 14 63 21 63 2 0 -1 -16 -7 -36z m-2637 16 c0
-5 -4 -10 -10 -10 -5 0 -10 5 -10 10 0 6 5 10 10 10 6 0 10 -4 10 -10z m2661
-21 c-5 -13 -10 -19 -10 -12 -1 15 10 45 15 40 3 -2 0 -15 -5 -28z m-3414 -71
c-2 -18 -4 -4 -4 32 0 36 2 50 4 33 2 -18 2 -48 0 -65z m2397 77 c3 -8 3 -22
-1 -31 -5 -13 -7 -13 -14 -2 -11 17 -11 48 0 48 5 0 11 -7 15 -15z m74 3 c16
-16 15 -48 -2 -70 -12 -16 -14 -16 -24 5 -17 36 -22 58 -16 68 7 13 28 11 42
-3z m-1738 -49 c-16 -54 -31 -55 -23 -1 3 17 11 32 18 32 10 0 11 -8 5 -31z
m-683 -41 c-3 -8 -6 -5 -6 6 -1 11 2 17 5 13 3 -3 4 -12 1 -19z m3350 -80 c-2
-13 -4 -3 -4 22 0 25 2 35 4 23 2 -13 2 -33 0 -45z m-1120 11 c18 -18 3 -39
-28 -39 -30 0 -38 17 -17 38 15 15 31 15 45 1z m-2237 -35 c0 -8 -4 -14 -10
-14 -5 0 -10 9 -10 21 0 11 5 17 10 14 6 -3 10 -13 10 -21z m571 -37 c-10 -9
-11 -8 -5 6 3 10 9 15 12 12 3 -3 0 -11 -7 -18z m39 -17 c0 -11 -4 -20 -10
-20 -5 0 -10 9 -10 20 0 11 5 20 10 20 6 0 10 -9 10 -20z m2727 -2 c-3 -8 -6
-5 -6 6 -1 11 2 17 5 13 3 -3 4 -12 1 -19z m-2760 -60 c-3 -7 -5 -2 -5 12 0
14 2 19 5 13 2 -7 2 -19 0 -25z m-517 -64 c0 -8 -5 -12 -10 -9 -6 4 -8 11 -5
16 9 14 15 11 15 -7z m3180 -54 c0 -5 -5 -10 -11 -10 -5 0 -7 5 -4 10 3 6 8
10 11 10 2 0 4 -4 4 -10z m70 -17 c0 -20 -19 -54 -21 -38 0 6 -2 20 -3 33 -2
13 3 22 11 22 7 0 13 -8 13 -17z m16 -60 c-11 -11 -19 6 -11 24 8 17 8 17 12
0 3 -10 2 -21 -1 -24z m-3220 -39 c-10 -26 4 -45 25 -33 13 6 19 6 19 -1 0 -5
-4 -10 -10 -10 -15 0 -12 -26 5 -40 8 -7 15 -24 15 -39 0 -48 37 -66 72 -34
17 15 18 15 18 -6 0 -25 -29 -81 -42 -81 -4 0 -8 8 -8 19 0 13 -7 19 -25 19
-14 0 -25 -6 -25 -14 0 -7 -9 -18 -21 -24 -11 -7 -18 -18 -15 -25 3 -8 0 -16
-7 -19 -9 -5 -9 -7 1 -12 17 -8 15 -24 -4 -24 -8 0 -13 -4 -10 -9 10 -15 -54
-36 -73 -24 -14 9 -16 32 -15 157 1 145 1 146 28 171 15 14 32 25 39 26 9 0 9
2 0 6 -23 9 -14 20 13 15 16 -3 23 -9 20 -18z m2344 0 c0 -2 -7 -4 -15 -4 -8
0 -15 4 -15 10 0 5 7 7 15 4 8 -4 15 -8 15 -10z m30 -2 c0 -5 17 -14 39 -20
37 -12 69 -37 59 -47 -5 -6 -74 28 -100 48 -20 16 -23 27 -8 27 6 0 10 -4 10
-8z m-1830 -12 c0 -5 7 -10 15 -10 8 0 15 -5 15 -11 0 -6 6 -9 13 -6 8 3 12
-6 13 -24 1 -16 -3 -26 -7 -23 -5 3 -9 12 -9 21 0 9 -3 14 -6 10 -3 -3 -17 5
-30 18 -26 26 -30 35 -14 35 6 0 10 -4 10 -10z m-460 -20 c0 -5 -5 -10 -11
-10 -5 0 -7 5 -4 10 3 6 8 10 11 10 2 0 4 -4 4 -10z m588 -111 c-3 -8 -7 -3
-11 10 -4 17 -3 21 5 13 5 -5 8 -16 6 -23z m1702 10 c0 -5 9 -9 20 -9 11 0 20
-4 20 -8 0 -17 -22 -29 -44 -25 -17 4 -23 12 -24 33 0 21 3 27 14 23 8 -3 14
-9 14 -14z m887 -21 c-3 -7 -5 -2 -5 12 0 14 2 19 5 13 2 -7 2 -19 0 -25z
m-17 -14 c0 -8 -5 -12 -10 -9 -6 4 -8 11 -5 16 9 14 15 11 15 -7z m-3082 -54
c-7 -11 -16 -20 -20 -20 -5 0 -3 9 4 20 7 11 16 20 20 20 5 0 3 -9 -4 -20z"/>
<path d="M4630 6850 c34 -11 60 -11 35 0 -11 5 -29 8 -40 8 -16 0 -15 -2 5 -8z"/>
<path d="M4760 6756 c0 -2 11 -6 25 -8 13 -3 22 -1 19 3 -5 9 -44 13 -44 5z"/>
<path d="M4821 6736 c2 -2 18 -6 34 -10 22 -5 26 -4 15 4 -14 9 -59 15 -49 6z"/>
<path d="M5205 6570 c-3 -5 -2 -10 4 -10 5 0 13 5 16 10 3 6 2 10 -4 10 -5 0
-13 -4 -16 -10z"/>
<path d="M4908 6563 c7 -3 16 -2 19 1 4 3 -2 6 -13 5 -11 0 -14 -3 -6 -6z"/>
<path d="M7818 5842 c-10 -2 -18 -10 -18 -18 0 -18 8 -18 27 1 18 18 15 23 -9
17z"/>
<path d="M5217 5680 c-41 -32 -60 -96 -55 -187 6 -130 62 -204 143 -189 34 7
65 29 65 47 0 14 -31 23 -39 11 -13 -22 -56 -24 -83 -3 -49 39 -64 205 -24
266 20 31 60 42 91 25 13 -7 32 -9 42 -6 16 7 15 10 -10 32 -36 30 -94 32
-130 4z"/>
<path d="M5410 5627 c0 -70 -1 -74 -30 -95 -16 -13 -30 -31 -30 -42 0 -26 17
-25 41 3 18 22 18 22 20 -43 0 -36 2 -72 3 -80 2 -8 3 -25 4 -38 1 -16 7 -22
18 -20 14 3 16 18 15 111 l-2 107 43 -1 c24 0 59 -6 78 -12 38 -13 36 -5 39
-149 1 -51 3 -58 21 -58 18 0 20 7 20 86 l0 85 28 -3 c27 -3 27 -4 30 -85 2
-65 6 -83 17 -83 12 0 15 17 15 80 0 56 4 82 13 84 37 11 104 34 120 41 16 7
17 -2 17 -99 0 -99 1 -106 20 -106 19 0 20 7 20 123 0 119 1 124 25 147 14 13
27 22 29 19 1 -2 10 -48 19 -102 19 -114 34 -151 64 -155 19 -3 24 5 40 59 10
34 24 64 30 66 7 3 31 -23 55 -56 49 -69 98 -102 126 -85 32 20 43 80 40 228
-3 117 -6 141 -18 141 -13 0 -15 -24 -15 -155 0 -85 -4 -161 -8 -167 -18 -28
-48 -12 -93 50 -25 34 -56 69 -69 77 -22 13 -26 12 -44 -4 -11 -10 -27 -40
-34 -65 l-13 -46 -17 74 c-9 40 -17 95 -17 120 0 74 -27 89 -79 45 l-31 -25
-16 39 c-18 48 -57 67 -111 59 -57 -10 -83 -55 -83 -143 0 -37 -11 -48 -40
-39 -17 5 -20 15 -20 64 0 86 -9 121 -31 121 -17 0 -19 -8 -19 -76 0 -62 -3
-75 -14 -71 -8 3 -42 9 -75 13 l-61 7 0 63 c0 57 -2 64 -20 64 -18 0 -20 -7
-20 -73z m455 3 c8 -16 15 -37 15 -48 0 -22 -61 -59 -105 -64 -29 -3 -30 -2
-28 39 1 23 9 55 18 72 13 26 22 31 50 31 28 0 37 -5 50 -30z"/>
<path d="M6390 5505 c0 -188 1 -195 20 -195 18 0 20 7 20 80 l0 80 28 0 c16 0
49 7 75 16 156 53 90 214 -88 214 l-55 0 0 -195z m128 130 c23 -29 44 -33 36
-7 -4 12 0 10 15 -7 23 -25 21 -53 -5 -80 -7 -8 -40 -17 -74 -19 l-60 -4 0 71
0 71 34 0 c25 0 40 -7 54 -25z"/>
<path d="M6716 5678 c-26 -25 -44 -68 -27 -68 6 0 8 -8 5 -17 -3 -10 5 1 17
25 20 39 24 42 61 42 35 0 40 -4 52 -32 7 -18 16 -50 19 -70 6 -38 5 -38 -29
-38 -24 0 -34 -5 -34 -15 0 -10 10 -15 34 -15 l35 0 -6 -90 c-6 -87 -5 -90 16
-90 20 0 21 4 21 136 0 151 -11 206 -48 235 -34 26 -85 25 -116 -3z"/>
<path d="M6670 5551 c-5 -11 -10 -69 -10 -130 0 -87 3 -111 14 -111 15 0 26
50 26 128 0 50 1 52 28 53 24 0 25 1 7 8 -11 5 -29 18 -40 30 -16 19 -17 24
-5 31 10 6 11 10 3 10 -7 0 -17 -9 -23 -19z"/>
<path d="M5070 5261 c0 -25 6 -27 13 -6 4 8 2 17 -3 20 -6 4 -10 -3 -10 -14z"/>
<path d="M5151 5034 c0 -11 3 -14 6 -6 3 7 2 16 -1 19 -3 4 -6 -2 -5 -13z"/>
<path d="M5170 5020 c0 -5 5 -10 10 -10 6 0 10 5 10 10 0 6 -4 10 -10 10 -5 0
-10 -4 -10 -10z"/>
<path d="M5222 4980 c0 -8 4 -26 8 -40 6 -20 8 -21 8 -5 0 11 -3 29 -8 40 -5
12 -8 14 -8 5z"/>
<path d="M4186 5623 c-3 -3 -6 -24 -6 -45 0 -27 4 -38 15 -38 11 0 15 11 15
39 0 38 -10 57 -24 44z"/>
<path d="M4120 5420 c0 -13 11 -13 30 0 12 8 11 10 -7 10 -13 0 -23 -4 -23
-10z"/>
<path d="M7643 5313 c-21 -11 -34 -26 -38 -44 -4 -16 -17 -48 -31 -71 -30 -55
-42 -79 -70 -153 -15 -40 -23 -52 -23 -36 -1 30 -12 20 -27 -22 -7 -18 -16
-31 -22 -30 -5 1 -8 -6 -5 -17 3 -11 10 -17 15 -14 5 3 4 -3 -4 -15 -7 -12
-20 -22 -28 -22 -18 -2 66 -17 98 -18 17 -1 22 5 22 22 0 13 16 41 36 63 62
67 97 116 99 134 1 10 6 24 12 32 14 17 38 171 30 192 -8 20 -22 19 -64 -1z"/>
<path d="M7732 5145 c-29 -33 -94 -142 -111 -185 -8 -19 -18 -40 -22 -46 -10
-12 9 -34 28 -34 7 0 13 -4 13 -8 0 -5 14 -9 30 -10 23 0 30 4 30 18 0 11 8
23 18 29 16 9 16 10 0 16 -12 5 -18 17 -17 34 2 23 2 24 6 4 6 -31 29 -29 35
2 4 20 1 25 -14 25 -17 0 -19 5 -13 33 11 48 36 120 47 135 20 23 -8 12 -30
-13z"/>
<path d="M7747 5073 c-3 -16 -2 -32 2 -36 4 -4 8 8 9 28 2 42 -4 46 -11 8z"/>
<path d="M7776 5023 c-6 -14 -5 -15 5 -6 7 7 10 15 7 18 -3 3 -9 -2 -12 -12z"/>
<path d="M7010 4950 c0 -5 5 -10 10 -10 6 0 10 5 10 10 0 6 -4 10 -10 10 -5 0
-10 -4 -10 -10z"/>
<path d="M7141 4924 c0 -11 3 -14 6 -6 3 7 2 16 -1 19 -3 4 -6 -2 -5 -13z"/>
<path d="M7190 4936 c0 -2 9 -6 20 -9 11 -3 18 -1 14 4 -5 9 -34 13 -34 5z"/>
<path d="M6750 4920 c0 -5 5 -10 10 -10 6 0 10 5 10 10 0 6 -4 10 -10 10 -5 0
-10 -4 -10 -10z"/>
<path d="M7350 4880 c0 -5 5 -10 11 -10 5 0 7 5 4 10 -3 6 -8 10 -11 10 -2 0
-4 -4 -4 -10z"/>
<path d="M7750 4860 c-9 -6 -10 -10 -3 -10 6 0 15 5 18 10 8 12 4 12 -15 0z"/>
<path d="M7635 4840 c-3 -5 -1 -10 4 -10 6 0 11 5 11 10 0 6 -2 10 -4 10 -3 0
-8 -4 -11 -10z"/>
<path d="M6755 4829 c16 -7 13 -8 -12 -5 -18 3 -35 1 -38 -4 -3 -6 -2 -10 3
-10 6 0 8 -10 6 -22 l-5 -23 10 23 c13 28 65 31 80 5 6 -10 11 -13 11 -6 0 17
-41 53 -59 52 -12 0 -11 -3 4 -10z"/>
<path d="M7740 4811 c0 -17 18 -21 24 -6 3 9 0 15 -9 15 -8 0 -15 -4 -15 -9z"/>
<path d="M6660 4776 c0 -8 5 -18 10 -21 6 -3 10 3 10 14 0 12 -4 21 -10 21 -5
0 -10 -6 -10 -14z"/>
<path d="M6754 4776 c-8 -22 3 -33 18 -18 9 9 9 15 0 24 -9 9 -13 7 -18 -6z"/>
<path d="M6808 4750 c-7 -24 -3 -38 8 -28 3 4 4 17 2 30 l-3 23 -7 -25z"/>
<path d="M7710 4739 c0 -11 5 -41 12 -67 9 -37 13 -42 19 -26 11 29 11 86 -1
79 -5 -3 -10 3 -10 14 0 12 -4 21 -10 21 -5 0 -10 -9 -10 -21z"/>
<path d="M6840 4720 c0 -11 4 -20 8 -20 4 0 8 9 9 20 1 11 -2 20 -8 20 -5 0
-9 -9 -9 -20z"/>
<path d="M6882 4640 c0 -14 2 -19 5 -12 2 6 2 18 0 25 -3 6 -5 1 -5 -13z"/>
<path d="M7417 4049 c6 -23 9 -24 16 -5 3 8 0 17 -7 19 -10 4 -12 -1 -9 -14z"/>
<path d="M7417 3979 c7 -7 15 -10 18 -7 3 3 -2 9 -12 12 -14 6 -15 5 -6 -5z"/>
<path d="M7305 3907 c-11 -7 -21 -21 -23 -32 -3 -17 1 -15 22 9 35 39 35 44 1
23z"/>
<path d="M6880 3855 c-14 -8 -37 -20 -51 -27 -15 -8 -24 -19 -22 -28 3 -10 -1
-8 -11 4 -9 11 -19 16 -23 12 -4 -4 -1 -11 7 -16 13 -8 12 -13 -3 -40 -22 -36
-8 -39 28 -6 14 13 40 31 58 41 l32 16 -30 -5 c-54 -11 -3 11 58 25 44 9 60
10 69 1 15 -15 28 -15 28 -2 0 6 -7 10 -15 10 -8 0 -12 6 -9 13 7 20 -84 21
-116 2z"/>
<path d="M7050 3810 c20 -13 33 -13 25 0 -3 6 -14 10 -23 10 -15 0 -15 -2 -2
-10z"/>
<path d="M7511 3674 c0 -11 3 -14 6 -6 3 7 2 16 -1 19 -3 4 -6 -2 -5 -13z"/>
<path d="M7520 3626 c0 -2 9 -6 20 -9 11 -3 18 -1 14 4 -5 9 -34 13 -34 5z"/>
<path d="M7211 3154 c0 -11 3 -14 6 -6 3 7 2 16 -1 19 -3 4 -6 -2 -5 -13z"/>
<path d="M7240 3131 c0 -11 -4 -21 -8 -21 -5 0 -17 -7 -28 -15 -19 -15 -19
-15 1 -8 11 3 30 14 42 24 20 14 21 18 8 29 -13 10 -15 9 -15 -9z"/>
<path d="M7263 3100 c-13 -5 -23 -12 -23 -15 0 -9 16 -5 36 10 22 16 19 18
-13 5z"/>
<path d="M7310 3084 c0 -7 -15 -15 -34 -18 -31 -6 -75 -40 -65 -51 3 -2 23 4
44 14 87 40 109 51 91 46 -11 -3 -23 0 -28 7 -5 8 -8 9 -8 2z"/>
<path d="M7164 2993 c-13 -14 -22 -28 -19 -31 3 -3 6 -3 8 -1 1 2 13 16 26 32
31 35 18 36 -15 0z"/>
<path d="M7685 2970 c-3 -5 -2 -10 4 -10 5 0 13 5 16 10 3 6 2 10 -4 10 -5 0
-13 -4 -16 -10z"/>
<path d="M7005 2940 c3 -5 8 -10 11 -10 2 0 4 5 4 10 0 6 -5 10 -11 10 -5 0
-7 -4 -4 -10z"/>
<path d="M7122 2930 c-18 -29 -15 -38 4 -12 9 13 14 25 12 27 -2 2 -9 -5 -16
-15z"/>
<path d="M7081 2852 c-17 -31 -13 -40 5 -14 9 13 14 26 11 29 -3 2 -10 -4 -16
-15z"/>
<path d="M6920 2719 c0 -5 5 -7 10 -4 6 3 10 8 10 11 0 2 -4 4 -10 4 -5 0 -10
-5 -10 -11z"/>
<path d="M7570 2600 c0 -5 5 -10 10 -10 6 0 10 5 10 10 0 6 -4 10 -10 10 -5 0
-10 -4 -10 -10z"/>
<path d="M7550 2470 c0 -19 3 -21 12 -12 9 9 9 15 0 24 -9 9 -12 7 -12 -12z"/>
<path d="M7562 2441 c-20 -12 11 -69 43 -77 53 -13 63 35 13 66 -37 23 -38 23
-56 11z m75 -67 c-3 -3 -12 -4 -19 -1 -8 3 -5 6 6 6 11 1 17 -2 13 -5z"/>
<path d="M7506 2358 c-10 -101 -8 -178 7 -178 16 1 110 150 93 150 -14 0 -51
33 -59 52 -4 10 -8 10 -17 -2 -9 -12 -10 -11 -5 7 3 12 2 24 -3 27 -5 3 -12
-22 -16 -56z m24 -19 c-7 -11 -9 -23 -6 -27 3 -3 6 -1 6 5 0 6 6 13 13 16 7 3
13 -2 13 -12 0 -10 -9 -17 -23 -17 -25 -2 -32 23 -11 44 18 18 20 15 8 -9z
m43 -54 c-3 -9 -8 -14 -10 -11 -3 3 -2 9 2 15 9 16 15 13 8 -4z"/>
<path d="M7676 2364 c-3 -9 -3 -21 1 -26 4 -7 1 -8 -7 -3 -8 5 -11 3 -8 -5 10
-30 28 -21 28 14 0 39 -4 45 -14 20z"/>
<path d="M7100 2290 c-30 -11 -66 -20 -80 -20 -14 0 -20 -4 -14 -8 6 -4 16
-17 23 -30 7 -12 15 -20 20 -18 4 3 29 -15 56 -39 26 -24 50 -44 54 -43 18 2
24 -3 13 -11 -11 -7 -10 -9 3 -14 9 -4 13 -3 10 3 -3 6 1 10 11 10 14 0 16 7
11 45 -4 38 -1 47 14 56 14 7 18 16 13 34 -4 15 -2 25 5 25 6 0 11 -5 11 -12
0 -6 3 -8 6 -5 4 4 1 13 -6 22 -11 13 -15 13 -32 -7 l-20 -23 7 28 c7 25 5 27
-21 27 -16 -1 -54 -9 -84 -20z"/>
<path d="M6890 2112 c0 -5 9 -12 21 -15 13 -3 19 -1 16 6 -5 15 -37 22 -37 9z"/>
<path d="M7570 2111 c0 -5 6 -14 14 -20 12 -10 13 -8 9 8 -5 21 -23 30 -23 12z"/>
<path d="M7071 1595 c-12 -24 -26 -47 -32 -50 -24 -15 -5 -24 39 -18 26 3 48
7 50 8 1 1 -2 14 -7 28 -7 18 -15 25 -26 21 -11 -5 -14 -2 -9 12 4 11 11 25
17 32 6 7 6 12 0 12 -5 0 -20 -20 -32 -45z"/>
<path d="M5540 4766 c0 -19 4 -24 15 -19 18 6 16 34 -2 41 -8 2 -13 -6 -13
-22z"/>
<path d="M5965 4770 c-3 -5 -1 -10 4 -10 6 0 11 5 11 10 0 6 -2 10 -4 10 -3 0
-8 -4 -11 -10z"/>
<path d="M6160 4770 c0 -15 5 -20 18 -18 9 2 17 10 17 18 0 8 -8 16 -17 18
-13 2 -18 -3 -18 -18z"/>
<path d="M5780 4580 c0 -5 5 -10 10 -10 6 0 10 5 10 10 0 6 -4 10 -10 10 -5 0
-10 -4 -10 -10z"/>
<path d="M5780 4550 c0 -5 7 -10 16 -10 8 0 12 5 9 10 -3 6 -10 10 -16 10 -5
0 -9 -4 -9 -10z"/>
<path d="M5846 4574 c-8 -21 1 -34 25 -34 14 0 19 7 19 25 0 29 -34 36 -44 9z"/>
<path d="M5930 4580 c0 -5 5 -10 10 -10 6 0 10 5 10 10 0 6 -4 10 -10 10 -5 0
-10 -4 -10 -10z"/>
<path d="M4585 4510 c-3 -5 1 -10 9 -10 9 0 16 5 16 10 0 6 -4 10 -9 10 -6 0
-13 -4 -16 -10z"/>
<path d="M6492 3640 c0 -14 2 -19 5 -12 2 6 2 18 0 25 -3 6 -5 1 -5 -13z"/>
<path d="M5272 3503 c-46 -27 -67 -56 -58 -80 4 -10 14 -13 30 -9 16 4 26 1
30 -9 3 -8 16 -14 28 -14 l23 2 -22 4 c-26 5 -31 23 -7 23 14 0 14 3 4 15 -11
13 -9 20 10 40 13 14 31 27 42 31 10 3 18 10 18 15 0 17 -55 7 -98 -18z"/>
<path d="M4970 3455 c0 -8 5 -15 10 -15 6 0 10 7 10 15 0 8 -4 15 -10 15 -5 0
-10 -7 -10 -15z"/>
<path d="M5070 3360 c0 -5 7 -7 15 -4 8 4 15 8 15 10 0 2 -7 4 -15 4 -8 0 -15
-4 -15 -10z"/>
<path d="M5378 3353 c7 -3 16 -2 19 1 4 3 -2 6 -13 5 -11 0 -14 -3 -6 -6z"/>
<path d="M5278 3163 c5 -26 25 -26 30 -1 2 8 -6 18 -16 20 -15 4 -18 1 -14
-19z"/>
<path d="M5420 3055 c0 -9 6 -12 15 -9 8 4 12 10 9 15 -8 14 -24 10 -24 -6z"/>
<path d="M5210 2946 c0 -19 23 -33 28 -18 2 7 12 12 23 12 10 0 19 5 19 10 0
6 -16 10 -35 10 -24 0 -35 -5 -35 -14z"/>
<path d="M5476 2885 c8 -51 17 -60 43 -43 22 13 29 38 11 38 -5 0 -10 -4 -10
-10 0 -20 -17 -9 -33 23 l-17 32 6 -40z"/>
<path d="M5280 2866 c0 -7 3 -28 6 -45 7 -33 24 -43 24 -13 0 10 5 23 12 30 8
8 8 15 -2 27 -16 19 -40 20 -40 1z"/>
<path d="M5450 2790 c0 -5 5 -10 11 -10 5 0 7 5 4 10 -3 6 -8 10 -11 10 -2 0
-4 -4 -4 -10z"/>
<path d="M5280 2750 c-7 -16 -10 -36 -7 -44 3 -7 -1 -24 -10 -35 -19 -28 -13
-34 20 -22 20 8 28 20 34 53 6 28 6 49 -1 61 -15 24 -22 22 -36 -13z"/>
<path d="M5456 2641 c-3 -5 0 -11 8 -14 15 -6 26 1 26 15 0 11 -27 10 -34 -1z"/>
<path d="M5407 2332 c1 -8 3 -16 3 -18 0 -2 7 -4 15 -4 8 0 15 5 15 10 0 6 -6
10 -14 10 -8 0 -16 3 -19 8 -2 4 -2 1 0 -6z"/>
<path d="M5417 2283 c-12 -11 -8 -23 8 -23 8 0 15 7 15 15 0 16 -12 20 -23 8z"/>
<path d="M5399 2230 c-1 -11 -2 -26 -3 -32 -1 -7 6 -13 14 -13 9 0 15 11 16
33 2 35 -25 47 -27 12z"/>
<path d="M5336 2161 c-3 -5 1 -14 8 -20 12 -10 13 -8 9 8 -6 23 -9 25 -17 12z"/>
<path d="M5125 2130 c-4 -6 -3 -16 3 -22 6 -6 12 -6 17 2 4 6 3 16 -3 22 -6 6
-12 6 -17 -2z"/>
<path d="M5390 2096 c0 -8 4 -17 9 -20 11 -7 33 18 24 27 -12 12 -33 7 -33 -7z"/>
<path d="M5150 2071 c0 -6 5 -13 10 -16 6 -3 10 1 10 9 0 9 -4 16 -10 16 -5 0
-10 -4 -10 -9z"/>
<path d="M5215 2070 c-3 -5 1 -10 10 -10 9 0 13 5 10 10 -3 6 -8 10 -10 10 -2
0 -7 -4 -10 -10z"/>
<path d="M5110 2047 c0 -14 -5 -17 -20 -12 -29 9 -34 -14 -13 -61 9 -21 16
-42 15 -46 -3 -13 8 -9 25 8 12 11 13 18 4 27 -8 8 -11 6 -11 -8 0 -14 -3 -16
-11 -8 -7 7 -8 17 -3 25 5 7 9 18 9 23 0 6 10 11 23 13 24 4 28 18 12 42 -9
13 -10 13 -10 0 0 -13 -1 -13 -10 0 -8 13 -10 12 -10 -3z"/>
<path d="M5202 2010 c0 -14 2 -19 5 -12 2 6 2 18 0 25 -3 6 -5 1 -5 -13z"/>
<path d="M5272 1980 c-15 -25 -15 -40 0 -40 19 0 47 31 41 46 -7 20 -26 17
-41 -6z"/>
<path d="M5910 1990 c0 -6 -7 -10 -15 -10 -8 0 -15 -5 -15 -11 0 -5 -4 -7 -10
-4 -5 3 -10 0 -10 -7 0 -9 12 -13 38 -13 29 1 38 5 40 22 2 11 -4 23 -12 26
-9 4 -16 2 -16 -3z"/>
<path d="M5148 1963 c7 -3 16 -2 19 1 4 3 -2 6 -13 5 -11 0 -14 -3 -6 -6z"/>
<path d="M5060 1935 c0 -5 5 -17 10 -25 5 -8 10 -10 10 -5 0 6 -5 17 -10 25
-5 8 -10 11 -10 5z"/>
<path d="M5135 1910 c-3 -5 -1 -10 4 -10 6 0 11 5 11 10 0 6 -2 10 -4 10 -3 0
-8 -4 -11 -10z"/>
<path d="M5470 1900 c8 -5 22 -10 30 -10 13 0 13 1 0 10 -8 5 -22 10 -30 10
-13 0 -13 -1 0 -10z"/>
<path d="M5875 1887 c-4 -8 -5 -18 -3 -23 1 -5 -6 -35 -16 -66 -10 -31 -16
-62 -13 -70 4 -9 8 -5 12 10 4 12 13 22 20 22 7 0 18 6 25 14 6 8 21 16 32 18
12 2 23 9 26 16 3 9 -3 13 -19 10 -21 -3 -25 2 -29 36 -5 40 -26 59 -35 33z"/>
<path d="M5370 1875 c0 -9 5 -15 11 -13 6 2 11 8 11 13 0 5 -5 11 -11 13 -6 2
-11 -4 -11 -13z"/>
<path d="M6625 1850 c-3 -5 -1 -10 4 -10 6 0 11 5 11 10 0 6 -2 10 -4 10 -3 0
-8 -4 -11 -10z"/>
<path d="M5100 1824 c0 -8 8 -23 17 -32 16 -16 16 -16 10 1 -4 10 -7 25 -7 33
0 8 -4 14 -10 14 -5 0 -10 -7 -10 -16z"/>
<path d="M5295 1800 c3 -5 8 -10 11 -10 2 0 4 5 4 10 0 6 -5 10 -11 10 -5 0
-7 -4 -4 -10z"/>
<path d="M5335 1800 c4 -6 11 -8 16 -5 14 9 11 15 -7 15 -8 0 -12 -5 -9 -10z"/>
<path d="M5120 1740 c0 -17 30 -24 43 -10 9 10 9 11 0 6 -7 -4 -13 -2 -13 3 0
6 -7 11 -15 11 -8 0 -15 -5 -15 -10z"/>
<path d="M5191 1731 c-18 -11 -5 -31 20 -31 12 0 19 7 19 20 0 21 -16 26 -39
11z"/>
<path d="M6340 1709 c0 -3 24 -26 53 -50 28 -24 54 -47 55 -51 2 -5 8 -8 13
-8 6 0 7 5 4 10 -4 6 0 22 9 35 15 23 14 26 -8 50 -21 23 -31 26 -75 23 -28
-2 -51 -6 -51 -9z"/>
<path d="M5234 1685 c3 -8 2 -14 -2 -14 -4 1 -10 0 -14 -1 -5 -1 -12 -3 -18
-4 -5 0 -10 -4 -10 -8 0 -32 0 -33 9 -19 6 9 11 10 15 2 9 -14 46 -15 46 -1 0
6 7 10 15 10 20 0 19 20 -2 36 -24 18 -47 18 -39 -1z"/>
<path d="M6830 1653 c0 -4 5 -15 10 -23 8 -13 10 -13 10 2 0 9 -4 20 -10 23
-5 3 -10 3 -10 -2z"/>
<path d="M5320 1490 c-8 -5 -12 -11 -9 -14 2 -3 11 -1 19 4 8 5 12 11 9 14 -2
3 -11 1 -19 -4z"/>
<path d="M5355 1491 c-6 -11 33 -51 49 -51 6 0 -1 10 -17 21 -15 11 -25 25
-21 30 3 5 3 9 0 9 -3 0 -7 -4 -11 -9z"/>
<path d="M5483 1466 c-18 -12 -32 -26 -33 -32 0 -7 -7 -14 -15 -18 -8 -3 -15
-11 -15 -18 0 -9 3 -10 8 -2 7 11 71 48 84 49 14 0 19 14 11 27 -7 12 -14 11
-40 -6z"/>
<path d="M5318 1463 c-24 -6 -23 -10 9 -44 28 -29 66 -38 79 -18 5 9 -53 69
-66 67 -3 0 -13 -2 -22 -5z"/>
<path d="M5225 1440 c-3 -5 1 -10 10 -10 9 0 13 5 10 10 -3 6 -8 10 -10 10 -2
0 -7 -4 -10 -10z"/>
<path d="M5266 1413 c-4 -9 -2 -21 4 -27 7 -7 10 -2 10 17 0 31 -5 34 -14 10z"/>
<path d="M4440 1640 c0 -5 10 -14 22 -21 18 -10 20 -9 15 6 -4 9 -7 19 -7 21
0 2 -7 4 -15 4 -8 0 -15 -4 -15 -10z"/>
<path d="M4410 1590 c-12 -8 -10 -10 8 -10 13 0 20 4 17 10 -7 12 -6 12 -25 0z"/>
<path d="M4480 1560 c0 -11 5 -20 10 -20 6 0 10 9 10 20 0 11 -4 20 -10 20 -5
0 -10 -9 -10 -20z"/>
</g>
</svg>
