<?xml version="1.0" encoding="UTF-8"?>
<svg version="1.1" xmlns="http://www.w3.org/2000/svg" width="4500" height="4501">
<path d="M0 0 C1485 0 2970 0 4500 0 C4500 1483.35 4500 2966.7 4500 4495 C3015 4495 1530 4495 0 4495 C0 3011.65 0 1528.3 0 0 Z " fill="#026D65" transform="translate(0,3)"/>
<path d="M0 0 C0.86238281 0.66128906 1.72476563 1.32257813 2.61328125 2.00390625 C36.33505574 28.50307202 57.23545755 67.06715297 71 107 C71.28037109 107.79615723 71.56074219 108.59231445 71.84960938 109.41259766 C77.15699939 124.5976302 80.50094371 140.32291685 84 156 C86.81278004 156 87.60966111 154.77623539 89.6796875 152.91015625 C90.39608398 152.2670752 91.11248047 151.62399414 91.85058594 150.96142578 C92.55989258 150.31415527 93.26919922 149.66688477 94 149 C94.88993652 148.19344971 94.88993652 148.19344971 95.79785156 147.37060547 C97.58497868 145.73810414 99.35745972 144.09118605 101.125 142.4375 C102.12176758 141.50550781 102.12176758 141.50550781 103.13867188 140.5546875 C110.34819435 133.75769901 117.32632914 126.72890524 124.28564453 119.67749023 C129.35583726 114.55885618 134.51756959 109.67197132 140 105 C141.08395378 104.03992665 142.16606628 103.07776935 143.24609375 102.11328125 C156.66143908 90.27314365 171.09366187 80.20869257 187 72 C187.63679688 71.67128906 188.27359375 71.34257813 188.9296875 71.00390625 C207.65364462 61.48907906 227.46785916 56.36461302 248 63 C261.86735697 68.88812379 270.52560666 78.256016 276.28515625 92.0859375 C279.87874959 102.106782 280.13404607 112.18342591 280.4296875 122.7421875 C280.50114988 125.02972131 280.57319414 127.317237 280.64575195 129.60473633 C280.68270172 130.79112701 280.71965149 131.9775177 280.75772095 133.19985962 C282.27646048 180.79216918 287.10838927 227.81133532 294.65240479 274.82580566 C295.02314704 277.14478382 295.38968592 279.46439886 295.75537109 281.78417969 C296.41111106 285.9427584 297.07182614 290.10051627 297.73660278 294.25765991 C297.99045217 295.84575939 298.24347805 297.43399077 298.49557495 299.02236938 C299.87949166 307.71701972 301.44337923 316.31939227 303.34375 324.91967773 C304.21075809 328.98926148 304.84755437 333.07039316 305.4375 337.1875 C306.40181284 343.59380131 307.55682193 349.92061437 308.9375 356.25 C310.8831463 365.18604235 312.46424506 374.16527822 314 383.1796875 C314.9538742 388.77438322 315.9707528 394.35625762 317 399.9375 C318.22140398 406.56823322 319.37131554 413.20546593 320.44897461 419.86108398 C322.07945007 429.92016421 323.94331457 439.89413827 326.07617188 449.85888672 C327.41580987 456.13055061 328.65549133 462.41222452 329.82641602 468.7175293 C334.7682694 495.26296226 340.27307508 523.20005493 353.86328125 546.8203125 C355 549 355 549 355 551 C355.66 551 356.32 551 357 551 C357.12818115 549.98639404 357.2563623 548.97278809 357.38842773 547.9284668 C357.9651925 544.2235878 358.78511213 540.75528556 359.78515625 537.14453125 C360.15063961 535.80650888 360.51569114 534.46836851 360.88037109 533.13012695 C361.07266296 532.42908844 361.26495483 531.72804993 361.46307373 531.00576782 C364.92438251 518.34102898 368.08100952 505.6404728 370.875 492.8125 C371.19804639 491.33784772 371.52129139 489.86323893 371.84472656 488.38867188 C372.35020159 486.08252156 372.85557218 483.77634869 373.36056519 481.47009277 C394.14975151 386.58456969 394.14975151 386.58456969 417 357 C417.71671875 356.06542969 418.4334375 355.13085938 419.171875 354.16796875 C429.09696271 341.6589358 440.92538066 330.04672231 456 324 C456.8353125 323.63003906 457.670625 323.26007812 458.53125 322.87890625 C472.91862044 317.40791933 491.51482252 318.09212779 506 323 C507.01191406 323.32871094 508.02382812 323.65742188 509.06640625 323.99609375 C523.28989112 329.03975894 536.34602066 336.44626355 548 346 C548.76425293 346.61415771 548.76425293 346.61415771 549.54394531 347.24072266 C562.37511328 357.56795957 573.80893571 369.05923876 584 382 C584.96728314 383.18065938 585.93753164 384.35889327 586.91015625 385.53515625 C593.62072529 393.66666495 600.04497177 401.97414307 606.34008789 410.4309082 C612.1997438 418.29718225 618.20797989 426.04035629 624.25292969 433.76464844 C626.64171341 436.82106317 629.02078261 439.88498054 631.40014648 442.94873047 C636.08362793 448.97884878 640.77738022 455.0004786 645.5 461 C650.82316969 467.76244796 656.10760663 474.55468768 661.38671875 481.3515625 C663.78054427 484.43331355 666.17914753 487.51124453 668.58203125 490.5859375 C677.35643461 501.82079211 686.00461572 513.14022637 694.40234375 524.66015625 C705.19745789 539.45529255 716.38288149 553.70805991 729 567 C729.89912109 567.97839844 729.89912109 567.97839844 730.81640625 568.9765625 C742.76739726 581.58989759 760.10528074 593.58091001 777.8815918 594.52124023 C789.71701126 594.75876379 800.99923361 590.78583405 810 583 C823.82313116 568.743302 828.69523178 549.04516716 832.25 530.0625 C832.40098145 529.26730957 832.55196289 528.47211914 832.70751953 527.65283203 C838.28005972 495.58088425 836.56991826 462.49740055 835.33520508 430.12133789 C833.46157877 380.36193504 832.6706976 330.64493325 832.5234375 280.85546875 C832.52110181 280.0806236 832.51876612 279.30577845 832.51635966 278.50745314 C832.45667266 258.60026345 832.42086363 238.69305745 832.39507955 218.78579795 C832.38018117 207.34555182 832.36091528 195.90532057 832.33789062 184.46508789 C832.33544049 183.24576819 832.33544049 183.24576819 832.33294086 182.00181576 C832.31485818 173.06586805 832.29546771 164.12992384 832.27463722 155.19398212 C832.2727958 154.4028773 832.27095438 153.61177248 832.26905716 152.79669479 C832.26167037 149.62997703 832.25427179 146.46325932 832.24671336 143.29654197 C832.22504925 134.2056459 832.20725521 125.11476372 832.19669101 116.02384775 C832.16134727 85.87476626 832.01630563 55.74181361 831.17784393 25.60244554 C830.97168497 18.17319229 830.82386823 10.7433447 830.6875 3.3125 C830.66418421 2.22059011 830.64086842 1.12868021 830.61684608 0.00368214 C830.47015069 -9.51301803 833.70961912 -16.36538657 840.140625 -23.27734375 C847.7526716 -30.32968104 856.8473891 -31.6510887 866.8828125 -31.375 C876.44924347 -30.75524047 884.67162404 -26.06252631 891 -19 C898.71343691 -9.35327199 898.35548361 2.04805361 898.57568359 13.85131836 C898.61260631 15.49371998 898.65015029 17.13610773 898.6882515 18.77848244 C898.79103279 23.34351836 898.88071791 27.90872932 898.96723223 32.4740994 C899.02414847 35.43938491 899.08426837 38.40459021 899.1452446 41.36979485 C900.35936968 100.74669459 900.87627274 160.13645881 901.45639488 219.52220146 C901.57498949 231.65263598 901.69947536 243.78299822 901.828125 255.91333008 C902.49058133 318.46633491 903.12664059 381.02122543 903.25580978 443.57801628 C903.26599784 448.46033201 903.28256405 453.34255194 903.30531693 458.22482491 C903.41197872 482.32107931 903.47131468 506.10577662 900 530 C899.87058895 530.90827482 899.7411779 531.81654964 899.60784531 532.75234795 C898.8684249 537.86479903 898.01663127 542.93523866 897 548 C896.86513184 548.68352539 896.73026367 549.36705078 896.59130859 550.07128906 C889.56073962 584.82678921 873.58819065 623.12894103 843.27856445 643.68774414 C818.67799279 659.71661454 788.06514783 665.78675023 759.0625 659.75 C757.03216637 659.20064539 755.01015565 658.61912794 753 658 C751.97132812 657.73316406 750.94265625 657.46632813 749.8828125 657.19140625 C729.83980722 651.67835468 712.57363412 640.50356838 697 627 C696.21753906 626.32839844 695.43507813 625.65679688 694.62890625 624.96484375 C684.09615025 615.71193003 673.91957895 605.8205419 665.234375 594.80078125 C662.59771209 591.49573351 659.83523306 588.31575711 657.0625 585.125 C651.43580935 578.61128648 646.18845056 571.86458963 641 565 C639.46009134 562.9986461 637.9183805 560.99867775 636.375 559 C634.58117718 556.66831931 632.79028274 554.33439958 631 552 C630.41444336 551.23655273 629.82888672 550.47310547 629.22558594 549.68652344 C622.02468416 540.28910867 614.86713411 530.86656946 607.875 521.3125 C602.74174466 514.29996352 597.47497841 507.40750505 592.11547852 500.56665039 C588.28548848 495.6726845 584.52517558 490.73345309 580.8125 485.75 C571.68264393 473.51440402 562.13383431 461.63042649 552.4765625 449.80859375 C551.16952459 448.2076452 549.86576644 446.60402024 548.5625 445 C543.27077438 438.4987371 537.88180021 432.08517521 532.44580078 425.70458984 C530.98557679 423.98299513 529.53698361 422.25213167 528.08984375 420.51953125 C510.10895476 398.20210658 510.10895476 398.20210658 484.9375 386.5625 C480.03482827 387.29268515 477.36524398 389.29712153 474.34545898 393.0637207 C470.0868792 399.05153833 466.8385665 405.04451052 464 411.8125 C463.57485107 412.81240967 463.14970215 413.81231934 462.71166992 414.8425293 C458.58014529 424.7265334 455.06603048 434.73840784 452 445 C451.72623535 445.91362305 451.4524707 446.82724609 451.17041016 447.76855469 C446.36764306 464.08733352 442.8478438 480.65323329 439.34741211 497.28710938 C436.1909834 512.26951653 432.7490136 527.15359653 429 542 C428.80067871 542.7930957 428.60135742 543.58619141 428.39599609 544.40332031 C427.3283986 548.62163234 426.19668306 552.81655426 425 557 C424.64679688 558.23492188 424.29359375 559.46984375 423.9296875 560.7421875 C417.02695237 584.15247923 407.7496886 609.45383895 386 623 C372.58894083 629.59419895 358.50530197 631.43134437 344.125 626.9375 C332.96204727 622.72038452 324.55141934 616.18218707 316 608 C315.40832031 607.47148437 314.81664063 606.94296875 314.20703125 606.3984375 C297.81612307 591.2144608 287.36692552 568.74000687 280 548 C279.57460937 546.81921875 279.14921875 545.6384375 278.7109375 544.421875 C273.21091495 528.56291429 269.46844359 512.25295161 266.1875 495.8125 C265.8483447 494.134513 265.50873364 492.45661806 265.16870117 490.77880859 C264.28393905 486.40505841 263.40628433 482.02991712 262.53112793 477.65423584 C262.00141037 475.00704812 261.47019567 472.36016527 260.93847656 469.71337891 C259.06801717 460.40122565 257.2065491 451.0873282 255.35287476 441.77182007 C254.38770451 436.92744084 253.40977009 432.08589085 252.421875 427.24609375 C252.18879639 426.09931152 251.95571777 424.9525293 251.71557617 423.77099609 C251.29967131 421.72769825 250.88087683 419.6849849 250.45825195 417.64306641 C249.48535325 412.8474775 248.76117064 408.1208907 248.27539062 403.25341797 C247.87717111 399.99493737 247.20066435 396.81008288 246.53076172 393.59814453 C245.6043453 389.06322112 244.84423543 384.49919311 244.0625 379.9375 C243.74115249 378.07156857 243.41952981 376.20568451 243.09765625 374.33984375 C242.92339111 373.32897705 242.74912598 372.31811035 242.56958008 371.27661133 C241.95618083 367.74792237 241.32975175 364.22167627 240.703125 360.6953125 C227.47232488 285.95604558 216.44832178 211.89403352 213 136 C202.78414609 139.97916512 194.92262927 146.57913725 187 154 C185.60935213 155.21429759 184.21385196 156.42307121 182.8125 157.625 C180.32537203 159.78513505 177.978166 162.00834034 175.6875 164.375 C171.99498299 168.13465368 167.93589608 171.36944261 163.8359375 174.671875 C160.2336906 177.62909146 156.78769816 180.7362118 153.34375 183.875 C151.19307289 185.82494724 149.01175029 187.73026129 146.8125 189.625 C144.27512165 191.83185812 141.8590514 194.10367239 139.5 196.5 C136.51127663 199.53594925 133.38293521 202.34508659 130.15625 205.125 C127.80037042 207.17359094 125.4949254 209.27203002 123.1875 211.375 C119.71466937 214.50798176 116.18337661 217.53934021 112.5625 220.5 C111.20898438 221.62535156 111.20898438 221.62535156 109.828125 222.7734375 C107 225 107 225 103.859375 227.0390625 C100.72186261 229.18705175 98.4064976 231.05155839 96 234 C95.38079108 237.33932135 95.38079108 237.33932135 95.63760567 240.96712303 C95.66746541 241.95719043 95.66746541 241.95719043 95.69792838 242.96725919 C95.76841598 244.98097758 95.87680617 246.98887249 96 249 C96.0668713 250.11451452 96.13374259 251.22902903 96.2026403 252.37731671 C96.43799327 255.72099258 96.71171 259.06032459 96.98580933 262.40103149 C98.31225869 280.50358724 98.27269468 298.57940329 98.23213124 316.72187948 C98.22334596 321.67027318 98.22642734 326.61866306 98.22793579 331.56706238 C98.22897529 340.10347134 98.22279775 348.63984929 98.21146011 357.17625046 C98.19507942 369.51785361 98.18998438 381.85944205 98.18748413 394.20105489 C98.18312654 414.2333289 98.16987049 434.26558646 98.15087891 454.29785156 C98.13246964 473.7363273 98.11833796 493.17479854 98.10986328 512.61328125 C98.10933783 513.81513275 98.10881239 515.01698426 98.10827102 516.25525551 C98.1056606 522.2856853 98.10313327 528.31611513 98.10064721 534.34654498 C98.07997511 584.23104196 98.04424544 634.11551882 98 684 C74.24 684 50.48 684 26 684 C26 552 26 420 26 284 C20.72 287.3 15.44 290.6 10 294 C-36.25751018 321.68415248 -85.96439167 343.5021545 -137.87182617 358.11791992 C-140.34976816 358.81664812 -142.81914294 359.53421605 -145.28515625 360.2734375 C-164.43385443 365.85764938 -184.09290962 369.46784547 -203.75 372.75 C-204.90588623 372.94851563 -206.06177246 373.14703125 -207.25268555 373.3515625 C-219.52107664 375.32572807 -231.48047259 375.99843781 -244 377 C-244 478.31 -244 579.62 -244 684 C-267.76 684 -291.52 684 -316 684 C-316 582.69 -316 481.38 -316 377 C-320.62 377 -325.24 377 -330 377 C-332.91241677 376.78969487 -335.74543433 376.55114618 -338.6328125 376.1875 C-339.7552108 376.05390831 -339.7552108 376.05390831 -340.90028381 375.9176178 C-343.31029188 375.62427827 -345.71766662 375.31449908 -348.125 375 C-348.96205475 374.89251434 -349.7991095 374.78502869 -350.66152954 374.67428589 C-406.08151558 367.45924221 -406.08151558 367.45924221 -429 356 C-429 464.24 -429 572.48 -429 684 C-452.76 684 -476.52 684 -501 684 C-501 565.86 -501 447.72 -501 326 C-502.98 325.34 -504.96 324.68 -507 324 C-509.49035461 322.93631961 -511.96024767 321.8521915 -514.42578125 320.734375 C-515.87815747 320.08441698 -517.33063495 319.43468518 -518.78320312 318.78515625 C-521.03031516 317.77668438 -523.27649702 316.76627995 -525.52075195 315.75146484 C-535.55658537 311.22030673 -545.63657938 307.21305728 -556.06350708 303.67396545 C-558.04674298 302.98373185 -560.01098633 302.25394597 -561.97485352 301.51049805 C-575.48232287 296.40495562 -589.23932752 292.3976662 -603.25 288.9375 C-604.54858948 288.61542068 -604.54858948 288.61542068 -605.87341309 288.28683472 C-656.05229935 275.91082218 -729.39597405 264.13199135 -780 281 C-782.64 281 -785.28 281 -788 281 C-788 413.99 -788 546.98 -788 684 C-812.09 684 -836.18 684 -861 684 C-861 559.59 -861 435.18 -861 307 C-872.51295007 313.27979095 -883.03310283 319.50412079 -893 328 C-893.9590625 328.81210938 -894.918125 329.62421875 -895.90625 330.4609375 C-907.44213646 340.47727184 -915.86147429 351.96230272 -923.02734375 365.40625 C-927.85572497 374.37835561 -933.31951899 380.76988646 -943.0625 384.3046875 C-952.53405075 386.54662372 -962.56460473 386.07313896 -971 381 C-977.51581193 376.31994726 -982.5037842 370.74249987 -985 363 C-987.46387777 341.89260073 -977.95396563 326.22141379 -965.44140625 310.03125 C-954.44907373 296.38316994 -942.92772595 283.75154729 -929 273 C-928.1968335 272.37424072 -928.1968335 272.37424072 -927.37744141 271.73583984 C-881.23464709 236 -881.23464709 236 -861 236 C-861 148.88 -861 61.76 -861 -28 C-836.91 -28 -812.82 -28 -788 -28 C-788 52.52 -788 133.04 -788 216 C-777.605 214.515 -777.605 214.515 -767 213 C-750.93539596 210.84508003 -735.02232544 210.65761898 -718.84448242 210.68432617 C-715.84628146 210.68892192 -712.84848964 210.68215691 -709.8503418 210.66381836 C-682.3292844 210.49735556 -655.23480746 212.17347695 -628.0625 216.8125 C-627.30169128 216.93872742 -626.54088257 217.06495483 -625.75701904 217.19500732 C-612.00532286 219.48049849 -598.47640273 222.42485794 -585 226 C-583.87134521 226.28834717 -582.74269043 226.57669434 -581.57983398 226.8737793 C-571.85334888 229.39218117 -562.33579528 232.37092579 -552.8125 235.5625 C-551.65534988 235.94810089 -551.65534988 235.94810089 -550.474823 236.3414917 C-535.4281953 241.36728783 -520.68959032 247.01126376 -506 253 C-504.35 253.66 -502.7 254.32 -501 255 C-501 161.61 -501 68.22 -501 -28 C-477.24 -28 -453.48 -28 -429 -28 C-429 76.28 -429 180.56 -429 288 C-427.35 288.33 -425.7 288.66 -424 289 C-422.46421473 289.49273945 -420.93812111 290.01647325 -419.421875 290.56640625 C-386.23372564 302.29338289 -351.1415979 309.93569097 -316 312 C-316.01522705 311.25145752 -316.0304541 310.50291504 -316.04614258 309.73168945 C-316.19119176 295.86518479 -315.3922872 282.03186771 -314.6875 268.1875 C-314.65369987 267.51966114 -314.61989975 266.85182228 -314.58507538 266.16374588 C-310.34416172 182.46707161 -301.46062479 83.98945503 -241 20 C-239.84935973 18.64991542 -238.7033304 17.29588411 -237.5625 15.9375 C-181.77880002 -47.43581902 -64.42444183 -51.72391594 0 0 Z " fill="#D9E03A" transform="translate(1978,1941)"/>
<path d="M0 0 C0.94027039 0.00021149 1.88054077 0.00042297 2.8493042 0.00064087 C24.48497314 0.04903614 45.70917991 1.94556782 66.1875 9.375 C66.97672852 9.65859375 67.76595703 9.9421875 68.57910156 10.234375 C85.31791412 16.35185044 100.31878696 24.09197922 114.1875 35.375 C114.74679199 35.82746094 115.30608398 36.27992187 115.88232422 36.74609375 C167.65380739 78.90593329 188.15790367 145.90794108 199.1875 209.375 C199.37795898 210.44588867 199.56841797 211.51677734 199.76464844 212.62011719 C202.40766694 227.74697715 203.9314064 242.96612583 205.3125 258.25 C205.39308655 259.11303741 205.4736731 259.97607483 205.55670166 260.86526489 C206.21641296 268.02795402 206.71407292 275.19782476 207.1875 282.375 C207.2730546 283.64985354 207.3586092 284.92470709 207.44675636 286.23819256 C210.06303234 326.66563668 209.45065136 367.22122508 209.39457643 407.70966041 C209.38002787 418.50548627 209.37725336 429.3013069 209.37498413 440.09714117 C209.37064074 459.33910233 209.35742438 478.58104622 209.33837891 497.82299805 C209.31993208 516.47989823 209.30581907 535.13679367 209.29736328 553.79370117 C209.29683783 554.94979389 209.29631239 556.1058866 209.29577102 557.29701243 C209.29316035 563.09860571 209.29063308 568.90019902 209.28814721 574.70179236 C209.26751958 622.59287692 209.23070769 670.48392944 209.1875 718.375 C185.4275 718.375 161.6675 718.375 137.1875 718.375 C137.1875 611.455 137.1875 504.535 137.1875 394.375 C48.0875 394.375 -41.0125 394.375 -132.8125 394.375 C-132.8125 500.965 -132.8125 607.555 -132.8125 717.375 C-156.2425 717.375 -179.6725 717.375 -203.8125 717.375 C-203.85780607 665.14450367 -203.89356947 612.9140121 -203.91463066 560.68349998 C-203.91713178 554.50335543 -203.91972045 548.32321091 -203.92236328 542.14306641 C-203.9228879 540.9128212 -203.92341252 539.682576 -203.92395304 538.41505064 C-203.93263221 518.55074255 -203.94838834 498.68644615 -203.96680559 478.82214497 C-203.98557412 458.4071968 -203.99663136 437.99225472 -204.00067699 417.57729828 C-204.00340769 405.00184493 -204.012001 392.42642465 -204.02833293 379.85098149 C-204.03898586 371.20256665 -204.04208204 362.55416866 -204.03950275 353.90574776 C-204.03823425 348.93200416 -204.04004022 343.95831794 -204.05091095 338.98458481 C-204.09653281 317.01549085 -203.67221706 295.27644375 -201.8125 273.375 C-201.72793305 272.34726495 -201.64336609 271.31952989 -201.55623651 270.26065135 C-201.06006298 264.23171075 -200.52135982 258.20858176 -199.9375 252.1875 C-199.8096109 250.86007278 -199.8096109 250.86007278 -199.67913818 249.50582886 C-197.40935726 226.13324107 -193.93578024 203.32626128 -188.52978516 180.45263672 C-187.87952628 177.6625879 -187.26556048 174.86811636 -186.66796875 172.06640625 C-175.66940861 121.51127694 -151.90504983 67.52489661 -109.8125 35.375 C-108.42998047 34.26898437 -108.42998047 34.26898437 -107.01953125 33.140625 C-90.25044563 20.01502492 -70.36557053 10.81161866 -49.8125 5.375 C-48.78253906 5.10042969 -47.75257813 4.82585937 -46.69140625 4.54296875 C-31.21843199 0.69839865 -15.86077586 -0.03303527 0 0 Z " fill="#D9E03A" transform="translate(3646.8125,1907.625)"/>
<path d="M0 0 C1.44941728 -0.0006814 2.89883444 -0.0016581 4.34825134 -0.00289917 C7.32242976 -0.00433681 10.29657727 -0.0023538 13.27075195 0.00244141 C16.97626234 0.00814329 20.68170096 0.00473126 24.38720894 -0.00099182 C50.66407089 -0.03548493 76.94320485 0.33739949 103.15234375 2.3828125 C103.96977051 2.44528168 104.78719727 2.50775085 105.62939453 2.57211304 C135.59179071 4.89299773 165.22839167 9.03434052 194.65234375 15.1328125 C196.07474365 15.41777588 196.07474365 15.41777588 197.52587891 15.70849609 C244.34045272 25.1938019 291.73998776 45.06079776 326.65234375 78.1328125 C327.59722656 79.01324219 328.54210938 79.89367188 329.515625 80.80078125 C350.79265174 101.03515721 364.26571471 126.94549301 371.65234375 155.1328125 C371.93851563 156.19628906 372.2246875 157.25976562 372.51953125 158.35546875 C373.33205432 161.60137275 374.0141407 164.84804989 374.65234375 168.1328125 C374.78914551 168.81069824 374.92594727 169.48858398 375.06689453 170.18701172 C384.05813609 216.33934862 375.94558003 268.9503667 349.86767578 308.36816406 C341.34219153 320.74707129 331.34321475 332.66122549 319.65234375 342.1328125 C319.16282227 342.53467773 318.67330078 342.93654297 318.16894531 343.35058594 C309.7096146 350.27277586 300.98280283 356.43702736 291.65234375 362.1328125 C290.90734619 362.5976001 290.16234863 363.0623877 289.39477539 363.54125977 C283.30786615 367.28570951 277.09088074 370.48352979 270.58984375 373.4453125 C269.55545166 373.91678711 268.52105957 374.38826172 267.45532227 374.87402344 C256.08691276 379.96167148 244.46429624 384.20055826 232.65234375 388.1328125 C231.69505371 388.45233887 230.73776367 388.77186523 229.75146484 389.10107422 C189.86050007 402.23330888 147.44443224 408.19809322 105.65234375 411.1328125 C104.39744141 411.22900879 103.14253906 411.32520508 101.84960938 411.42431641 C75.44573687 413.43949139 49.1749639 413.6023601 22.65234375 414.1328125 C22.32234375 514.1228125 21.99234375 614.1128125 21.65234375 717.1328125 C-1.77765625 717.1328125 -25.20765625 717.1328125 -49.34765625 717.1328125 C-49.34765625 480.8528125 -49.34765625 244.5728125 -49.34765625 1.1328125 C-12.4614458 -0.01988158 -12.4614458 -0.01988158 0 0 Z " fill="#D9E03A" transform="translate(2990.34765625,1907.8671875)"/>
<path d="M0 0 C1.20623016 -0.00018127 1.20623016 -0.00018127 2.43682861 -0.00036621 C17.00103719 0.03060997 30.97505381 1.31743706 45.25 4.375 C45.97687012 4.52984863 46.70374023 4.68469727 47.45263672 4.84423828 C51.79163148 5.81000418 56.01174488 7.04032529 60.25 8.375 C61.02585449 8.61057617 61.80170898 8.84615234 62.60107422 9.08886719 C93.41739481 18.49005667 120.05683253 34.01253337 143.25 56.375 C144.08789062 57.14972656 144.92578125 57.92445312 145.7890625 58.72265625 C151.0414233 63.71656755 155.52042884 69.10121351 159.875 74.875 C160.40867187 75.58229248 160.94234375 76.28958496 161.4921875 77.01831055 C165.25 82.11422569 165.25 82.11422569 165.25 84.375 C162.67873008 86.12885037 160.09685161 87.76307728 157.4375 89.375 C148.94574676 94.62423803 140.60624423 100.07091501 132.3125 105.625 C131.75162689 106.00027832 131.19075378 106.37555664 130.61288452 106.76220703 C128.9617099 107.86711681 127.31093091 108.97261774 125.66015625 110.078125 C124.07098389 111.13676758 124.07098389 111.13676758 122.44970703 112.21679688 C120.24823793 113.70168829 118.07122357 115.20133719 115.90576172 116.73632812 C114.84244629 117.47818359 113.77913086 118.22003906 112.68359375 118.984375 C111.2593811 119.99709473 111.2593811 119.99709473 109.80639648 121.03027344 C107.25 122.375 107.25 122.375 105.06811523 122.26025391 C101.88847467 120.71206314 100.01932197 117.72628604 97.875 115 C78.50182687 91.46103821 47.97843973 77.06469207 17.94091797 73.84155273 C-4.42616523 71.8870724 -25.60369763 73.79510905 -46.75 81.375 C-47.77222656 81.73207031 -48.79445313 82.08914063 -49.84765625 82.45703125 C-86.50041812 96.41763907 -109.73069041 129.86688833 -125.44140625 164.14453125 C-142.11032324 201.43619684 -149.71180985 242.93289616 -153.75 283.375 C-153.82412109 284.10178955 -153.89824219 284.8285791 -153.97460938 285.57739258 C-159.62239617 341.54237387 -159.55616455 400.6452173 -151.75 456.375 C-151.57065918 457.67808105 -151.39131836 458.98116211 -151.20654297 460.32373047 C-148.07638527 482.90520402 -143.61584449 504.80974957 -137.625 526.8125 C-137.28815186 528.05225586 -136.95130371 529.29201172 -136.60424805 530.56933594 C-134.9889861 536.38156221 -133.30129794 541.90793299 -130.75 547.375 C-130.16033744 548.85165496 -129.57643351 550.33063084 -129 551.8125 C-128.25380662 553.66820188 -127.50331804 555.52217892 -126.75 557.375 C-126.04423828 559.12296875 -126.04423828 559.12296875 -125.32421875 560.90625 C-116.80515555 581.47366513 -104.9934073 599.18062784 -89.75 615.375 C-89.14027344 616.04917969 -88.53054688 616.72335937 -87.90234375 617.41796875 C-73.31403545 632.93546867 -53.05125341 642.83829453 -32.75 648.375 C-31.5228125 648.7153125 -30.295625 649.055625 -29.03125 649.40625 C-9.01240193 653.87326569 15.66311004 653.63072843 35.34033203 647.921875 C37.18971383 647.39226426 39.06195249 646.94458923 40.93359375 646.5 C65.65570427 640.32636259 89.14015168 623.681357 104.25 603.375 C107.59991942 604.63686788 110.59022023 606.06842806 113.62890625 607.95703125 C114.4576123 608.47031982 115.28631836 608.9836084 116.14013672 609.51245117 C117.46295654 610.34160034 117.46295654 610.34160034 118.8125 611.1875 C119.73562988 611.76282471 120.65875977 612.33814941 121.60986328 612.9309082 C136.33308899 622.14075044 150.83132005 631.69700724 165.25 641.375 C159.05610103 655.26132189 145.01591049 668.97078221 133.25 678.375 C132.32058594 679.13039063 131.39117188 679.88578125 130.43359375 680.6640625 C117.4192932 691.06692747 103.31168703 699.31133474 88.25 706.375 C87.42757813 706.77050049 86.60515625 707.16600098 85.7578125 707.57348633 C78.94890671 710.77893793 72.07165528 713.25123635 64.875 715.4375 C63.75101807 715.78111572 62.62703613 716.12473145 61.46899414 716.47875977 C45.5182276 721.22648104 29.14547911 724.48043379 12.46484375 724.578125 C11.65472336 724.58522995 10.84460297 724.5923349 10.00993347 724.59965515 C-21.67404762 724.81409546 -51.3502611 722.32922738 -80.75 709.375 C-81.5018457 709.04918945 -82.25369141 708.72337891 -83.02832031 708.38769531 C-100.44774568 700.74439338 -115.37981733 690.79972706 -129.75 678.375 C-130.33410645 677.87210449 -130.91821289 677.36920898 -131.52001953 676.85107422 C-183.32752957 631.8185067 -207.71105638 559.77009102 -219.11108398 494.04003906 C-219.55447834 491.49657859 -220.01048276 488.9585211 -220.48461914 486.42089844 C-222.54586067 475.288213 -224.03899717 464.12346748 -225.3125 452.875 C-225.42016693 451.92447754 -225.52783386 450.97395508 -225.63876343 449.99462891 C-231.20629827 400.14159991 -231.65346002 349.37640222 -227.75 299.375 C-227.65525391 298.14127655 -227.65525391 298.14127655 -227.55859375 296.88262939 C-222.59360159 232.743875 -210.15507078 168.69986007 -179.75 111.375 C-179.40501465 110.72225098 -179.0600293 110.06950195 -178.70458984 109.39697266 C-170.86147865 94.68979432 -161.66858221 80.98852457 -150.75 68.375 C-150.05648437 67.570625 -149.36296875 66.76625 -148.6484375 65.9375 C-146.39004446 63.37525045 -144.0848964 60.86775889 -141.75 58.375 C-141.29173828 57.88273926 -140.83347656 57.39047852 -140.36132812 56.88330078 C-112.49599248 27.19543156 -74.64872391 8.70015602 -34.51171875 2.78466797 C-32.54228978 2.49252672 -30.57635535 2.17640851 -28.61328125 1.84423828 C-19.03936391 0.30400273 -9.67120799 -0.02246274 0 0 Z " fill="#D9E03A" transform="translate(873.75,1906.625)"/>
<path d="M0 0 C186.30150754 0 186.30150754 0 247 47 C247.5367334 47.41330566 248.0734668 47.82661133 248.62646484 48.25244141 C271.06042604 65.73029163 284.96370813 89.66024653 288.53125 117.98046875 C291.5718343 147.11364295 286.52312018 175.87081285 268.625 199.625 C267.42874199 201.09325486 266.219999 202.55141172 265 204 C264.35675781 204.78890625 263.71351563 205.5778125 263.05078125 206.390625 C224.33102294 251.9096015 151.95854161 261.39211458 96.03027344 266.35205078 C64.01562863 268.91370953 32.17085742 269 0 269 C0 180.23 0 91.46 0 0 Z " fill="#0A776C" transform="translate(3013,1980)"/>
<path d="M0 0 C2.07349642 -0.0096509 4.14597534 -0.0407406 6.21923828 -0.07226562 C19.00441735 -0.17510388 31.09136244 1.85359588 43.09814453 6.42773438 C44.29697266 6.87947021 44.29697266 6.87947021 45.52001953 7.34033203 C75.56300193 19.09549416 95.21804334 45.40408031 108.08862305 73.93920898 C133.10204637 131.56105031 135.75799311 196.49478333 137.47314453 258.24023438 C48.70314453 258.24023438 -40.06685547 258.24023438 -131.52685547 258.24023438 C-131.52685547 223.68764501 -131.52685547 223.68764501 -130.65185547 212.86523438 C-130.5594458 211.62725098 -130.46703613 210.38926758 -130.37182617 209.11376953 C-130.18482167 206.63536206 -129.99305744 204.15730785 -129.79589844 201.6796875 C-129.55107162 198.54981441 -129.33260307 195.41959898 -129.12451172 192.28710938 C-125.23122825 136.49295717 -115.39860327 73.95774109 -76.52685547 31.24023438 C-75.89650391 30.51578125 -75.26615234 29.79132813 -74.61669922 29.04492188 C-55.19422793 7.95766734 -27.73924103 0.07764658 0 0 Z " fill="#0A776C" transform="translate(3646.52685546875,1973.759765625)"/>
<path d="M0 0 C1.16402344 0.06018311 1.16402344 0.06018311 2.3515625 0.12158203 C28.05270569 1.72790348 52.06208763 13.94050357 69.7578125 32.4140625 C97.41943051 64.31648606 109.69598902 106.42520196 115.86523438 147.45068359 C116.25413432 150.02739248 116.65770325 152.60152694 117.0625 155.17578125 C117.31857707 156.84622122 117.57381629 158.5167899 117.828125 160.1875 C117.94681946 160.9407959 118.06551392 161.6940918 118.18780518 162.47021484 C119.73064861 172.90694344 119.73064861 172.90694344 119 178 C116.97507476 180.23633669 115.6849826 181.3205106 113.1875 182.8125 C112.5680249 183.21718506 111.9485498 183.62187012 111.31030273 184.03881836 C109.224937 185.3899184 107.11339967 186.69326283 105 188 C103.45391858 188.99197535 101.90969362 189.98684919 100.3671875 190.984375 C95.61098471 194.04339409 90.81445076 197.03367711 86 200 C85.33323242 200.41137207 84.66646484 200.82274414 83.97949219 201.24658203 C23.92984755 238.14660864 -40.58722893 263.66235107 -110 276 C-111.46566406 276.26321045 -111.46566406 276.26321045 -112.9609375 276.53173828 C-123.65430218 278.42698822 -134.17002423 279.40076834 -145 280 C-144.87941317 273.72754632 -144.75509276 267.45518018 -144.62768555 261.18286133 C-144.585056 259.06048462 -144.5433512 256.93808908 -144.50268555 254.81567383 C-144.08033556 232.83783178 -143.32635731 210.95233961 -141.25 189.0625 C-141.16385437 188.14477814 -141.07770874 187.22705627 -140.98895264 186.28152466 C-135.56009264 129.07011915 -124.86728551 60.93041013 -78.1875 21.75 C-55.04931661 4.11217716 -28.60132589 -1.53581063 0 0 Z " fill="#0A776C" transform="translate(1879,1973)"/>
<path d="M0 0 C0.96164063 0.00878174 1.92328125 0.01756348 2.9140625 0.02661133 C10.45374487 0.24248568 16.63208341 1.54626293 23.125 5.5625 C24.03378906 6.10390625 24.03378906 6.10390625 24.9609375 6.65625 C32.96170624 12.3420755 36.91363495 23.41085079 39.125 32.5625 C40.07085623 38.93798251 40.30971836 45.28609091 40.36328125 51.72265625 C40.371353 52.67079697 40.37942474 53.61893768 40.38774109 54.59580994 C40.4014918 56.59339622 40.4122537 58.59100511 40.42016602 60.58862305 C40.43165087 62.60041354 40.45204682 64.61217441 40.48168945 66.6237793 C40.74159703 84.32217847 40.07598038 103.17810459 27.375 116.9375 C19.91822946 123.86363893 10.50644129 126.50107436 0.47265625 126.59765625 C-11.4978426 126.1073561 -19.60480295 123.35723386 -27.875 114.5625 C-37.82915005 102.81522361 -38.99384238 87.90561089 -39.11328125 73.1484375 C-39.121353 72.17572906 -39.12942474 71.20302063 -39.13774109 70.20083618 C-39.15149342 68.15197484 -39.16225461 66.10309144 -39.17016602 64.05419922 C-39.18166265 61.98707217 -39.2020775 59.91997426 -39.23168945 57.85302734 C-39.47674684 40.69353381 -38.95211374 23.18158588 -27.0625 9.47265625 C-19.35939053 2.12674742 -10.41737912 -0.16551489 0 0 Z " fill="#D6DF3A" transform="translate(2687.875,2791.4375)"/>
<path d="M0 0 C0.94746094 -0.02900391 1.89492187 -0.05800781 2.87109375 -0.08789062 C11.62191437 -0.1657023 19.70025211 2.25506959 26.71484375 7.64453125 C32.65795422 13.6156093 36.31388713 21.24351497 38.375 29.3125 C38.55329346 30.00142334 38.73158691 30.69034668 38.9152832 31.40014648 C40.89454148 40.49564758 40.74715893 49.68989775 40.74560547 58.95239258 C40.74995417 61.84452326 40.78629434 64.73509357 40.82421875 67.62695312 C40.93112339 85.21939457 39.5088151 103.68691119 27 117.25 C19.15643349 124.50225551 10.95596393 125.52319765 0.6875 125.625 C-0.26833984 125.65400391 -1.22417969 125.68300781 -2.20898438 125.71289062 C-12.10929989 125.80062348 -20.51767511 122.28459038 -27.625 115.3125 C-36.7623154 103.49518678 -38.77510706 89.62631753 -38.79296875 75.14453125 C-38.79629715 74.18786057 -38.79962555 73.23118988 -38.80305481 72.24552917 C-38.80809412 70.22936479 -38.81046407 68.21319216 -38.81030273 66.19702148 C-38.81248113 63.15138602 -38.8306469 60.10611805 -38.84960938 57.06054688 C-38.9019925 39.41520124 -38.79479802 21.77047103 -25.8125 8.22265625 C-17.78181593 1.2101482 -10.28967094 0.10248676 0 0 Z " fill="#D6DF3A" transform="translate(2440.625,2791.6875)"/>
<path d="M0 0 C1.5768457 -0.0309375 1.5768457 -0.0309375 3.18554688 -0.0625 C15.85399967 -0.12556635 27.16161933 4.30247224 36.3125 13.25 C43.34619319 22.07659538 45.3125 28.94701424 45.3125 40.25 C38.3825 40.25 31.4525 40.25 24.3125 40.25 C24.250625 38.579375 24.18875 36.90875 24.125 35.1875 C23.50462786 28.6652091 21.6939953 25.18587189 16.80078125 20.9375 C9.58053628 16.26462236 -1.24387744 17.2981527 -9.390625 18.72265625 C-14.25420478 20.27269027 -17.06796878 22.96349437 -19.6875 27.25 C-20.93803499 31.58415233 -21.0062769 35.08874129 -19.8125 39.4375 C-12.9150806 48.56643745 -1.27747484 51.17985984 9.16015625 54.4609375 C22.49000128 58.69011227 34.75366953 63.81232551 42.26953125 76.125 C46.23158019 84.19748922 46.71609196 92.90507168 44.4375 101.58203125 C40.36401875 112.23472071 34.53980397 117.04277799 24.47265625 121.98828125 C11.47094069 127.17932467 -7.13776374 128.02163122 -20.15234375 122.578125 C-32.70479657 116.00210965 -40.22099977 109.12952566 -44.9375 95.6875 C-45.6875 92.25 -45.6875 92.25 -45.6875 85.25 C-38.7575 85.25 -31.8275 85.25 -24.6875 85.25 C-24.419375 86.961875 -24.15125 88.67375 -23.875 90.4375 C-22.56725681 97.45019467 -22.56725681 97.45019467 -17.890625 102.6171875 C-11.29868869 107.00355113 -5.5668937 107.44906802 2.1875 107.5 C2.96480469 107.520625 3.74210937 107.54125 4.54296875 107.5625 C10.88527827 107.60513737 15.63544823 106.49293527 20.625 102.3125 C24.03221963 98.14812046 24.76895817 94.79311912 24.62109375 89.49609375 C24.12395757 85.87769749 22.74289471 83.92966596 20.3125 81.25 C17.9480723 79.67371487 15.84861003 78.45237886 13.3125 77.25 C12.66539063 76.92257813 12.01828125 76.59515625 11.3515625 76.2578125 C6.78519315 74.06799225 2.19390978 72.59514629 -2.6875 71.25 C-8.31568026 69.69635626 -13.48644483 67.89443893 -18.6875 65.25 C-19.44675781 64.86972656 -20.20601562 64.48945313 -20.98828125 64.09765625 C-30.5725758 59.05583407 -37.02654349 53.0924596 -41 42.875 C-42.7987354 33.39075882 -41.65567801 25.55031787 -36.9375 17.125 C-27.00693042 4.43593887 -15.7487132 0.07585172 0 0 Z " fill="#D5DE3B" transform="translate(1934.6875,2791.75)"/>
<path d="M0 0 C26.07 0 52.14 0 79 0 C79 5.61 79 11.22 79 17 C59.53 17 40.06 17 20 17 C20 28.22 20 39.44 20 51 C36.83 51 53.66 51 71 51 C71 56.61 71 62.22 71 68 C54.17 68 37.34 68 20 68 C20 80.54 20 93.08 20 106 C39.47 106 58.94 106 79 106 C79 111.61 79 117.22 79 123 C52.93 123 26.86 123 0 123 C0 82.41 0 41.82 0 0 Z " fill="#D9E03A" transform="translate(1772,2793)"/>
<path d="M0 0 C7.14457627 5.06847375 11.16828229 11.05308521 13.53125 19.45703125 C15.4519411 37.10717157 8.14711684 50.27487408 -2.53125 63.70703125 C-8.00723639 70.2464971 -13.88345999 76.41508004 -19.73632812 82.61572266 C-22.37484957 85.42008127 -24.9882791 88.24698176 -27.59375 91.08203125 C-28.44195313 92.00242187 -29.29015625 92.9228125 -30.1640625 93.87109375 C-32.35167762 96.32567208 -34.41478397 98.88957371 -36.46875 101.45703125 C-17.98875 101.45703125 0.49125 101.45703125 19.53125 101.45703125 C19.53125 107.06703125 19.53125 112.67703125 19.53125 118.45703125 C-7.85875 118.45703125 -35.24875 118.45703125 -63.46875 118.45703125 C-63.46875 104.45703125 -63.46875 104.45703125 -60.65234375 100.08984375 C-59.43746161 98.8854758 -58.18713136 97.71595528 -56.90625 96.58203125 C-55.6062401 95.31825405 -54.30675405 94.05393775 -53.0078125 92.7890625 C-52.38680664 92.20850098 -51.76580078 91.62793945 -51.12597656 91.02978516 C-49.21082198 89.21225042 -47.47962813 87.29001557 -45.78125 85.26953125 C-42.91189652 81.93526986 -39.94848147 78.69242458 -36.96875 75.45703125 C-33.38146531 71.5558968 -29.80181538 67.65295433 -26.34765625 63.6328125 C-24.85488598 61.90417833 -23.33612027 60.19799938 -21.80859375 58.5 C-12.57284239 48.11819507 -6.77600195 39.21847475 -6.8671875 24.90234375 C-7.68330755 20.22820166 -9.56500137 17.04278178 -13.22265625 13.99609375 C-19.50729047 10.81984233 -26.01393853 10.06629712 -32.80859375 12.1875 C-38.5325791 14.7990017 -41.97746632 18.6855574 -44.46875 24.45703125 C-44.91939632 27.04235826 -44.91939632 27.04235826 -45.09375 29.70703125 C-45.2175 31.27453125 -45.34125 32.84203125 -45.46875 34.45703125 C-52.06875 34.45703125 -58.66875 34.45703125 -65.46875 34.45703125 C-65.12000058 26.17423253 -64.58129743 19.69452512 -60.46875 12.45703125 C-59.89125 11.42578125 -59.31375 10.39453125 -58.71875 9.33203125 C-45.14726152 -8.00931515 -18.6046009 -11.62787557 0 0 Z " fill="#D5DE3B" transform="translate(2341.46875,2797.54296875)"/>
<path d="M0 0 C2.82044375 2.40522582 4.94850556 4.9199011 7 8 C7.64775391 8.96486328 7.64775391 8.96486328 8.30859375 9.94921875 C12.74169398 18.00242851 12.10916284 27.96610712 10.1875 36.6875 C6.31235264 48.743514 -1.08995708 58.3392837 -9.6640625 67.48828125 C-11.58570831 69.55453252 -13.44476365 71.65014839 -15.29296875 73.78125 C-19.61217346 78.73825573 -24.13259631 83.49586212 -28.65820312 88.26367188 C-29.29048828 88.93333984 -29.92277344 89.60300781 -30.57421875 90.29296875 C-31.13713623 90.8861792 -31.70005371 91.47938965 -32.2800293 92.09057617 C-34.28115742 94.31212664 -36.13219312 96.6652414 -38 99 C-19.85 99.33 -1.7 99.66 17 100 C17 105.61 17 111.22 17 117 C-10.06 117 -37.12 117 -65 117 C-65 102 -65 102 -61.96484375 97.31640625 C-60.65936682 96.0265794 -59.31564009 94.77438003 -57.9375 93.5625 C-56.61203596 92.29426896 -55.28781338 91.02473915 -53.96484375 89.75390625 C-53.30403809 89.14047363 -52.64323242 88.52704102 -51.96240234 87.89501953 C-49.34417989 85.36669872 -46.99033207 82.65220804 -44.62329102 79.89038086 C-42.31235831 77.19921648 -39.90721126 74.60545219 -37.5 72 C-31.20382994 65.14640104 -25.10711322 58.22090072 -19.3125 50.9375 C-18.8484375 50.3595166 -18.384375 49.7815332 -17.90625 49.18603516 C-11.3764953 40.89446984 -7.88576057 33.73868432 -9 23 C-10.29173856 18.25265509 -12.55139838 14.93677245 -16.5 12 C-21.77022698 9.09940866 -27.15455198 9.15146722 -33 10 C-38.3661146 11.6377103 -41.96281573 14.21059404 -45 19 C-47.52217548 23.7788588 -47.3474472 27.1270248 -48 33 C-54.27 33 -60.54 33 -67 33 C-67.43667986 21.50076362 -65.54120734 12.9643853 -58 4 C-41.85453493 -11.17497263 -18.27846465 -11.62706285 0 0 Z " fill="#D6DF3A" transform="translate(2591,2799)"/>
<path d="M0 0 C31.68 0 63.36 0 96 0 C96 5.61 96 11.22 96 17 C83.46 17 70.92 17 58 17 C58 51.98 58 86.96 58 123 C51.4 123 44.8 123 38 123 C38 88.02 38 53.04 38 17 C25.46 17 12.92 17 0 17 C0 11.39 0 5.78 0 0 Z " fill="#D8E03A" transform="translate(2016,2793)"/>
<path d="M0 0 C5.92039863 3.12775777 8.38581239 8.12285916 10.6953125 14.21875 C11.62356905 17.32292838 11.83188294 20.12783188 11.85644531 23.36352539 C11.86605286 24.38881851 11.8756604 25.41411163 11.88555908 26.47047424 C11.88980896 27.57463181 11.89405884 28.67878937 11.8984375 29.81640625 C11.90413757 30.96104843 11.90983765 32.10569061 11.91571045 33.28501892 C11.92515729 35.71010414 11.93169318 38.13520218 11.93554688 40.56030273 C11.94521187 44.24290905 11.97622234 47.92494747 12.0078125 51.60742188 C12.01434704 53.9687467 12.01959574 56.33007551 12.0234375 58.69140625 C12.0357843 59.7813942 12.0481311 60.87138214 12.06085205 61.99440002 C12.03468414 71.12678166 11.05740848 81.16885986 4.6953125 88.21875 C-0.15069858 91.80547282 -4.93513283 92.8871944 -10.9140625 92.59375 C-15.57741029 91.86224446 -18.62222501 90.12584644 -21.73828125 86.59375 C-29.64127223 75.33726434 -28.7766768 61.36735636 -28.69580078 48.2644043 C-28.6797046 45.15954775 -28.69571908 42.05598916 -28.71484375 38.95117188 C-28.71286135 36.94530968 -28.70901773 34.93944827 -28.703125 32.93359375 C-28.70919769 32.0218187 -28.71527039 31.11004364 -28.7215271 30.17063904 C-28.62331902 21.01715459 -26.82683241 11.68110798 -21.3046875 4.21875 C-15.22339654 -1.44463234 -7.8565067 -2.66322261 0 0 Z " fill="#0C786C" transform="translate(2696.3046875,2808.78125)"/>
<path d="M0 0 C5.86309125 3.17165317 8.44613421 8.11002261 10.67578125 14.234375 C11.47081824 17.63671002 11.80916144 20.80295219 11.83691406 24.29321289 C11.84652161 25.27516129 11.85612915 26.25710968 11.86602783 27.26881409 C11.87027771 28.32092575 11.87452759 29.37303741 11.87890625 30.45703125 C11.88460632 31.55349472 11.8903064 32.64995819 11.8961792 33.77964783 C11.90561647 36.10040324 11.91215812 38.42117197 11.91601562 40.74194336 C11.92567953 44.25984717 11.95669859 47.77715609 11.98828125 51.29492188 C11.9948162 53.55728822 12.00006474 55.81965872 12.00390625 58.08203125 C12.01625305 59.1199733 12.02859985 60.15791534 12.0413208 61.22731018 C12.0109076 71.40200574 10.93347421 81.25429566 3.4921875 88.7421875 C-0.79300859 92.26249913 -5.63070914 92.77002598 -11.01953125 92.59765625 C-15.26002961 91.92923871 -18.26175354 90.21660094 -21.32421875 87.234375 C-27.47306367 78.27641311 -28.63547712 68.31484913 -28.625 57.71484375 C-28.62928513 56.73502029 -28.63357025 55.75519684 -28.63798523 54.74568176 C-28.6436961 52.68422209 -28.6442529 50.62274227 -28.63989258 48.5612793 C-28.63673797 45.44088623 -28.66021477 42.32144777 -28.68554688 39.20117188 C-28.76887369 12.99279258 -28.76887369 12.99279258 -21.32421875 4.234375 C-15.22967481 -1.26557929 -7.89499214 -2.60070329 0 0 Z " fill="#0B776C" transform="translate(2449.32421875,2808.765625)"/>
<path d="M0 0 C3.00197464 1.80118478 4.45166366 2.90332732 6 6 C6.53118173 9.79415519 6.85089348 13.46331178 4.953125 16.890625 C3.17889137 19.0405787 1.50728754 20.74635623 -1 22 C-5.61020349 22.38418362 -8.12586046 22.38850646 -12.375 20.5 C-15.75873692 17.27739341 -16.73213663 14.62510747 -17 10 C-16.35792182 6.66119344 -15.30996006 4.51210792 -13.5625 1.625 C-9.3294137 -1.05939619 -4.85893533 -0.73423912 0 0 Z " fill="#D5DE3B" transform="translate(2152,2895)"/>
</svg>
