<?xml version="1.0" encoding="UTF-8"?>
<svg version="1.1" xmlns="http://www.w3.org/2000/svg" width="4501" height="4501">
<path d="M0 0 C0.6823597 0.02553955 1.36471939 0.0510791 2.06775665 0.07739258 C84.99350135 3.19203257 167.90325247 9.49145195 791 134 C791.9758606 134.31110718 792.95172119 134.62221436 793.95715332 134.94274902 C824.52235216 144.69575752 854.86470323 154.98909315 885 166 C885.85084167 166.3106842 886.70168335 166.62136841 887.57830811 166.94146729 C957.77222559 192.60784309 1026.51241755 221.95330891 1093.80224609 254.45996094 C1097.16232635 256.07817641 1100.52785159 257.68462555 1103.89453125 259.2890625 C1115.42769995 264.79417034 1126.88029126 270.38792906 1138.1484375 276.41796875 C1141.72022258 278.32913476 1145.31131067 280.19864611 1148.9140625 282.05078125 C1160.25782232 287.88554727 1171.47900308 293.87113153 1182.5546875 300.20117188 C1188.02122646 303.3243728 1193.51511733 306.38067761 1199.05908203 309.36425781 C1211.78586013 316.21376314 1224.20916197 323.53478229 1236.60400391 330.96533203 C1239.93433938 332.96066027 1243.26931472 334.94801274 1246.60546875 336.93359375 C1258.32479327 343.91989209 1269.95798288 351.01881984 1281.45068359 358.37207031 C1284.28156049 360.17979748 1287.11917616 361.97668634 1289.95703125 363.7734375 C1303.8312736 372.57795553 1317.48949995 381.64804426 1331 391 C1331.95680664 391.66032227 1332.91361328 392.32064453 1333.89941406 393.00097656 C1353.19031556 406.31890955 1372.11572812 420.00293625 1390.72216797 434.26123047 C1393.61147934 436.46676912 1396.52168113 438.64213682 1399.4375 440.8125 C1414.48529714 452.07174284 1429.11254293 463.9243467 1443.41381836 476.11499023 C1446.77888283 478.98082743 1450.18647553 481.7854173 1453.625 484.5625 C1458.38520053 488.43579272 1462.92804784 492.50759992 1467.4453125 496.66015625 C1469.62697815 498.65834848 1471.83011309 500.62148889 1474.0625 502.5625 C1477.9005737 505.90029525 1481.68233796 509.29781507 1485.45703125 512.70703125 C1487.05401811 514.14701787 1488.65499983 515.58259916 1490.26171875 517.01171875 C1504.22653824 529.4591385 1517.64460054 542.47709915 1530.8515625 555.72119141 C1533.15509127 558.03016236 1535.46403136 560.33362777 1537.7734375 562.63671875 C1539.26855047 564.13249141 1540.76335381 565.62857364 1542.2578125 567.125 C1542.93393585 567.79909912 1543.6100592 568.47319824 1544.30667114 569.16772461 C1548.16596237 573.04586691 1551.84390103 577.02578228 1555.3991394 581.18505859 C1557.03151767 583.03573248 1558.73826157 584.77273298 1560.5 586.5 C1563.51413582 589.46735323 1566.29917333 592.57345292 1569.05859375 595.77734375 C1571.28804061 598.32976883 1573.58001382 600.81887514 1575.875 603.3125 C1579.92521292 607.75250784 1583.75534122 612.31934281 1587.52734375 616.99609375 C1590.40883633 620.49667478 1593.38744562 623.90257325 1596.375 627.3125 C1601.98644643 633.74238376 1607.31759539 640.34182856 1612.52832031 647.09863281 C1614.1110899 649.14352491 1615.70679524 651.1778432 1617.3046875 653.2109375 C1647.70418235 691.95287772 1675.18778877 732.88541196 1699 776 C1699.81235107 777.46808105 1699.81235107 777.46808105 1700.64111328 778.96582031 C1740.70045086 851.56519005 1769.02373447 929.47836012 1791.23828125 1069.98828125 C1791.33315575 1071.00051758 1791.33315575 1071.00051758 1791.4299469 1072.03320312 C1792.56898414 1084.7821329 1793.15993882 1097.48468321 1793.203125 1110.28515625 C1793.21015159 1111.70303882 1793.21723837 1113.1209211 1793.22438049 1114.5388031 C1793.24377411 1119.04670674 1793.2488153 1123.55455884 1793.25 1128.0625 C1793.25044186 1128.83185883 1793.25088371 1129.60121765 1793.25133896 1130.39389038 C1793.25865659 1154.70806 1792.83692886 1178.82601745 1790 1203 C1789.91278687 1203.75728394 1789.82557373 1204.51456787 1789.73571777 1205.2947998 C1781.01912607 1280.60505618 1760.50546753 1352.99173613 1692 1496 C1691.00858244 1497.70113442 1690.01716519 1499.40226903 1689.02575684 1501.10340881 C1677.45114539 1520.91840703 1664.93800285 1540.05218924 1652 1559 C1651.37867187 1559.91120605 1650.75734375 1560.82241211 1650.1171875 1561.76123047 C1642.4000095 1573.02243858 1634.11989496 1583.8524434 1625.79345703 1594.66748047 C1624.26107308 1596.66045573 1622.73546434 1598.65820448 1621.21484375 1600.66015625 C1612.43486704 1612.18119886 1603.27868296 1623.4002021 1593.87866211 1634.42016602 C1591.07022071 1637.71587481 1588.3334109 1641.05937295 1585.625 1644.4375 C1581.54908898 1649.45175024 1577.21147206 1654.18042287 1572.77978516 1658.87866211 C1570.02999596 1661.79576652 1567.33395051 1664.74366546 1564.70776367 1667.77294922 C1552.59793045 1681.64079917 1539.53654431 1694.62440266 1526.5090332 1707.62133789 C1524.03271457 1710.09189645 1521.56100308 1712.5670086 1519.09053135 1715.04341221 C1516.68909546 1717.44935353 1514.28383299 1719.85145426 1511.87890625 1722.25390625 C1510.56775597 1723.56809288 1510.56775597 1723.56809288 1509.2301178 1724.90882874 C1504.83917023 1729.28313839 1500.38424365 1733.51120122 1495.6839447 1737.55186462 C1493.73973012 1739.22382328 1491.86124682 1740.95513554 1490 1742.71875 C1489.34 1743.34136719 1488.68 1743.96398438 1488 1744.60546875 C1487.34 1745.23066406 1486.68 1745.85585937 1486 1746.5 C1480.76751286 1751.4565552 1475.45857938 1756.29312585 1470 1761 C1469.15066895 1761.73259033 1469.15066895 1761.73259033 1468.28417969 1762.47998047 C1466.65013641 1763.88525769 1465.01324268 1765.28712127 1463.375 1766.6875 C1459.7337043 1769.80023641 1456.09411282 1772.91435455 1452.4765625 1776.0546875 C1446.25762379 1781.4424554 1439.95904845 1786.67486271 1433.45654297 1791.71728516 C1428.76642892 1795.3642867 1424.19147726 1799.137363 1419.625 1802.9375 C1412.99727686 1808.43420475 1406.22426572 1813.67473236 1399.3046875 1818.796875 C1395.20741959 1821.83174544 1391.15859312 1824.92770486 1387.11132812 1828.02880859 C1378.76583867 1834.42195389 1370.37827632 1840.72087149 1361.77050781 1846.75634766 C1359.81918009 1848.12701277 1357.87414534 1849.5063264 1355.9296875 1850.88671875 C1333.00050988 1867.15040726 1309.6888773 1882.86294225 1286 1898 C1284.95392578 1898.67047363 1284.95392578 1898.67047363 1283.88671875 1899.35449219 C1246.48251865 1923.29655 1207.92002781 1945.326476 1168.86279297 1966.44726562 C1165.95683195 1968.02341368 1163.05845994 1969.61294751 1160.16015625 1971.203125 C1128.56063269 1988.43721064 1096.24467546 2004.6085953 1063.44628906 2019.43505859 C1059.54693317 2021.20573522 1055.65988696 2023.00201111 1051.7734375 2024.80078125 C990.13289261 2053.28833658 926.96039765 2078.23748414 863 2101 C862.00097656 2101.35555969 861.00195312 2101.71111938 859.97265625 2102.07745361 C756.09377094 2138.98972848 649.63527778 2168.42731242 2.125 2259.1875 C0.68392883 2259.24289444 0.68392883 2259.24289444 -0.78625488 2259.29940796 C-6.69496213 2259.52162333 -12.60420134 2259.7150334 -18.5144043 2259.89285278 C-21.62366788 2259.98843155 -24.73259628 2260.09182308 -27.8415699 2260.19631004 C-59.4100219 2261.23761029 -90.98917006 2261.20074482 -122.57099199 2261.18822432 C-124.76550717 2261.18749485 -126.96002191 2261.18724804 -129.1545372 2261.1871376 C-171.28418413 2261.18390728 -213.37116159 2261.04388508 -255.46765137 2259.15496826 C-259.08780279 2258.99614799 -262.70827484 2258.85007035 -266.32910156 2258.70751953 C-354.22207444 2255.22916764 -442.0407657 2247.91315622 -1079.52246094 2113.515625 C-1083.37826562 2112.20793971 -1087.23919319 2110.91603018 -1091.10125732 2109.62696838 C-1158.39165301 2087.14531138 -1224.72206655 2061.10857895 -1289.28857422 2031.68798828 C-1292.533899 2030.20975134 -1295.78498458 2028.74457792 -1299.03717041 2027.2815094 C-1321.83973561 2017.01616329 -1344.34141257 2006.17531851 -1366.76257324 1995.10406494 C-1368.83589997 1994.08097565 -1370.91034161 1993.06019744 -1372.98535156 1992.04052734 C-1385.85683729 1985.71253195 -1398.56309893 1979.15892834 -1411.1171875 1972.22265625 C-1415.45383479 1969.83263181 -1419.81654166 1967.49529857 -1424.1953125 1965.18359375 C-1439.15805881 1957.2798199 -1453.88946552 1949.1074269 -1468.45800781 1940.48974609 C-1472.02632806 1938.39851577 -1475.63398006 1936.38221696 -1479.25 1934.375 C-1495.90352516 1925.08325077 -1512.04864625 1914.92099848 -1528.18554688 1904.76806641 C-1530.7189469 1903.17656025 -1533.25681732 1901.59256762 -1535.796875 1900.01171875 C-1561.09868774 1884.2177976 -1585.7080571 1867.29831111 -1610 1850 C-1610.71381836 1849.49243164 -1611.42763672 1848.98486328 -1612.16308594 1848.46191406 C-1622.92326624 1840.79679686 -1633.47647475 1832.88509956 -1643.9609375 1824.84765625 C-1647.71527864 1821.9719756 -1651.49597792 1819.13596473 -1655.296875 1816.32226562 C-1662.29797757 1811.13444862 -1669.07409643 1805.72620877 -1675.77075195 1800.15112305 C-1680.26461618 1796.41219898 -1684.81631709 1792.76750418 -1689.4375 1789.1875 C-1694.34613844 1785.37533306 -1699.00571533 1781.38238426 -1703.58203125 1777.171875 C-1706.11389197 1774.89769962 -1708.72358588 1772.75823476 -1711.375 1770.625 C-1716.52192057 1766.4608719 -1721.38274706 1762.0491621 -1726.234375 1757.55078125 C-1728.44055947 1755.51598117 -1730.66632261 1753.52353762 -1732.9375 1751.5625 C-1738.04160638 1747.13331678 -1742.9786652 1742.51936868 -1747.92480469 1737.91552734 C-1749.45291126 1736.50499509 -1750.99162545 1735.10593338 -1752.53613281 1733.71337891 C-1762.82367058 1724.39803095 -1772.59572622 1714.55744202 -1782.39501953 1704.73535156 C-1784.88921754 1702.23541788 -1787.38793521 1699.74005719 -1789.88797569 1697.24596786 C-1791.84251009 1695.29507161 -1793.79462658 1693.34176982 -1795.74605179 1691.38776398 C-1797.10665245 1690.02618995 -1798.4692347 1688.66659699 -1799.83187866 1687.30706787 C-1804.20709048 1682.9154069 -1808.45250988 1678.47176206 -1812.48016357 1673.75794983 C-1815.17590219 1670.63986873 -1818.04004281 1667.67845147 -1820.875 1664.6875 C-1825.7652533 1659.49241316 -1830.40429718 1654.18647242 -1834.859375 1648.609375 C-1837.15120465 1645.81568484 -1839.55231812 1643.15791222 -1842 1640.5 C-1846.89379479 1635.17019892 -1851.46020517 1629.63164422 -1856 1624 C-1857.00934094 1622.76994984 -1858.01982598 1621.5408379 -1859.03125 1620.3125 C-1866.10277812 1611.70539744 -1872.89771271 1602.93513275 -1879.52490234 1593.98242188 C-1880.98046436 1592.02625445 -1882.45023189 1590.08174836 -1883.92578125 1588.140625 C-1933.66155493 1522.62751736 -1975.1067931 1449.4725413 -2043 1203 C-2043.0835675 1202.28072327 -2043.16713501 1201.56144653 -2043.25323486 1200.82037354 C-2048.68641114 1153.74849307 -2048.39627652 1104.0564677 -2043 1057 C-2042.8265659 1055.4394636 -2042.65322821 1053.87891648 -2042.47998047 1052.31835938 C-2032.50277858 963.80096295 -2005.01706354 879.62379609 -1949.45458984 771.54638672 C-1948.19657054 769.34411392 -1946.95934052 767.1330531 -1945.73828125 764.91015625 C-1917.3959575 713.32927315 -1881.53952416 665.42774522 -1843.45019531 620.70458984 C-1841.98196961 618.97880671 -1840.51826467 617.24925728 -1839.0546875 615.51953125 C-1833.55809804 609.043592 -1827.95141254 602.6996099 -1822.15966797 596.48583984 C-1819.44776533 593.57605377 -1816.7836796 590.63842275 -1814.1875 587.625 C-1811.53722031 584.55760608 -1808.73210445 581.70804605 -1805.83863831 578.87107849 C-1804.07778172 577.07915407 -1802.44246229 575.23127544 -1800.81225586 573.32055664 C-1796.89241019 568.81465641 -1792.73133396 564.58708283 -1788.50390625 560.37109375 C-1787.31534279 559.1810952 -1787.31534279 559.1810952 -1786.10276794 557.96705627 C-1784.43749717 556.30110919 -1782.77097971 554.63640744 -1781.10327148 552.97290039 C-1778.56965378 550.44463866 -1776.04141833 547.91108339 -1773.51367188 545.37695312 C-1771.88573717 543.7496793 -1770.25749225 542.12271575 -1768.62890625 540.49609375 C-1767.88282608 539.74798935 -1767.13674591 538.99988495 -1766.36805725 538.22911072 C-1762.30222376 534.18113774 -1758.15358933 530.29866107 -1753.78843689 526.57435608 C-1751.94549665 524.95202085 -1750.21859461 523.25282578 -1748.5 521.5 C-1745.55399785 518.50765625 -1742.47016993 515.74675828 -1739.2890625 513.0078125 C-1737.06435528 511.05644815 -1734.88846735 509.05831544 -1732.71923828 507.0456543 C-1727.53525919 502.23762523 -1722.22549875 497.68149899 -1716.71484375 493.24609375 C-1713.89326505 490.9116941 -1711.19409288 488.48009402 -1708.5 486 C-1703.17375463 481.10499893 -1697.63132248 476.53723697 -1692 472 C-1690.24908206 470.56361822 -1688.49909317 469.12610326 -1686.75 467.6875 C-1675.11284969 458.17668452 -1663.32811987 448.88682992 -1651.35986328 439.79638672 C-1648.81740967 437.86100769 -1646.28136802 435.91742924 -1643.74609375 433.97265625 C-1634.51652406 426.90036749 -1625.26061969 419.89764866 -1615.73974609 413.22167969 C-1613.88103729 411.91646234 -1612.0280241 410.60343808 -1610.17578125 409.2890625 C-1606.60017747 406.75372059 -1603.0175014 404.22861268 -1599.43115234 401.70849609 C-1597.74326722 400.5223322 -1596.05614656 399.33508004 -1594.36962891 398.14697266 C-1580.11264556 388.11278402 -1565.6722305 378.41609146 -1551 369 C-1550.07300293 368.40445312 -1549.14600586 367.80890625 -1548.19091797 367.1953125 C-1541.81140759 363.10241703 -1535.41330604 359.0397192 -1529 355 C-1528.17951172 354.4829248 -1527.35902344 353.96584961 -1526.51367188 353.43310547 C-1494.08162888 333.04929336 -1460.89680175 313.74897203 -1427.125 295.67578125 C-1423.78715679 293.88586283 -1420.45581848 292.0842042 -1417.125 290.28125 C-1403.06237521 282.68070264 -1388.89414578 275.33244609 -1374.55664062 268.26220703 C-1371.03098368 266.52159909 -1367.51533293 264.76133209 -1364 263 C-1363.38189453 262.6915918 -1362.76378906 262.38318359 -1362.12695312 262.06542969 C-1358.3019544 260.15681357 -1354.48478886 258.23343685 -1350.671875 256.30078125 C-1335.27246487 248.5163076 -1319.70042052 241.15660019 -1304 234 C-1302.8440332 233.47293457 -1301.68806641 232.94586914 -1300.49707031 232.40283203 C-1235.28294261 202.75258002 -1168.65848937 176.51978346 -1101 153 C-1100.0550769 152.67084595 -1099.11015381 152.34169189 -1098.13659668 152.00256348 C-1010.41354383 121.4561764 -920.83772921 96.19463467 0 0 Z M-306.61328125 66.09375 C-307.83114822 66.16307739 -309.0490152 66.23240479 -310.30378723 66.30383301 C-393.05365501 71.09688639 -475.52346198 79.02101076 -1059.284729 206.09814453 C-1061.81702756 206.93922717 -1064.35044391 207.77683615 -1066.88427734 208.61328125 C-1150.31329825 236.20045396 -1231.73391639 270.160664 -1311 308 C-1311.71883362 308.34309204 -1312.43766724 308.68618408 -1313.17828369 309.03967285 C-1342.57706154 323.08464681 -1371.74571402 337.63618848 -1400.23144531 353.46337891 C-1403.31428932 355.17443889 -1406.4031402 356.87438492 -1409.4921875 358.57421875 C-1424.4601831 366.82832923 -1439.29434309 375.28722151 -1454 384 C-1455.01803711 384.60312012 -1456.03607422 385.20624023 -1457.08496094 385.82763672 C-1480.40804792 399.67503654 -1503.35688337 414.06752071 -1526 429 C-1526.72541992 429.47808105 -1527.45083984 429.95616211 -1528.19824219 430.44873047 C-1543.67342818 440.66415529 -1558.89615751 451.24454221 -1574 462 C-1575.07072754 462.76135254 -1575.07072754 462.76135254 -1576.16308594 463.53808594 C-1587.85163488 471.86453541 -1599.30317828 480.48066786 -1610.68359375 489.22265625 C-1612.67066537 490.74730648 -1614.66184082 492.26622262 -1616.65625 493.78125 C-1623.98413665 499.36785665 -1631.14635857 505.13872675 -1638.28125 510.96875 C-1641.23111391 513.37849799 -1644.20180078 515.75970581 -1647.1875 518.125 C-1653.23595306 522.95164535 -1659.11423108 527.97778658 -1665 533 C-1665.58894043 533.50112305 -1666.17788086 534.00224609 -1666.78466797 534.51855469 C-1673.5316444 540.25996335 -1680.22440482 546.04534716 -1686.78515625 552 C-1688.77412502 553.79603529 -1690.78563194 555.55953303 -1692.8125 557.3125 C-1697.39364238 561.30725616 -1701.85092828 565.4348954 -1706.30395508 569.57104492 C-1708.64602225 571.74568575 -1710.99259445 573.91524921 -1713.34350586 576.08032227 C-1722.52686363 584.56436885 -1731.4459532 593.29023818 -1740.2734375 602.14306641 C-1742.52228794 604.39734171 -1744.77652448 606.64613376 -1747.03125 608.89453125 C-1748.48990452 610.3538457 -1749.94824927 611.81346985 -1751.40625 613.2734375 C-1752.06677368 613.93193695 -1752.72729736 614.5904364 -1753.40783691 615.26889038 C-1757.25622191 619.13647681 -1760.91423667 623.11815798 -1764.48065186 627.24707031 C-1766.15466405 629.17844179 -1767.88123107 631.0482081 -1769.6484375 632.89453125 C-1770.2566333 633.53430908 -1770.8648291 634.17408691 -1771.49145508 634.83325195 C-1772.1130249 635.48640381 -1772.73459473 636.13955566 -1773.375 636.8125 C-1778.45735538 642.189015 -1783.28394154 647.6387559 -1787.89453125 653.42578125 C-1790.17200846 656.21030348 -1792.56312008 658.85413803 -1795 661.5 C-1799.89330483 666.82993819 -1804.47388947 672.35715305 -1809 678 C-1809.90061312 679.10842126 -1810.80167508 680.21647793 -1811.703125 681.32421875 C-1819.45708481 690.88993755 -1826.88573101 700.68753086 -1834.2109375 710.58447266 C-1835.31962503 712.08138237 -1836.43107118 713.57625835 -1837.546875 715.06787109 C-1861.34875018 746.90767791 -1882.94528815 780.86968956 -1901.44384766 816.04785156 C-1903.01422173 819.02697979 -1904.60552177 821.99423161 -1906.19921875 824.9609375 C-1944.19290229 896.20196376 -1968.62570396 974.79375084 -1956.11260986 1312.15150452 C-1944.89683874 1348.94168516 -1930.69535275 1384.36562262 -1914 1419 C-1913.52997559 1419.97855957 -1913.05995117 1420.95711914 -1912.57568359 1421.96533203 C-1905.64494563 1436.32098261 -1897.99956822 1450.21521966 -1890 1464 C-1889.46616699 1464.92312988 -1888.93233398 1465.84625977 -1888.38232422 1466.79736328 C-1877.03830884 1486.36898215 -1865.03877416 1505.51038465 -1852 1524 C-1851.59894043 1524.57057129 -1851.19788086 1525.14114258 -1850.78466797 1525.72900391 C-1835.13880175 1547.94779635 -1818.69603807 1569.46735192 -1801.08374023 1590.16430664 C-1798.19106549 1593.56944129 -1795.36185533 1597.01725775 -1792.5625 1600.5 C-1788.69609833 1605.2549105 -1784.61471132 1609.76661645 -1780.42407227 1614.234375 C-1777.8029605 1617.03022755 -1775.23657028 1619.86006059 -1772.7253418 1622.75537109 C-1760.8725046 1636.32385251 -1748.111694 1649.04779528 -1735.36352539 1661.7668457 C-1733.48181232 1663.6449505 -1731.6015196 1665.52433425 -1729.72387695 1667.40649414 C-1726.96573972 1670.17083212 -1724.20413757 1672.93166043 -1721.44140625 1675.69140625 C-1720.61105362 1676.52378311 -1719.78070099 1677.35615997 -1718.92518616 1678.21376038 C-1714.67001396 1682.45199382 -1710.35050615 1686.54825652 -1705.78733826 1690.45420837 C-1702.60391118 1693.2074169 -1699.56242975 1696.11381083 -1696.5 1699 C-1691.4139614 1703.76656537 -1686.30273137 1708.47422561 -1681 1713 C-1679.95548748 1713.8981565 -1678.91124263 1714.79662434 -1677.8671875 1715.6953125 C-1674.84969199 1718.29036709 -1671.82587898 1720.87793095 -1668.79931641 1723.46240234 C-1667.6391774 1724.45379386 -1666.47992905 1725.44622904 -1665.32177734 1726.43994141 C-1658.72144232 1732.10276269 -1652.02699039 1737.60346305 -1645.16235352 1742.94335938 C-1641.35540491 1745.91143498 -1637.63003258 1748.95299888 -1633.9375 1752.0625 C-1628.41085535 1756.69704847 -1622.74128537 1761.11857012 -1616.99804688 1765.47900391 C-1614.70715993 1767.222922 -1612.42386014 1768.97654508 -1610.140625 1770.73046875 C-1585.63657858 1789.52434776 -1560.35276785 1807.17769468 -1534.75 1824.4375 C-1533.81123016 1825.0706311 -1532.87246033 1825.70376221 -1531.90524292 1826.3560791 C-1518.71639316 1835.24221829 -1505.48399909 1844.00394658 -1491.88330078 1852.25146484 C-1489.23553197 1853.85716512 -1486.59376785 1855.47237144 -1483.95379639 1857.09085083 C-1454.30974571 1875.2592411 -1424.20834438 1892.60418871 -1393.57910156 1909.05883789 C-1390.84140082 1910.53679093 -1388.11829048 1912.03981236 -1385.39746094 1913.54858398 C-1371.19354896 1921.40183679 -1356.76801924 1928.7722409 -1342.24365234 1936.00854492 C-1339.03492884 1937.60724148 -1335.82986154 1939.21311659 -1332.62571239 1940.82095718 C-1315.23026997 1949.54512719 -1297.69713234 1957.90460229 -1280 1966 C-1278.48848256 1966.69463539 -1276.97707206 1967.38950357 -1275.46582031 1968.0847168 C-1190.36111957 2007.16212543 -1102.36308518 2040.02493079 -872.05657959 2108.22967529 C-868.9762881 2109.00597592 -865.89743662 2109.78777799 -862.81884766 2110.57080078 C-786.42385685 2129.96948483 -709.09500043 2145.40896553 698 2087 C698.99920471 2086.71056519 699.99840942 2086.42113037 701.02789307 2086.1229248 C783.38632492 2062.25721654 864.71598144 2034.70979398 944 2002 C944.78493835 2001.67640503 945.56987671 2001.35281006 946.37860107 2001.01940918 C1011.63097729 1974.08817555 1076.79727169 1944.93667591 1138.42382812 1910.42480469 C1142.43455042 1908.20659247 1146.48474858 1906.06328202 1150.5300293 1903.90893555 C1163.12901901 1897.18965828 1175.50541593 1890.15451509 1187.79541016 1882.88769531 C1191.22457249 1880.86771336 1194.66376361 1878.86568423 1198.10546875 1876.8671875 C1212.64557097 1868.41525418 1227.02910166 1859.76251079 1241.23242188 1850.75146484 C1243.84096139 1849.10064776 1246.45794246 1847.46428448 1249.078125 1845.83203125 C1261.16245078 1838.26856922 1272.99925152 1830.35262869 1284.8125 1822.375 C1285.58806244 1821.85174133 1286.36362488 1821.32848267 1287.16268921 1820.78936768 C1298.20759709 1813.33074614 1309.14126579 1805.72692802 1320 1798 C1320.88469971 1797.37206543 1321.76939941 1796.74413086 1322.6809082 1796.09716797 C1334.9938456 1787.33473914 1347.01630204 1778.20545299 1359 1769 C1360.24199271 1768.04922466 1361.48415751 1767.09867404 1362.7265625 1766.1484375 C1365.82552137 1763.77567518 1368.91484497 1761.39069581 1372 1759 C1372.5357666 1758.58508301 1373.0715332 1758.17016602 1373.62353516 1757.74267578 C1387.83927743 1746.71357734 1401.67449438 1735.23259042 1415.28955078 1723.47216797 C1417.0401409 1721.9654511 1418.79820348 1720.46790725 1420.55859375 1718.97265625 C1427.19233939 1713.33175306 1433.70722172 1707.5963141 1440.0859375 1701.66796875 C1442.28048045 1699.65875584 1444.49300946 1697.6917551 1446.73901367 1695.74169922 C1460.61318709 1683.61417703 1473.61270902 1670.54826546 1486.62133789 1657.5090332 C1489.09189645 1655.03271457 1491.5670086 1652.56100308 1494.04341221 1650.09053135 C1496.44935353 1647.68909546 1498.85145426 1645.28383299 1501.25390625 1642.87890625 C1502.13003067 1642.00480606 1503.00615509 1641.13070587 1503.90882874 1640.2301178 C1508.27119665 1635.85115739 1512.49944833 1631.41564224 1516.5191803 1626.71893311 C1518.89025373 1623.96659492 1521.38994627 1621.33649535 1523.875 1618.6875 C1528.38862401 1613.84130801 1532.63843014 1608.85012954 1536.78515625 1603.68359375 C1539.12576787 1600.84761459 1541.5709021 1598.14147155 1544.0625 1595.4375 C1547.83107947 1591.33316383 1551.39142646 1587.13926132 1554.83203125 1582.7578125 C1556.41909554 1580.73895234 1558.0185741 1578.73579724 1559.63671875 1576.7421875 C1568.03978097 1566.37035061 1576.06135087 1555.73004981 1584 1545 C1584.53173828 1544.28569824 1585.06347656 1543.57139648 1585.61132812 1542.83544922 C1636.99053771 1473.69005701 1676.85036658 1396.38775246 1730.1875 1130.3125 C1730.18659363 1128.993638 1730.18659363 1128.993638 1730.18566895 1127.64813232 C1730.04449373 1051.00892647 1715.51789874 974.52467323 1667 853 C1666.49388184 851.92218262 1665.98776367 850.84436523 1665.46630859 849.73388672 C1653.10643809 823.51018715 1639.31074497 798.35484452 1624.05645752 773.70935059 C1622.34320499 770.93730423 1620.63971407 768.15925253 1618.93359375 765.3828125 C1612.67787329 755.24466137 1606.31254205 745.28533923 1599.23779297 735.70019531 C1597.89510695 733.85592205 1596.58745465 731.99018689 1595.28515625 730.1171875 C1587.19428938 718.48329727 1578.66506755 707.21106021 1570 696 C1569.46955078 695.31212402 1568.93910156 694.62424805 1568.39257812 693.91552734 C1562.6490504 686.48059554 1556.724969 679.23142149 1550.62109375 672.08984375 C1548.17696666 669.22422306 1545.80304266 666.30594478 1543.4375 663.375 C1539.56187067 658.61192782 1535.48765711 654.06635751 1531.33203125 649.546875 C1529.37594748 647.41058251 1527.45812303 645.25219343 1525.5625 643.0625 C1521.80739656 638.74588576 1517.94041935 634.53407626 1514.06176758 630.32885742 C1512.18201586 628.2887583 1510.31213758 626.24117235 1508.44897461 624.18579102 C1500.27010004 615.2101806 1491.7503232 606.59707837 1483.15332031 598.02294922 C1480.73646008 595.61149034 1478.3250471 593.19467561 1475.9140625 590.77734375 C1474.35448749 589.21842898 1472.7946026 587.65982414 1471.234375 586.1015625 C1470.52585388 585.39101715 1469.81733276 584.6804718 1469.08734131 583.94839478 C1465.11980955 579.99921656 1461.05959868 576.22405086 1456.80230713 572.58822632 C1454.95532477 570.96063137 1453.22313097 569.25749016 1451.5 567.5 C1448.53264677 564.48586418 1445.42654708 561.70082667 1442.22265625 558.94140625 C1439.67023117 556.71195939 1437.18112486 554.41998618 1434.6875 552.125 C1430.1482504 547.98074035 1425.46541704 544.07421602 1420.68359375 540.21484375 C1418.05291443 538.04367173 1415.52057576 535.79758643 1413 533.5 C1407.8249007 528.79536428 1402.43858803 524.39481861 1397 520 C1395.78057483 519.00082343 1394.56186423 518.00077435 1393.34375 517 C1385.13536798 510.2694139 1376.80311294 503.73321071 1368.34765625 497.31640625 C1364.64279683 494.50118132 1360.97615411 491.63997277 1357.31591797 488.76708984 C1348.44742466 481.81257689 1339.40563807 475.14585969 1330.23242188 468.60009766 C1328.02685166 467.01924604 1325.83211545 465.42451872 1323.640625 463.82421875 C1311.93686898 455.28674673 1300.01521976 447.0921541 1288 439 C1287.18966309 438.45424316 1286.37932617 437.90848633 1285.54443359 437.34619141 C1274.77629317 430.10689817 1263.9275506 422.99620707 1253 416 C1252.29391602 415.5472168 1251.58783203 415.09443359 1250.86035156 414.62792969 C1227.63204944 399.76055904 1203.96217053 385.64823327 1180 372 C1179.01692871 371.43829102 1178.03385742 370.87658203 1177.02099609 370.29785156 C1156.22332273 358.42043301 1135.17106717 347.06116023 1113.8984375 336.05859375 C1109.45911409 333.76162683 1105.03442891 331.43902007 1100.61865234 329.09716797 C1082.15847836 319.31401839 1063.40784291 310.24058579 1044.42788696 301.51213074 C1040.36067002 299.6379531 1036.3114461 297.72884482 1032.26953125 295.80078125 C960.90024804 261.85629623 886.67754711 233.71096466 812 208 C811.1525824 207.70758423 810.30516479 207.41516846 809.43206787 207.1138916 C728.3615194 179.15879794 645.49703738 156.44562946 497 123 C495.7305957 122.73872314 494.46119141 122.47744629 493.15332031 122.20825195 C452.5898397 113.86560999 411.88441601 106.56160956 371 100 C369.14166534 99.70156189 369.14166534 99.70156189 367.24578857 99.39709473 C299.15655942 88.5029086 230.67249972 80.1837247 162 74 C161.33616051 73.94016434 160.67232101 73.88032867 159.98836517 73.81867981 C108.73131432 69.20837447 57.35619702 65.95858634 5.9375 63.8125 C5.05378723 63.77557037 4.17007446 63.73864075 3.25958252 63.70059204 C-3.15934048 63.43755133 -9.57930239 63.21479896 -16 63 C-17.20766273 62.95947038 -18.41532547 62.91894075 -19.65958405 62.87718296 C-40.78719762 62.1836595 -61.89266784 61.83650032 -83.03125525 61.83274293 C-85.36248462 61.83201316 -87.69370867 61.82984435 -90.02493668 61.82724571 C-98.2845317 61.81808306 -106.544111 61.81389809 -114.80371094 61.81469727 C-121.47137891 61.81522623 -128.13898769 61.80824223 -134.80664062 61.79418945 C-192.14729794 61.6761247 -249.3503034 62.81212589 -306.61328125 66.09375 Z " fill="#10776D" transform="translate(2351,1166)"/>
<path d="M0 0 C0.8712149 -0.00067474 1.74242981 -0.00134949 2.64004517 -0.00204468 C15.70734919 0.01403196 28.37675547 0.44951166 41.1875 3.25 C42.43901855 3.51538574 42.43901855 3.51538574 43.71582031 3.78613281 C81.73961389 12.04101713 116.36203114 32.12037281 140.1875 63.25 C140.99703125 64.25546875 141.8065625 65.2609375 142.640625 66.296875 C148.95427577 74.1819503 154.26731846 82.43558957 159.1875 91.25 C159.6220752 92.0234375 160.05665039 92.796875 160.50439453 93.59375 C167.99066085 107.03977576 173.95879671 120.78638285 179.1875 135.25 C179.4963916 136.08901855 179.8052832 136.92803711 180.12353516 137.79248047 C184.90161452 150.87686674 188.34102952 164.24038658 191.61157227 177.76342773 C191.85843025 178.78240143 191.85843025 178.78240143 192.11027527 179.82196045 C192.56030726 181.68676434 193.00563796 183.55270097 193.45068359 185.41870117 C194.06329783 188.17454198 194.06329783 188.17454198 195.1875 190.25 C208.23235992 179.16395291 220.40461934 167.15439205 232.42236328 154.97827148 C236.98149351 150.37583488 241.57766641 145.90940461 246.50024414 141.6965332 C248.62029171 139.87895516 250.64761715 137.96918154 252.6875 136.0625 C272.34227301 118.39123619 295.66297644 103.54694134 321.1875 96.25 C322.033125 96.00378906 322.87875 95.75757813 323.75 95.50390625 C338.32438888 91.93416573 353.3316302 93.7101463 366.4375 100.9375 C380.06909013 109.81131111 385.65081839 121.70901119 389.42578125 137 C391.47698803 147.30706515 391.34085373 157.8941768 391.5177002 168.36050415 C392.98485202 248.66108168 407.69719817 327.2818661 422.2101593 406.03517151 C424.37222692 417.77332163 426.50302571 429.51665642 428.60546875 441.265625 C436.6265224 516.66990028 436.6265224 516.66990028 466.1875 583.25 C471.14492107 565.6082399 475.50792951 547.86935346 479.5625 530 C480.03205155 527.93407925 480.50161542 525.86816129 480.97119141 523.80224609 C481.67911881 520.68600376 482.38685367 517.56971807 483.09417725 514.45333862 C510.88970033 392.05498057 510.88970033 392.05498057 552.48046875 365.1171875 C570.7984795 354.06774724 589.43955739 350.57893964 610.4765625 355.28515625 C631.88246649 360.85069129 650.87030273 372.155157 666.97265625 387.1875 C668.93240183 389.01244827 670.94197362 390.72604355 673 392.4375 C683.14896319 401.31784279 691.70640084 411.84770248 699.86669922 422.53076172 C701.57372966 424.75274108 703.31326058 426.94796768 705.05371094 429.14379883 C713.5236722 439.84080275 721.72836618 450.74400715 729.97949219 461.60986328 C736.18542541 469.77809762 742.45222792 477.88356319 748.88427734 485.87524414 C752.4038239 490.25289077 755.85367712 494.67603622 759.26733398 499.13696289 C762.80149329 503.75481049 766.36564338 508.34875867 769.9375 512.9375 C770.53030762 513.69981934 771.12311523 514.46213867 771.73388672 515.24755859 C774.71672838 519.08195214 777.70487062 522.91201941 780.703125 526.734375 C786.60107034 534.26503819 792.40927759 541.84599936 798.0625 549.5625 C825.68311627 588.84090396 825.68311627 588.84090396 862.1875 619.25 C863.16976562 619.83136719 864.15203125 620.41273438 865.1640625 621.01171875 C876.79155248 627.34701342 889.09520876 629.97309388 901.99609375 626.4921875 C915.86874274 621.91286647 924.53979183 613.4040958 931.26879883 600.62817383 C943.10049566 576.6212886 945.3652611 547.05601224 945.3203125 520.68359375 C945.32174759 518.77417747 945.32174759 518.77417747 945.32321167 516.82618713 C945.32388879 514.1393792 945.32258259 511.4526637 945.31787109 508.76586914 C945.31115491 504.75079254 945.31779739 500.73578066 945.32421875 496.72070312 C945.3280317 483.71865111 945.16123419 470.74635417 944.61470985 457.75487328 C944.17083863 446.79573996 943.90333442 435.83453553 943.67041016 424.86914062 C943.64849956 423.83794448 943.62658895 422.80674834 943.6040144 421.74430382 C943.07789256 396.37846141 942.98454524 371.01329679 942.91710854 345.64281726 C942.9003374 339.7208157 942.87907261 333.79883077 942.85776538 327.87684418 C942.81549628 316.10857889 942.77630269 304.34030585 942.73974609 292.57202148 C942.73758329 291.87611713 942.73542049 291.18021279 942.73319215 290.46322042 C942.72226709 286.94397354 942.71138332 283.42472652 942.70052338 279.90547943 C942.62834885 256.51899954 942.55386268 233.13253061 942.46875 209.74609375 C942.46635193 209.08402606 942.46395386 208.42195837 942.46148312 207.73982802 C942.34163642 174.72844671 942.18769882 141.71924784 941.703125 108.7109375 C941.68806884 107.67414923 941.68806884 107.67414923 941.67270851 106.61641574 C941.32877221 83.09564499 940.80480137 59.57470697 939.98765945 36.06524277 C939.73883209 27.55371829 941.97325842 19.71787398 947.3828125 13.0703125 C953.91045774 6.48615085 961.36498283 3.05227959 970.60791016 2.86962891 C978.53581232 2.88790745 985.18691417 3.08608278 992.1875 7.25 C992.90164063 7.6625 993.61578125 8.075 994.3515625 8.5 C1001.66464227 13.32060689 1005.85085199 20.5279737 1007.79882812 28.99023438 C1008.54480842 33.32741632 1008.6190763 37.67145912 1008.75 42.0625 C1008.78192727 43.13055815 1008.81385454 44.19861629 1008.84674931 45.29903984 C1009.9206992 82.19240179 1010.48380371 119.08629264 1010.8946054 155.99251604 C1010.94205894 160.24973335 1010.9905914 164.50693799 1011.03930092 168.76414108 C1011.27547572 189.4266294 1011.50239382 210.08921181 1011.72447765 230.75185609 C1011.75000669 233.12562179 1011.77559284 235.49938686 1011.80119419 237.87315178 C1013.50181722 395.61674797 1013.50181722 395.61674797 1013.55527467 467.23445761 C1013.55969432 472.83127327 1013.57112183 478.42804319 1013.58547974 484.02484131 C1013.60366166 491.36243543 1013.60393173 498.69986248 1013.59052086 506.03746414 C1013.58756445 508.60350057 1013.58904547 511.1695478 1013.5959568 513.73557663 C1013.7144163 566.3606796 1005.18214191 626.78138259 967.7109375 666.81640625 C946.73326706 687.04719369 921.11514664 695.83481488 892.1875 696.625 C847.40804703 695.35165063 814.02664791 671.34979588 784.00390625 640.18457031 C780.93718086 636.9183429 778.11584183 633.50785994 775.3515625 629.98046875 C772.74559953 626.69243966 770.00199841 623.54072572 767.25 620.375 C761.62317683 613.86141293 756.37594125 607.11457731 751.1875 600.25 C749.64759134 598.2486461 748.1058805 596.24867775 746.5625 594.25 C737.1844606 582.06864909 727.85748163 569.84674465 718.65625 557.53125 C714.49478888 551.98263518 710.2710636 546.48081456 706.06396484 540.96679688 C702.46088478 536.24194712 698.86954256 531.50960144 695.3125 526.75 C680.79934848 507.34415724 665.79349836 488.27105343 650.06811523 469.83178711 C647.24063305 466.51301764 644.48127712 463.14815986 641.75 459.75 C636.95583494 453.86858679 631.86179333 448.29795579 626.64550781 442.79150391 C625.28393531 441.3519579 623.93445516 439.90100128 622.5859375 438.44921875 C615.12806314 430.64804541 606.35216959 423.3070824 595.375 421.6875 C590.87625905 421.88162953 588.34064766 423.61255669 585.1796875 426.73046875 C560.43928383 458.0198028 555.00965191 508.02055177 546.58599854 545.95904541 C530.39144195 618.81867138 530.39144195 618.81867138 513.1875 642.25 C512.63707031 643.01441406 512.08664062 643.77882813 511.51953125 644.56640625 C503.85612371 654.23554515 492.32563619 661.27038981 480.1875 663.25 C463.3282094 665.03101727 448.8646815 661.65472703 435.1875 651.25 C417.97634736 637.31213406 406.37359975 620.13532445 397.1875 600.25 C396.66542969 599.13367187 396.14335937 598.01734375 395.60546875 596.8671875 C382.94406137 568.60452089 377.02541889 537.77439591 371.05566406 507.5537529 C370.61455589 505.32216266 370.17134026 503.09099849 369.7277832 500.8598938 C353.86218285 420.96072462 338.40389391 340.21320335 329.1875 259.25 C329.04435364 258.01017365 329.04435364 258.01017365 328.89831543 256.74530029 C326.19152223 233.24950311 324.50798705 209.79741909 323.48788452 186.17105103 C323.24510249 180.83461286 322.79889359 175.55583303 322.1875 170.25 C308.39880962 178.62244318 296.89701742 188.5445693 285.21289062 199.61816406 C279.22172672 205.27776693 272.99694874 210.62218646 266.71142578 215.94921875 C260.14494503 221.55418662 253.8636746 227.47661908 247.5625 233.375 C242.51613026 238.09751862 237.44389985 242.76095779 232.1875 247.25 C231.11950501 248.17154289 230.0518278 249.09345413 228.984375 250.015625 C223.33797891 254.88596143 217.66653254 259.72706093 211.9375 264.5 C211.06609375 265.22703125 210.1946875 265.9540625 209.296875 266.703125 C207.1875 268.25 207.1875 268.25 205.1875 268.25 C205.27052368 269.25075562 205.27052368 269.25075562 205.35522461 270.27172852 C205.61634453 273.45163113 205.87063617 276.63205007 206.125 279.8125 C206.21201172 280.85986328 206.29902344 281.90722656 206.38867188 282.98632812 C208.25962081 306.61572025 208.33003992 330.21988515 208.30356562 353.90579116 C208.29919523 358.82226989 208.30071216 363.73874754 208.3014679 368.65522766 C208.301989 377.14700577 208.29888568 385.63877613 208.29323006 394.13055229 C208.28505863 406.40781891 208.28249409 418.68508182 208.28124207 430.96235085 C208.27906036 450.88758172 208.27242429 470.81280847 208.26293945 490.73803711 C208.25374245 510.07885721 208.24667284 529.41967619 208.24243164 548.76049805 C208.24216892 549.95522763 208.24190619 551.14995721 208.24163551 552.38089072 C208.24033035 558.37526277 208.23906667 564.36963482 208.23782361 570.36400688 C208.22747846 619.99267425 208.20960658 669.62133659 208.1875 719.25 C184.0975 719.25 160.0075 719.25 135.1875 719.25 C134.8575 587.58 134.5275 455.91 134.1875 320.25 C127.5875 324.21 120.9875 328.17 114.1875 332.25 C108.20989396 335.64154952 102.2346313 338.9906489 96.1875 342.25 C95.33913574 342.70842285 94.49077148 343.1668457 93.61669922 343.63916016 C28.18504597 378.82579079 -42.22255147 400.91613365 -115.8125 410.25 C-116.69550781 410.36633789 -117.57851562 410.48267578 -118.48828125 410.60253906 C-123.70508249 411.24900795 -128.46369726 411.25 -133.8125 411.25 C-133.8125 512.89 -133.8125 614.53 -133.8125 719.25 C-157.5725 719.25 -181.3325 719.25 -205.8125 719.25 C-205.8125 617.94 -205.8125 516.63 -205.8125 412.25 C-211.4225 411.92 -217.0325 411.59 -222.8125 411.25 C-227.72578114 410.74334224 -232.60540396 410.20233127 -237.5 409.5625 C-238.47771866 409.43520004 -238.47771866 409.43520004 -239.47518921 409.30532837 C-266.44083106 405.75425893 -293.0041171 399.8527943 -318.8125 391.25 C-318.8125 499.49 -318.8125 607.73 -318.8125 719.25 C-342.5725 719.25 -366.3325 719.25 -390.8125 719.25 C-391.3075 542.04 -391.3075 542.04 -391.8125 361.25 C-443.34460913 338.19616171 -492.82785942 320.24808007 -548.8125 313.25 C-549.70582031 313.13672363 -550.59914063 313.02344727 -551.51953125 312.90673828 C-593.49506199 307.80487366 -636.1033608 310.29155154 -677.8125 316.25 C-677.8125 448.91 -677.8125 581.57 -677.8125 718.25 C-701.9025 718.25 -725.9925 718.25 -750.8125 718.25 C-750.8125 593.84 -750.8125 469.43 -750.8125 341.25 C-765.29388971 349.76846454 -777.74672099 357.88190209 -789.8125 369.25 C-790.82570313 370.16652344 -790.82570313 370.16652344 -791.859375 371.1015625 C-801.45454534 380.12102262 -808.26866226 391.35764164 -814.14990234 403.03271484 C-818.10919075 410.60457909 -823.67074584 415.61737387 -831.7421875 418.5546875 C-841.6425265 420.796749 -853.00112474 420.6686742 -861.8125 415.25 C-868.89348384 410.51678917 -872.8217795 404.42633797 -875.421875 396.359375 C-878.55738269 379.42763345 -870.85336822 365.07345535 -861.61572266 351.49023438 C-858.84014406 347.61330802 -855.86034428 343.91482563 -852.8125 340.25 C-852.08643555 339.37166504 -852.08643555 339.37166504 -851.34570312 338.47558594 C-842.03430278 327.26475579 -832.28436867 317.29307091 -820.8125 308.25 C-819.31396484 307.0434375 -819.31396484 307.0434375 -817.78515625 305.8125 C-801.8724783 293.13262916 -771.57306103 269.25 -750.8125 269.25 C-750.8125 182.46 -750.8125 95.67 -750.8125 6.25 C-726.7225 6.25 -702.6325 6.25 -677.8125 6.25 C-677.8125 86.77 -677.8125 167.29 -677.8125 250.25 C-673.3575 249.26 -673.3575 249.26 -668.8125 248.25 C-666.75532803 247.94014935 -664.69255375 247.66421339 -662.625 247.43359375 C-661.51253906 247.30919922 -660.40007812 247.18480469 -659.25390625 247.05664062 C-658.11824219 246.93482422 -656.98257812 246.81300781 -655.8125 246.6875 C-654.70777344 246.56181641 -653.60304688 246.43613281 -652.46484375 246.30664062 C-636.3320379 244.53777385 -620.27919959 244.04306177 -604.0625 244.0625 C-603.12296478 244.06310425 -602.18342957 244.0637085 -601.21542358 244.06433105 C-585.00630342 244.09245432 -568.95070943 244.61822277 -552.8125 246.25 C-551.57661133 246.37358887 -550.34072266 246.49717773 -549.06738281 246.62451172 C-511.28353077 250.55536644 -474.40391143 258.65451353 -438.3125 270.5 C-437.1056958 270.8928418 -435.8988916 271.28568359 -434.65551758 271.69042969 C-420.09926466 276.59275046 -406.12922662 282.52330935 -391.8125 288.25 C-391.4825 195.19 -391.1525 102.13 -390.8125 6.25 C-367.0525 6.25 -343.2925 6.25 -318.8125 6.25 C-318.4825 110.2 -318.1525 214.15 -317.8125 321.25 C-295.003054 329.07728248 -295.003054 329.07728248 -271.875 335.5625 C-270.91637558 335.7980661 -270.91637558 335.7980661 -269.93838501 336.03839111 C-248.89247386 341.19004982 -227.39349839 344.40805491 -205.8125 346.25 C-205.82821045 345.15558594 -205.82821045 345.15558594 -205.84423828 344.0390625 C-206.68437582 275.12651512 -200.87749837 203.88383034 -178.8125 138.25 C-178.52407227 137.39019531 -178.23564453 136.53039063 -177.93847656 135.64453125 C-167.74281806 105.71188621 -153.29459847 77.72622561 -131.765625 54.390625 C-130.18347392 52.65658742 -128.70303119 50.90300618 -127.25 49.0625 C-103.00159929 21.08357611 -64.62545186 6.16742159 -28.8125 1.25 C-28.13227783 1.15428711 -27.45205566 1.05857422 -26.7512207 0.95996094 C-17.87760063 -0.10843479 -8.92427296 0.00620406 0 0 Z M-80.328125 101.54248047 C-121.92901178 149.39718477 -127.99653851 221.58616552 -131.8125 282.25 C-131.88608231 283.40804138 -131.88608231 283.40804138 -131.96115112 284.58947754 C-132.79221299 298.06676782 -132.93587154 311.50030083 -132.875 325 C-132.86996519 326.98046759 -132.86540585 328.96093645 -132.86132812 330.94140625 C-132.85050187 335.71096985 -132.83335146 340.48047013 -132.8125 345.25 C-78.79965101 345.853563 -19.14384739 324.77765267 29.1875 302.25 C30.21536621 301.77449707 31.24323242 301.29899414 32.30224609 300.80908203 C64.7984504 285.71813719 95.91408478 267.94399335 125.1875 247.25 C126.1146582 246.63777588 127.04181641 246.02555176 127.99707031 245.39477539 C130.43718695 243.44413883 130.43718695 243.44413883 130.54931641 240.59790039 C130.35861572 239.08184204 130.35861572 239.08184204 130.1640625 237.53515625 C130.02645508 236.37902832 129.88884766 235.22290039 129.74707031 234.03173828 C129.56241211 232.78376465 129.37775391 231.53579102 129.1875 230.25 C129.00541992 228.96722168 128.82333984 227.68444336 128.63574219 226.36279297 C128.00888447 222.12637166 127.29539707 217.90671031 126.5625 213.6875 C126.43189178 212.92976288 126.30128357 212.17202576 126.16671753 211.3913269 C120.1239577 176.60325095 111.20921614 138.76185605 89.1875 110.25 C88.47078125 109.31542969 87.7540625 108.38085938 87.015625 107.41796875 C69.3459279 85.1480574 46.66046935 71.09769856 18.1875 67.25 C-19.38917069 62.94279269 -54.57733563 73.19872967 -80.328125 101.54248047 Z " fill="#006A62" transform="translate(1868.8125,1906.75)"/>
<path d="M0 0 C0.85461823 0.00182281 1.70923645 0.00364563 2.5897522 0.00552368 C15.87196892 0.05311797 28.83490375 0.578073 41.875 3.3125 C42.72497559 3.48942383 43.57495117 3.66634766 44.45068359 3.84863281 C80.23106594 11.56009434 114.90242669 30.23329328 137.875 59.3125 C138.49810059 60.09173828 138.49810059 60.09173828 139.13378906 60.88671875 C194.46169945 130.55605413 204.49160136 226.7298635 208.10713124 353.87836146 C208.0982925 358.80889097 208.10143093 363.73941717 208.10293579 368.66995239 C208.10397207 377.16311299 208.09782934 385.65624227 208.08646011 394.14939499 C208.07003412 406.42826105 208.06497988 418.70711236 208.06248413 430.98598821 C208.05813345 450.91954104 208.04489664 470.85307726 208.02587891 490.78662109 C208.00745141 510.12190672 207.99332877 529.4571878 207.98486328 548.79248047 C207.98433783 549.98924319 207.98381239 551.18600591 207.98327102 552.41903417 C207.98066048 558.42431482 207.97813317 564.4295955 207.97564721 570.4348762 C207.95499674 620.06076287 207.91928398 669.68662926 207.875 719.3125 C184.115 719.3125 160.355 719.3125 135.875 719.3125 C135.74330656 692.29117781 135.61266822 665.26985115 135.48384857 638.24851513 C135.42397388 625.69586553 135.36366372 613.14321833 135.30224609 600.59057617 C135.24857894 589.62174367 135.19581252 578.65290722 135.14403296 567.68406564 C135.11670724 561.90159399 135.08899532 556.1191249 135.06019592 550.33666039 C134.99091554 536.37660578 134.93204261 522.41655586 134.88590622 508.45640516 C134.87504236 505.32471243 134.86254638 502.19302957 134.84976196 499.06134415 C134.72032539 464.45742682 135.28837288 429.92349986 135.875 395.3125 C47.105 395.3125 -41.665 395.3125 -133.125 395.3125 C-133.125 502.2325 -133.125 609.1525 -133.125 719.3125 C-157.215 719.3125 -181.305 719.3125 -206.125 719.3125 C-206.16922626 669.05275525 -206.2061021 618.79302909 -206.22713066 568.53327039 C-206.22963158 562.57760015 -206.23222028 556.62192995 -206.23486328 550.66625977 C-206.2353879 549.48076858 -206.23591252 548.2952774 -206.23645304 547.07386225 C-206.24511694 527.96710216 -206.26086438 508.86035431 -206.27930559 489.75360144 C-206.29811712 470.09683851 -206.30914029 450.44008191 -206.31317699 430.78331035 C-206.31589892 418.68849141 -206.32444309 406.59370707 -206.34083293 394.4988988 C-206.35153934 386.16530882 -206.35457038 377.83173631 -206.35200275 369.49813998 C-206.35074228 364.71543281 -206.35244284 359.93278536 -206.36341095 355.15008926 C-206.43463526 322.44670649 -205.65548791 289.68545063 -202.375 257.125 C-202.29296326 256.28491394 -202.21092651 255.44482788 -202.12640381 254.57928467 C-194.4997585 177.1567361 -176.07383145 88.47253038 -113.125 36.3125 C-93.06739587 20.45184909 -69.68524814 9.50255567 -44.6875 4.125 C-43.97376221 3.97015137 -43.26002441 3.81530273 -42.5246582 3.65576172 C-28.35947189 0.77730816 -14.40916698 -0.06402203 0 0 Z M-80.5859375 100.91796875 C-123.58792212 150.09216252 -128.92284458 224.63007864 -132.375 287 C-132.41619965 287.72712189 -132.45739929 288.45424377 -132.49984741 289.20339966 C-133.16514145 301.26484181 -133.125 313.20695017 -133.125 325.3125 C-44.685 325.3125 43.755 325.3125 134.875 325.3125 C134.9799015 308.64724809 134.9799015 308.64724809 134.359375 292.04296875 C134.30381439 291.12025177 134.24825378 290.19753479 134.19100952 289.24685669 C134.01144062 286.33057065 133.81985372 283.41530209 133.625 280.5 C133.55875427 279.48602142 133.49250854 278.47204285 133.42425537 277.42733765 C129.10745728 212.04543358 120.39338251 135.69650812 68.875 89.3125 C25.00519579 53.10250287 -42.53818495 60.63566565 -80.5859375 100.91796875 Z " fill="#006A62" transform="translate(3649.125,1906.6875)"/>
<path d="M0 0 C137.97263024 0 137.97263024 0 173.875 3.75 C174.68121796 3.83236908 175.48743591 3.91473816 176.31808472 3.99960327 C247.37346227 11.32881531 322.7547167 27.52257322 377 77 C377.86882813 77.78503906 378.73765625 78.57007813 379.6328125 79.37890625 C410.68775074 108.88609033 426.73227281 152.09117565 428.11010742 194.37939453 C428.35629278 209.65119697 428.39978247 224.88170051 426 240 C425.87641113 240.78955078 425.75282227 241.57910156 425.62548828 242.39257812 C422.47010619 261.71499062 416.45951617 279.85791981 407 297 C406.42378906 298.06605469 405.84757812 299.13210938 405.25390625 300.23046875 C398.39384097 312.47719037 389.62962129 322.89030962 380 333 C379.30648437 333.75796875 378.61296875 334.5159375 377.8984375 335.296875 C361.9848669 352.13208097 340.87859574 364.36918036 320 374 C319.23945313 374.35271973 318.47890625 374.70543945 317.6953125 375.06884766 C257.01679002 402.89211029 189.03374955 410.14064911 123.0625 413.1875 C122.16497009 413.23038147 121.26744019 413.27326294 120.3427124 413.31744385 C104.53698257 414.05703956 88.84998971 414 73 414 C73 514.32 73 614.64 73 718 C48.91 718 24.82 718 0 718 C0 481.06 0 244.12 0 0 Z M73 72 C73 160.77 73 249.54 73 341 C212.6244471 342.11210639 212.6244471 342.11210639 333.8046875 280.25390625 C355.2931009 257.75312079 361.72829279 229.43050035 361.3125 199.30078125 C361.01999622 189.88825333 359.6191387 181.03562433 357 172 C356.69449219 170.94449951 356.69449219 170.94449951 356.3828125 169.86767578 C347.86803712 141.84644352 326.73973753 121.43072406 301.46875 107.8203125 C300.3240625 107.21960937 299.179375 106.61890625 298 106 C296.9584375 105.44054688 295.916875 104.88109375 294.84375 104.3046875 C240.42378867 76.96755739 173.71075376 74.27063599 114 72.375 C112.76338623 72.33487793 111.52677246 72.29475586 110.25268555 72.25341797 C97.82537236 71.90576689 85.44755642 72 73 72 Z " fill="#006A62" transform="translate(2941,1908)"/>
<path d="M0 0 C0.80065887 0.00182281 1.60131775 0.00364563 2.42623901 0.00552368 C51.16125163 0.19126039 97.87022645 16.13632814 134.8125 48.3125 C135.37727051 48.80282715 135.94204102 49.2931543 136.52392578 49.79833984 C145.53863713 57.68856616 153.56234472 66.25657237 160.9375 75.6875 C161.70320313 76.66460938 162.46890625 77.64171875 163.2578125 78.6484375 C164.8125 81.3125 164.8125 81.3125 164.74853516 83.23657227 C163.35160978 86.3346569 161.23710774 87.37510687 158.390625 89.19140625 C157.54445869 89.73900604 157.54445869 89.73900604 156.68119812 90.29766846 C154.81539916 91.50159354 152.93942945 92.68851573 151.0625 93.875 C149.09727562 95.13213256 147.13412339 96.39245931 145.17100525 97.65287781 C143.80889045 98.52685198 142.44580579 99.39931628 141.08180237 100.27033997 C136.19692656 103.39639 131.37540892 106.60657569 126.57421875 109.859375 C124.60338539 111.18568203 122.631715 112.51073531 120.65979004 113.8354187 C119.38812667 114.69410644 118.11994927 115.55797974 116.85534668 116.42703247 C115.08880247 117.63930783 113.31005839 118.83121512 111.52734375 120.01953125 C110.51792725 120.7050708 109.50851074 121.39061035 108.46850586 122.09692383 C105.8125 123.3125 105.8125 123.3125 103.58081055 122.66113281 C101.16203771 120.81641362 99.53077892 118.66802825 97.6875 116.25 C77.46776004 90.99179063 46.0196356 77.68400378 14.51171875 73.91796875 C11.61049827 73.64148649 8.72345641 73.44730551 5.8125 73.3125 C5.05582031 73.27125 4.29914063 73.23 3.51953125 73.1875 C-29.63766261 72.27439311 -62.32809123 84.03164545 -86.6796875 106.49609375 C-136.47615391 153.78399073 -149.36562625 230.50493284 -154.875 295.6875 C-154.93593842 296.40166077 -154.99687683 297.11582153 -155.05966187 297.85162354 C-156.83463783 319.00049423 -157.39633751 340.15741597 -157.375 361.375 C-157.37439575 362.49979767 -157.3737915 363.62459534 -157.37316895 364.78347778 C-157.25616277 445.73962533 -151.22439059 542.36927018 -97.1875 607.3125 C-96.55207275 608.07771973 -96.55207275 608.07771973 -95.90380859 608.85839844 C-75.8000106 632.70472369 -46.28998413 647.59277954 -15.34375 651.03125 C22.98836021 653.99155158 58.58626837 644.68840327 88.14526367 619.53759766 C94.01033132 614.40332118 99.47910376 608.81259437 103.8125 602.3125 C107.37480739 603.62769205 110.39678707 605.1998659 113.55859375 607.296875 C114.92226074 608.1950293 114.92226074 608.1950293 116.31347656 609.11132812 C117.2825293 609.75521484 118.25158203 610.39910156 119.25 611.0625 C121.31571309 612.4229281 123.38213794 613.78227597 125.44921875 615.140625 C127.02968994 616.17993164 127.02968994 616.17993164 128.64208984 617.24023438 C133.58864363 620.4734354 138.57259398 623.64675357 143.5625 626.8125 C144.42931396 627.36260742 145.29612793 627.91271484 146.18920898 628.47949219 C147.8635174 629.54141326 149.53807118 630.60294758 151.21289062 631.6640625 C155.74983884 634.54098534 160.2809807 637.42703616 164.8125 640.3125 C164.064486 644.79544141 162.77924435 647.01304527 159.8125 650.5 C158.99523438 651.46292969 158.17796875 652.42585938 157.3359375 653.41796875 C156.50320313 654.37316406 155.67046875 655.32835938 154.8125 656.3125 C154.08289062 657.15425781 153.35328125 657.99601562 152.6015625 658.86328125 C150.37529398 661.38290284 148.10660799 663.85452715 145.8125 666.3125 C145.01585937 667.17488281 144.21921875 668.03726563 143.3984375 668.92578125 C107.85834178 706.02276938 55.53979829 723.70640597 5.17578125 725.4375 C-28.20393756 725.98639568 -61.13743992 720.0045751 -91.1875 705.3125 C-91.85120605 704.99023438 -92.51491211 704.66796875 -93.19873047 704.3359375 C-114.60014793 693.80907183 -135.12405141 677.83058246 -150.1875 659.3125 C-150.60966797 658.80799316 -151.03183594 658.30348633 -151.46679688 657.78369141 C-174.42952743 630.340236 -190.6231509 598.04313818 -202.1875 564.3125 C-202.74800049 562.67812988 -202.74800049 562.67812988 -203.31982422 561.01074219 C-221.78935771 506.27161309 -229.1486257 447.59501695 -230.69018555 390.03076172 C-230.74997701 387.81335267 -230.81512898 385.59614636 -230.88085938 383.37890625 C-233.24009022 300.86567682 -225.20505016 214.69686293 -165.1875 85.3125 C-164.49398437 84.34699219 -163.80046875 83.38148437 -163.0859375 82.38671875 C-134.05195931 42.8369004 -95.90241026 15.40222637 -47.6875 4.5625 C-46.81109863 4.36358154 -45.93469727 4.16466309 -45.03173828 3.9597168 C-30.15872125 0.81085188 -15.16454782 -0.07247214 0 0 Z " fill="#006A62" transform="translate(875.1875,1906.6875)"/>
<path d="M0 0 C0.84949219 0.32871094 1.69898438 0.65742188 2.57421875 0.99609375 C12.60664328 5.43617138 18.94657485 12.46519572 23.125 22.51953125 C25.12677871 28.19421642 25 31.52469826 25 38 C18.07 38 11.14 38 4 38 C3.7525 36.30875 3.505 34.6175 3.25 32.875 C2.23549552 27.42466212 1.0238058 23.18503449 -3.67578125 19.7890625 C-11.3764606 15.13897347 -20.2340722 14.6564083 -28.93359375 16.68359375 C-32.97587172 18.13112568 -35.57050752 19.57050752 -38.625 22.625 C-40.51117785 27.25470928 -40.98416165 31.07919176 -40 36 C-37.20066418 42.09267208 -31.78565475 44.41329756 -25.8046875 46.6953125 C-21.99822341 48.02934393 -18.15450512 49.24795414 -14.31542969 50.48413086 C-0.0043788 55.11529658 15.00272605 60.03956327 22.4375 74.25 C26.3194551 82.67540928 26.60385501 93.73678943 23.4375 102.4375 C18.36854519 112.95862958 10.49393414 117.73868366 0 122 C-14.02851285 126.80428522 -31.74649973 124.84783368 -45.015625 118.57421875 C-47.45303403 117.16212699 -49.72594455 115.65979909 -52 114 C-53.0725 113.2575 -54.145 112.515 -55.25 111.75 C-60.66258278 106.33741722 -64.62304738 99.57323943 -66 92 C-66 89.03 -66 86.06 -66 83 C-59.07 83 -52.14 83 -45 83 C-44.34 86.3 -43.68 89.6 -43 93 C-40.13916129 99.31768549 -35.17695211 101.51536061 -29 104 C-21.4464773 106.43612598 -12.21893556 105.82716262 -4.875 102.9921875 C-1.33141026 101.11703793 1.21463481 98.57073038 3 95 C3.40802226 90.56668122 3.49977267 86.40561065 2 82.1875 C-5.04420649 74.48289915 -15.85078099 72.05723219 -25.44042969 68.87768555 C-33.86037196 66.06936829 -41.61797794 63.05771913 -49 58 C-50.00897339 57.31006958 -50.00897339 57.31006958 -51.03833008 56.60620117 C-56.73507718 52.50854098 -59.91154159 46.59008256 -62 40 C-63.60272255 30.08084616 -62.38883444 21.12845016 -56.4921875 12.89453125 C-43.24705164 -3.52327669 -19.2155718 -7.47440352 0 0 Z " fill="#006A62" transform="translate(1956,2794)"/>
<path d="M0 0 C26.4 0 52.8 0 80 0 C80 5.94 80 11.88 80 18 C60.53 18 41.06 18 21 18 C21 28.89 21 39.78 21 51 C38.16 51 55.32 51 73 51 C73 56.94 73 62.88 73 69 C55.84 69 38.68 69 21 69 C21 80.88 21 92.76 21 105 C40.8 105 60.6 105 81 105 C81 110.94 81 116.88 81 123 C54.27 123 27.54 123 0 123 C0 82.41 0 41.82 0 0 Z " fill="#006A62" transform="translate(1772,2793)"/>
<path d="M0 0 C10.66998432 8.7617904 14.65686789 20.80686908 16.18359375 34.15234375 C16.63530208 40.95963832 16.61657909 47.77621769 16.57470703 54.59545898 C16.55860239 57.71317162 16.57464571 60.82959176 16.59375 63.94726562 C16.61192365 81.68351739 15.59200024 99.45741147 2.7578125 112.94921875 C-6.90973573 121.22311435 -18.65174337 121.96252698 -30.81640625 121.15234375 C-40.56114316 119.55165445 -47.42618536 115.68863687 -53.81640625 108.15234375 C-63.81086061 94.19822209 -64.00345515 76.85549556 -64.00170898 60.34375 C-64.00388173 58.05319229 -64.0220515 55.76312832 -64.04101562 53.47265625 C-64.10657794 36.52536792 -63.43544465 17.61440204 -51.81640625 4.15234375 C-38.31203788 -8.38939143 -15.46119098 -10.14305594 0 0 Z M-38.00390625 18.21484375 C-48.84506661 35.78500019 -45.48196582 67.60955703 -41.81640625 87.15234375 C-40.08164497 92.90161896 -37.31241937 98.9586149 -32.0546875 102.2578125 C-27.01889957 104.27036998 -20.85576576 103.92041294 -15.65234375 102.60546875 C-10.97822758 100.42284182 -9.05290461 96.68262366 -6.859375 92.17578125 C-4.2359085 84.57067612 -3.50724537 77.0072156 -3.515625 69.0078125 C-3.50919731 67.61034538 -3.50919731 67.61034538 -3.50263977 66.18464661 C-3.49693749 64.22751675 -3.49636563 62.27036572 -3.50073242 60.31323242 C-3.50388737 57.35753298 -3.48039829 54.40284151 -3.45507812 51.44726562 C-3.05475304 31.90601987 -3.05475304 31.90601987 -11.81640625 15.15234375 C-20.43025171 8.6394362 -30.82314029 11.44440727 -38.00390625 18.21484375 Z " fill="#006A62" transform="translate(2712.81640625,2796.84765625)"/>
<path d="M0 0 C10.86331267 9.05276056 14.49664553 21.43274619 16.1484375 35.08203125 C16.30657047 38.33072311 16.33578688 41.57593672 16.3515625 44.828125 C16.35726257 45.75689957 16.36296265 46.68567413 16.36883545 47.64259338 C16.3782483 49.60506059 16.38480459 51.56754333 16.38867188 53.5300293 C16.39830607 56.47929874 16.42933555 59.42784893 16.4609375 62.37695312 C16.55928905 79.60990644 15.86740639 97.50240437 4.23046875 111.3671875 C-4.72589 119.78723735 -15.19379847 121.47265414 -27.11328125 121.359375 C-36.30231327 120.67763908 -45.38854473 117.88670635 -51.8515625 111.08203125 C-61.82119328 98.97898154 -63.97170531 83.38500999 -64.0546875 68.1484375 C-64.06038757 67.31223373 -64.06608765 66.47602997 -64.07196045 65.61448669 C-64.0813556 63.85050701 -64.08792243 62.08651021 -64.09179688 60.32250977 C-64.10142304 57.68277497 -64.1324659 55.043847 -64.1640625 52.40429688 C-64.21689759 44.08103802 -63.95912522 35.98818238 -62.53515625 27.7734375 C-62.42000671 27.10582901 -62.30485718 26.43822052 -62.18621826 25.75038147 C-60.29667636 16.05992149 -55.91754063 6.52523967 -47.96484375 0.41015625 C-34.08388272 -8.31355309 -13.88607339 -9.33981101 0 0 Z M-38.71875 19.22265625 C-45.021379 29.56766109 -44.06210342 43.16740085 -44.09179688 54.83569336 C-44.1014395 57.11545201 -44.1325151 59.39428229 -44.1640625 61.67382812 C-44.3979193 81.72304956 -44.3979193 81.72304956 -35.8515625 99.08203125 C-31.23090176 103.58999295 -26.90271311 103.52353852 -20.75390625 103.515625 C-15.55495415 102.73893094 -12.20048492 99.96478175 -8.984375 95.87890625 C-3.79923842 87.65420684 -3.69913465 77.46386815 -3.6484375 68.04296875 C-3.63988739 66.77799057 -3.63988739 66.77799057 -3.63116455 65.48745728 C-3.62177199 63.71088899 -3.61520361 61.93430373 -3.61132812 60.15771484 C-3.60166374 57.48502989 -3.57060228 54.81312883 -3.5390625 52.140625 C-3.21724254 32.29704778 -3.21724254 32.29704778 -11.8515625 15.08203125 C-16.47096669 11.47664262 -21.30822613 11.72715354 -26.94921875 11.68359375 C-32.10279478 12.39108333 -35.53428263 15.17698072 -38.71875 19.22265625 Z " fill="#006A62" transform="translate(2465.8515625,2796.91796875)"/>
<path d="M0 0 C6.46893005 5.30716302 11.65781946 11.11811421 12.9140625 19.5703125 C14.44673397 38.1369783 7.71854251 51.80418995 -4.1484375 65.8828125 C-9.60620782 72.21908937 -15.36081023 78.29157746 -21.1171875 84.35546875 C-26.15990658 89.71087612 -31.11536832 95.14787339 -36.0859375 100.5703125 C-17.9359375 100.9003125 0.2140625 101.2303125 18.9140625 101.5703125 C18.9140625 107.1803125 18.9140625 112.7903125 18.9140625 118.5703125 C-8.4759375 118.5703125 -35.8659375 118.5703125 -64.0859375 118.5703125 C-64.0859375 103.5703125 -64.0859375 103.5703125 -61.48828125 99.32421875 C-60.36949032 98.22245361 -59.21282325 97.15796668 -58.0234375 96.1328125 C-56.81587164 94.97060731 -55.6088351 93.80785186 -54.40234375 92.64453125 C-53.82242676 92.11134277 -53.24250977 91.5781543 -52.64501953 91.02880859 C-50.77364212 89.27816521 -49.10747112 87.40739801 -47.4609375 85.4453125 C-44.56848148 82.09236596 -41.58529924 78.82740834 -38.5859375 75.5703125 C-34.34846292 70.9620411 -30.1657641 66.31882437 -26.0859375 61.5703125 C-25.66280273 61.0841748 -25.23966797 60.59803711 -24.80371094 60.09716797 C-11.78030135 45.62129431 -11.78030135 45.62129431 -7.77734375 27.1015625 C-8.47660841 21.36582203 -10.65914124 17.78460719 -15.0234375 14.0703125 C-20.94116366 11.21347918 -28.33935175 11.57161693 -34.5625 13.23046875 C-38.64360942 14.99589249 -41.32267873 17.26861224 -43.34375 21.35546875 C-44.89375369 25.98100607 -45.43575478 30.74812398 -46.0859375 35.5703125 C-52.6859375 35.5703125 -59.2859375 35.5703125 -66.0859375 35.5703125 C-66.61479611 24.332067 -65.04669436 15.23921276 -57.7734375 6.34765625 C-43.66415644 -8.51281339 -17.1106963 -11.75920281 0 0 Z " fill="#006A62" transform="translate(2343.0859375,2797.4296875)"/>
<path d="M0 0 C6.63343495 5.15545909 10.22355288 12.17212377 11.6953125 20.328125 C13.53379089 35.18219469 7.28184459 48.25157814 -1.45336914 59.97802734 C-8.02382845 68.38947905 -15.4909357 76.03091426 -22.86816406 83.72802734 C-26.55111619 87.59880814 -30.13725372 91.55749955 -33.734375 95.5078125 C-35.05111336 96.94310776 -36.39614443 98.35317568 -37.7734375 99.73046875 C-19.6234375 100.06046875 -1.4734375 100.39046875 17.2265625 100.73046875 C17.2265625 106.34046875 17.2265625 111.95046875 17.2265625 117.73046875 C-10.1634375 117.73046875 -37.5534375 117.73046875 -65.7734375 117.73046875 C-65.7734375 102.73046875 -65.7734375 102.73046875 -62.73828125 98.046875 C-61.43280432 96.75704815 -60.08907759 95.50484878 -58.7109375 94.29296875 C-57.38547346 93.02473771 -56.06125088 91.7552079 -54.73828125 90.484375 C-54.07747559 89.87094238 -53.41666992 89.25750977 -52.73583984 88.62548828 C-50.11761739 86.09716747 -47.76376957 83.38267679 -45.39672852 80.62084961 C-43.08579581 77.92968523 -40.68064876 75.33592094 -38.2734375 72.73046875 C-34.03499508 68.12268355 -29.85359693 63.47893016 -25.7734375 58.73046875 C-24.566875 57.37695312 -24.566875 57.37695312 -23.3359375 55.99609375 C-15.78723754 47.32407534 -8.53868186 38.37070565 -9.32421875 26.2734375 C-10.34097562 20.51770948 -12.25706751 17.02099641 -16.7109375 13.23046875 C-22.9284872 10.2024413 -30.8636595 10.79518296 -37.2734375 12.85546875 C-42.29737638 16.62342291 -45.30632637 20.61750572 -46.7734375 26.73046875 C-47.1034375 29.37046875 -47.4334375 32.01046875 -47.7734375 34.73046875 C-54.3734375 34.73046875 -60.9734375 34.73046875 -67.7734375 34.73046875 C-68.37570888 23.28731257 -66.3383337 13.58078608 -58.73828125 4.6953125 C-43.35768957 -10.68527918 -17.82610284 -11.45963754 0 0 Z " fill="#006A62" transform="translate(2591.7734375,2798.26953125)"/>
<path d="M0 0 C32.01 0 64.02 0 97 0 C97 5.94 97 11.88 97 18 C84.46 18 71.92 18 59 18 C59 52.65 59 87.3 59 123 C52.07 123 45.14 123 38 123 C38 88.35 38 53.7 38 18 C25.46 18 12.92 18 0 18 C0 12.06 0 6.12 0 0 Z " fill="#006A62" transform="translate(2016,2793)"/>
<path d="M0 0 C3.41147754 1.70573877 5.38347495 3.03500427 7.4375 6.25 C8.49901735 11.43964037 7.99228262 15.4955715 5.0625 19.9375 C2.06889534 22.93110466 0.31814926 23.17568547 -3.8125 23.25 C-8.03360147 23.20736261 -10.67586688 22.80473732 -14 20 C-16.83054764 15.75417853 -16.77409187 11.98515163 -16 7 C-12.57894333 0.42104487 -7.03118347 -0.95698527 0 0 Z " fill="#006A62" transform="translate(2152,2894)"/>
</svg>
